<svg width="799" height="474" viewBox="0 0 799 474" fill="none" xmlns="http://www.w3.org/2000/svg">
<g filter="url(#filter0_d_40_5063)">
<rect x="4" width="791" height="466" rx="27" fill="#FFF2EA"/>
</g>
<path d="M83.07 217.708H63.354L59.572 228H54.984L70.794 185.22H75.692L91.44 228H86.852L83.07 217.708ZM81.768 214.112L73.212 190.676L64.656 214.112H81.768ZM102.745 184.662V228H98.4053V184.662H102.745ZM149.861 205.618C152.3 206.073 154.366 207.313 156.061 209.338C157.756 211.363 158.603 213.719 158.603 216.406C158.603 218.597 158.045 220.581 156.929 222.358C155.854 224.094 154.263 225.479 152.155 226.512C150.047 227.504 147.526 228 144.591 228H129.587V184.662H144.157C148.538 184.662 151.866 185.675 154.139 187.7C156.454 189.725 157.611 192.35 157.611 195.574C157.611 198.261 156.888 200.451 155.441 202.146C153.994 203.799 152.134 204.957 149.861 205.618ZM133.927 203.82H144.033C146.968 203.82 149.22 203.138 150.791 201.774C152.403 200.369 153.209 198.447 153.209 196.008C153.209 193.611 152.403 191.73 150.791 190.366C149.22 189.002 146.906 188.32 143.847 188.32H133.927V203.82ZM144.281 224.342C147.422 224.342 149.861 223.598 151.597 222.11C153.374 220.622 154.263 218.576 154.263 215.972C154.263 213.368 153.333 211.301 151.473 209.772C149.654 208.201 147.195 207.416 144.095 207.416H133.927V224.342H144.281ZM164.597 211.012C164.597 207.54 165.279 204.502 166.643 201.898C168.048 199.253 169.97 197.227 172.409 195.822C174.889 194.375 177.679 193.652 180.779 193.652C184.003 193.652 186.772 194.396 189.087 195.884C191.443 197.372 193.138 199.273 194.171 201.588V194.148H198.511V228H194.171V220.498C193.096 222.813 191.381 224.735 189.025 226.264C186.71 227.752 183.941 228.496 180.717 228.496C177.658 228.496 174.889 227.773 172.409 226.326C169.97 224.879 168.048 222.833 166.643 220.188C165.279 217.543 164.597 214.484 164.597 211.012ZM194.171 211.074C194.171 208.346 193.613 205.949 192.497 203.882C191.381 201.815 189.852 200.224 187.909 199.108C186.008 197.992 183.9 197.434 181.585 197.434C179.188 197.434 177.038 197.971 175.137 199.046C173.236 200.121 171.727 201.691 170.611 203.758C169.536 205.783 168.999 208.201 168.999 211.012C168.999 213.781 169.536 216.22 170.611 218.328C171.727 220.395 173.236 221.986 175.137 223.102C177.038 224.177 179.188 224.714 181.585 224.714C183.9 224.714 186.008 224.156 187.909 223.04C189.852 221.924 191.381 220.333 192.497 218.266C193.613 216.199 194.171 213.802 194.171 211.074ZM220.075 228.496C216.19 228.496 213.007 227.607 210.527 225.83C208.088 224.011 206.724 221.552 206.435 218.452H210.899C211.106 220.353 211.994 221.903 213.565 223.102C215.177 224.259 217.326 224.838 220.013 224.838C222.369 224.838 224.208 224.28 225.531 223.164C226.895 222.048 227.577 220.663 227.577 219.01C227.577 217.853 227.205 216.902 226.461 216.158C225.717 215.414 224.766 214.835 223.609 214.422C222.493 213.967 220.964 213.492 219.021 212.996C216.5 212.335 214.454 211.673 212.883 211.012C211.312 210.351 209.969 209.379 208.853 208.098C207.778 206.775 207.241 205.019 207.241 202.828C207.241 201.175 207.737 199.645 208.729 198.24C209.721 196.835 211.126 195.719 212.945 194.892C214.764 194.065 216.83 193.652 219.145 193.652C222.782 193.652 225.717 194.582 227.949 196.442C230.181 198.261 231.38 200.782 231.545 204.006H227.205C227.081 202.022 226.296 200.431 224.849 199.232C223.444 197.992 221.501 197.372 219.021 197.372C216.83 197.372 215.053 197.889 213.689 198.922C212.325 199.955 211.643 201.237 211.643 202.766C211.643 204.089 212.036 205.184 212.821 206.052C213.648 206.879 214.66 207.54 215.859 208.036C217.058 208.491 218.67 209.007 220.695 209.586C223.134 210.247 225.076 210.888 226.523 211.508C227.97 212.128 229.21 213.037 230.243 214.236C231.276 215.435 231.814 217.026 231.855 219.01C231.855 220.829 231.359 222.461 230.367 223.908C229.375 225.313 227.99 226.429 226.213 227.256C224.436 228.083 222.39 228.496 220.075 228.496ZM270.652 209.338C270.652 210.826 270.611 211.963 270.528 212.748H242.442C242.566 215.311 243.186 217.501 244.302 219.32C245.418 221.139 246.886 222.523 248.704 223.474C250.523 224.383 252.507 224.838 254.656 224.838C257.467 224.838 259.823 224.156 261.724 222.792C263.667 221.428 264.948 219.589 265.568 217.274H270.156C269.33 220.581 267.552 223.288 264.824 225.396C262.138 227.463 258.748 228.496 254.656 228.496C251.474 228.496 248.622 227.793 246.1 226.388C243.579 224.941 241.595 222.916 240.148 220.312C238.743 217.667 238.04 214.587 238.04 211.074C238.04 207.561 238.743 204.481 240.148 201.836C241.554 199.191 243.517 197.165 246.038 195.76C248.56 194.355 251.432 193.652 254.656 193.652C257.88 193.652 260.691 194.355 263.088 195.76C265.527 197.165 267.387 199.067 268.668 201.464C269.991 203.82 270.652 206.445 270.652 209.338ZM266.25 209.214C266.292 206.693 265.775 204.543 264.7 202.766C263.667 200.989 262.241 199.645 260.422 198.736C258.604 197.827 256.62 197.372 254.47 197.372C251.246 197.372 248.498 198.405 246.224 200.472C243.951 202.539 242.69 205.453 242.442 209.214H266.25ZM276.609 211.012C276.609 207.54 277.311 204.502 278.717 201.898C280.122 199.253 282.044 197.227 284.483 195.822C286.963 194.375 289.753 193.652 292.853 193.652C295.829 193.652 298.515 194.375 300.913 195.822C303.31 197.269 305.067 199.149 306.183 201.464V182.12H310.523V228H306.183V220.436C305.149 222.792 303.455 224.735 301.099 226.264C298.743 227.752 295.973 228.496 292.791 228.496C289.691 228.496 286.901 227.773 284.421 226.326C281.982 224.879 280.06 222.833 278.655 220.188C277.291 217.543 276.609 214.484 276.609 211.012ZM306.183 211.074C306.183 208.346 305.625 205.949 304.509 203.882C303.393 201.815 301.863 200.224 299.921 199.108C298.019 197.992 295.911 197.434 293.597 197.434C291.199 197.434 289.05 197.971 287.149 199.046C285.247 200.121 283.739 201.691 282.623 203.758C281.548 205.783 281.011 208.201 281.011 211.012C281.011 213.781 281.548 216.22 282.623 218.328C283.739 220.395 285.247 221.986 287.149 223.102C289.05 224.177 291.199 224.714 293.597 224.714C295.911 224.714 298.019 224.156 299.921 223.04C301.863 221.924 303.393 220.333 304.509 218.266C305.625 216.199 306.183 213.802 306.183 211.074Z" fill="#303030"/>
<path d="M85.034 301.84L79.904 294.943C78.384 295.247 76.902 295.399 75.458 295.399C71.696 295.399 68.238 294.525 65.084 292.777C61.968 291.029 59.479 288.597 57.617 285.481C55.793 282.327 54.881 278.793 54.881 274.879C54.881 270.965 55.793 267.45 57.617 264.334C59.479 261.218 61.968 258.786 65.084 257.038C68.238 255.29 71.696 254.416 75.458 254.416C79.22 254.416 82.659 255.29 85.775 257.038C88.929 258.786 91.399 261.218 93.185 264.334C95.009 267.45 95.921 270.965 95.921 274.879C95.921 278.299 95.218 281.434 93.812 284.284C92.444 287.096 90.525 289.433 88.055 291.295L96.833 301.84H85.034ZM64.856 274.879C64.856 278.413 65.806 281.244 67.706 283.372C69.644 285.462 72.228 286.507 75.458 286.507C78.65 286.507 81.196 285.443 83.096 283.315C85.034 281.187 86.003 278.375 86.003 274.879C86.003 271.345 85.034 268.533 83.096 266.443C81.196 264.315 78.65 263.251 75.458 263.251C72.228 263.251 69.644 264.296 67.706 266.386C65.806 268.476 64.856 271.307 64.856 274.879ZM132.862 263.194V295H123.115V290.668C122.127 292.074 120.778 293.214 119.068 294.088C117.396 294.924 115.534 295.342 113.482 295.342C111.05 295.342 108.903 294.81 107.041 293.746C105.179 292.644 103.735 291.067 102.709 289.015C101.683 286.963 101.17 284.55 101.17 281.776V263.194H110.86V280.465C110.86 282.593 111.411 284.246 112.513 285.424C113.615 286.602 115.097 287.191 116.959 287.191C118.859 287.191 120.36 286.602 121.462 285.424C122.564 284.246 123.115 282.593 123.115 280.465V263.194H132.862ZM144.765 259.888C143.055 259.888 141.649 259.394 140.547 258.406C139.483 257.38 138.951 256.126 138.951 254.644C138.951 253.124 139.483 251.87 140.547 250.882C141.649 249.856 143.055 249.343 144.765 249.343C146.437 249.343 147.805 249.856 148.869 250.882C149.971 251.87 150.522 253.124 150.522 254.644C150.522 256.126 149.971 257.38 148.869 258.406C147.805 259.394 146.437 259.888 144.765 259.888ZM149.61 263.194V295H139.863V263.194H149.61ZM165.794 286.963H179.588V295H154.907V287.248L168.131 271.231H155.021V263.194H179.303V270.946L165.794 286.963ZM197.89 295.456C195.116 295.456 192.646 294.981 190.48 294.031C188.314 293.081 186.604 291.789 185.35 290.155C184.096 288.483 183.393 286.621 183.241 284.569H192.874C192.988 285.671 193.501 286.564 194.413 287.248C195.325 287.932 196.446 288.274 197.776 288.274C198.992 288.274 199.923 288.046 200.569 287.59C201.253 287.096 201.595 286.469 201.595 285.709C201.595 284.797 201.12 284.132 200.17 283.714C199.22 283.258 197.681 282.764 195.553 282.232C193.273 281.7 191.373 281.149 189.853 280.579C188.333 279.971 187.022 279.04 185.92 277.786C184.818 276.494 184.267 274.765 184.267 272.599C184.267 270.775 184.761 269.122 185.749 267.64C186.775 266.12 188.257 264.923 190.195 264.049C192.171 263.175 194.508 262.738 197.206 262.738C201.196 262.738 204.331 263.726 206.611 265.702C208.929 267.678 210.259 270.3 210.601 273.568H201.595C201.443 272.466 200.949 271.592 200.113 270.946C199.315 270.3 198.251 269.977 196.921 269.977C195.781 269.977 194.907 270.205 194.299 270.661C193.691 271.079 193.387 271.668 193.387 272.428C193.387 273.34 193.862 274.024 194.812 274.48C195.8 274.936 197.32 275.392 199.372 275.848C201.728 276.456 203.647 277.064 205.129 277.672C206.611 278.242 207.903 279.192 209.005 280.522C210.145 281.814 210.734 283.562 210.772 285.766C210.772 287.628 210.24 289.3 209.176 290.782C208.15 292.226 206.649 293.366 204.673 294.202C202.735 295.038 200.474 295.456 197.89 295.456ZM238.452 240.85L223.176 305.659H213.771L229.047 240.85H238.452ZM271.348 254.986V262.795H260.746V295H250.999V262.795H240.397V254.986H271.348ZM306.222 278.584C306.222 279.496 306.165 280.446 306.051 281.434H283.992C284.144 283.41 284.771 284.93 285.873 285.994C287.013 287.02 288.4 287.533 290.034 287.533C292.466 287.533 294.157 286.507 295.107 284.455H305.481C304.949 286.545 303.98 288.426 302.574 290.098C301.206 291.77 299.477 293.081 297.387 294.031C295.297 294.981 292.96 295.456 290.376 295.456C287.26 295.456 284.486 294.791 282.054 293.461C279.622 292.131 277.722 290.231 276.354 287.761C274.986 285.291 274.302 282.403 274.302 279.097C274.302 275.791 274.967 272.903 276.297 270.433C277.665 267.963 279.565 266.063 281.997 264.733C284.429 263.403 287.222 262.738 290.376 262.738C293.454 262.738 296.19 263.384 298.584 264.676C300.978 265.968 302.84 267.811 304.17 270.205C305.538 272.599 306.222 275.392 306.222 278.584ZM296.247 276.019C296.247 274.347 295.677 273.017 294.537 272.029C293.397 271.041 291.972 270.547 290.262 270.547C288.628 270.547 287.241 271.022 286.101 271.972C284.999 272.922 284.315 274.271 284.049 276.019H296.247ZM324.303 295.456C321.529 295.456 319.059 294.981 316.893 294.031C314.727 293.081 313.017 291.789 311.763 290.155C310.509 288.483 309.806 286.621 309.654 284.569H319.287C319.401 285.671 319.914 286.564 320.826 287.248C321.738 287.932 322.859 288.274 324.189 288.274C325.405 288.274 326.336 288.046 326.982 287.59C327.666 287.096 328.008 286.469 328.008 285.709C328.008 284.797 327.533 284.132 326.583 283.714C325.633 283.258 324.094 282.764 321.966 282.232C319.686 281.7 317.786 281.149 316.266 280.579C314.746 279.971 313.435 279.04 312.333 277.786C311.231 276.494 310.68 274.765 310.68 272.599C310.68 270.775 311.174 269.122 312.162 267.64C313.188 266.12 314.67 264.923 316.608 264.049C318.584 263.175 320.921 262.738 323.619 262.738C327.609 262.738 330.744 263.726 333.024 265.702C335.342 267.678 336.672 270.3 337.014 273.568H328.008C327.856 272.466 327.362 271.592 326.526 270.946C325.728 270.3 324.664 269.977 323.334 269.977C322.194 269.977 321.32 270.205 320.712 270.661C320.104 271.079 319.8 271.668 319.8 272.428C319.8 273.34 320.275 274.024 321.225 274.48C322.213 274.936 323.733 275.392 325.785 275.848C328.141 276.456 330.06 277.064 331.542 277.672C333.024 278.242 334.316 279.192 335.418 280.522C336.558 281.814 337.147 283.562 337.185 285.766C337.185 287.628 336.653 289.3 335.589 290.782C334.563 292.226 333.062 293.366 331.086 294.202C329.148 295.038 326.887 295.456 324.303 295.456ZM360.875 286.735V295H355.916C352.382 295 349.627 294.145 347.651 292.435C345.675 290.687 344.687 287.856 344.687 283.942V271.288H340.811V263.194H344.687V255.442H354.434V263.194H360.818V271.288H354.434V284.056C354.434 285.006 354.662 285.69 355.118 286.108C355.574 286.526 356.334 286.735 357.398 286.735H360.875ZM379.244 295.456C376.47 295.456 374 294.981 371.834 294.031C369.668 293.081 367.958 291.789 366.704 290.155C365.45 288.483 364.747 286.621 364.595 284.569H374.228C374.342 285.671 374.855 286.564 375.767 287.248C376.679 287.932 377.8 288.274 379.13 288.274C380.346 288.274 381.277 288.046 381.923 287.59C382.607 287.096 382.949 286.469 382.949 285.709C382.949 284.797 382.474 284.132 381.524 283.714C380.574 283.258 379.035 282.764 376.907 282.232C374.627 281.7 372.727 281.149 371.207 280.579C369.687 279.971 368.376 279.04 367.274 277.786C366.172 276.494 365.621 274.765 365.621 272.599C365.621 270.775 366.115 269.122 367.103 267.64C368.129 266.12 369.611 264.923 371.549 264.049C373.525 263.175 375.862 262.738 378.56 262.738C382.55 262.738 385.685 263.726 387.965 265.702C390.283 267.678 391.613 270.3 391.955 273.568H382.949C382.797 272.466 382.303 271.592 381.467 270.946C380.669 270.3 379.605 269.977 378.275 269.977C377.135 269.977 376.261 270.205 375.653 270.661C375.045 271.079 374.741 271.668 374.741 272.428C374.741 273.34 375.216 274.024 376.166 274.48C377.154 274.936 378.674 275.392 380.726 275.848C383.082 276.456 385.001 277.064 386.483 277.672C387.965 278.242 389.257 279.192 390.359 280.522C391.499 281.814 392.088 283.562 392.126 285.766C392.126 287.628 391.594 289.3 390.53 290.782C389.504 292.226 388.003 293.366 386.027 294.202C384.089 295.038 381.828 295.456 379.244 295.456Z" fill="#FF8B36"/>
<g clip-path="url(#clip0_40_5063)">
<path d="M523.108 234.402H476.262" stroke="#4C4C4C" stroke-width="2.471" stroke-miterlimit="10" stroke-linecap="round" stroke-linejoin="round"/>
<path d="M453.723 254.354C466.171 254.354 476.262 244.265 476.262 231.82C476.262 219.375 466.171 209.287 453.723 209.287C441.276 209.287 431.185 219.375 431.185 231.82C431.185 244.265 441.276 254.354 453.723 254.354Z" stroke="#4C4C4C" stroke-width="2.6906" stroke-miterlimit="10" stroke-linecap="round" stroke-linejoin="round"/>
<path d="M655.171 226.541H713.481" stroke="#4C4C4C" stroke-width="2.6906" stroke-miterlimit="10" stroke-linecap="round" stroke-linejoin="round"/>
<path d="M735.276 246.969C747.724 246.969 757.815 236.88 757.815 224.435C757.815 211.99 747.724 201.902 735.276 201.902C722.829 201.902 712.738 211.99 712.738 224.435C712.738 236.88 722.829 246.969 735.276 246.969Z" stroke="#4C4C4C" stroke-width="2.6906" stroke-miterlimit="10" stroke-linecap="round" stroke-linejoin="round"/>
<path d="M750.083 214.61C750.083 217.44 743.732 219.74 735.904 219.74C728.076 219.74 721.725 217.44 721.725 214.61C721.725 211.78 728.076 209.481 735.904 209.481C743.732 209.481 750.083 211.78 750.083 214.61Z" fill="#FF8401"/>
<path opacity="0.7" d="M749.066 219.589C746.979 221.482 741.875 222.817 735.904 222.817C729.924 222.817 724.829 221.482 722.742 219.589C722.096 220.173 721.725 220.819 721.725 221.491C721.725 224.33 728.076 226.62 735.904 226.62C743.732 226.62 750.083 224.321 750.083 221.491C750.083 220.819 749.721 220.173 749.066 219.589Z" fill="#FF8401"/>
<path opacity="0.5" d="M749.066 226.62C746.979 228.513 741.875 229.857 735.904 229.857C729.924 229.857 724.829 228.513 722.742 226.62C722.096 227.204 721.725 227.849 721.725 228.521C721.725 231.36 728.076 233.651 735.904 233.651C743.732 233.651 750.083 231.351 750.083 228.521C750.083 227.841 749.721 227.204 749.066 226.62Z" fill="#FF8401"/>
<path opacity="0.2" d="M749.066 233.651C746.979 235.543 741.875 236.888 735.904 236.888C729.924 236.888 724.829 235.552 722.742 233.651C722.096 234.235 721.725 234.88 721.725 235.552C721.725 238.391 728.076 240.682 735.904 240.682C743.732 240.682 750.083 238.382 750.083 235.552C750.083 234.871 749.721 234.235 749.066 233.651Z" fill="#FF8401"/>
<path d="M648.183 260.765V336.688" stroke="#4C4C4C" stroke-width="2.6906" stroke-miterlimit="10" stroke-linecap="round" stroke-linejoin="round"/>
<path d="M671.022 349.281C671.022 361.724 660.929 371.815 648.484 371.815C636.038 371.815 625.945 361.724 625.945 349.281C625.945 336.838 636.038 326.748 648.484 326.748C660.929 326.748 671.022 336.838 671.022 349.281Z" stroke="#4C4C4C" stroke-width="2.6906" stroke-miterlimit="10" stroke-linecap="round" stroke-linejoin="round"/>
<path d="M659.514 352.881C659.674 352.377 659.797 351.873 659.895 351.368L663.972 350.511L662.159 341.906L658.081 342.764C657.498 341.906 656.799 341.127 656.003 340.447L657.294 336.493L648.935 333.761L647.644 337.714C646.6 337.793 645.574 338.015 644.601 338.359L641.814 335.255L635.269 341.128L638.055 344.232C637.834 344.691 637.631 345.178 637.471 345.673C637.312 346.177 637.188 346.681 637.091 347.185L633.013 348.043L634.827 356.648L638.904 355.79C639.488 356.648 640.178 357.426 640.983 358.107L639.692 362.06L648.051 364.793L649.342 360.84C650.386 360.76 651.412 360.539 652.385 360.194L655.171 363.298L661.726 357.426L658.939 354.322C659.152 353.871 659.346 353.385 659.514 352.881Z" fill="#003F82"/>
<path d="M656.701 351.97C655.215 356.507 650.333 358.983 645.795 357.506C641.257 356.02 638.78 351.139 640.266 346.593C641.752 342.056 646.635 339.58 651.173 341.066C655.711 342.542 658.187 347.424 656.701 351.97Z" fill="#FF8401"/>
<path d="M652.332 350.537C651.642 352.66 649.351 353.818 647.228 353.129C645.105 352.439 643.946 350.148 644.636 348.026C645.326 345.903 647.617 344.745 649.74 345.435C651.863 346.124 653.022 348.415 652.332 350.537Z" fill="#FF8401"/>
<path d="M562.913 203.892V105.719H594.756" stroke="#4C4C4C" stroke-width="2.6906" stroke-miterlimit="10" stroke-linecap="round" stroke-linejoin="round"/>
<path d="M627.325 105.719C627.325 118.162 617.233 128.252 604.787 128.252C592.341 128.252 582.249 118.162 582.249 105.719C582.249 93.2756 592.341 83.1938 604.787 83.1938C617.233 83.1938 627.325 93.2756 627.325 105.719Z" stroke="#4C4C4C" stroke-width="2.6906" stroke-miterlimit="10" stroke-linecap="round" stroke-linejoin="round"/>
<path d="M616.463 99.9437C615.818 94.8232 611.457 90.8701 606.158 90.8701C600.789 90.8701 596.375 94.9293 595.827 100.147C591.997 101.058 589.148 104.489 589.148 108.593C589.148 113.395 593.04 117.277 597.835 117.277C599.728 117.277 601.479 116.667 602.912 115.632C604.345 116.667 606.088 117.277 607.989 117.277C609.369 117.277 610.67 116.95 611.828 116.375C612.987 116.95 614.287 117.277 615.667 117.277C620.47 117.277 624.354 113.386 624.354 108.593C624.362 104.065 620.886 100.351 616.463 99.9437Z" fill="#FF8401"/>
<path d="M611.828 116.375C612.987 116.95 614.287 117.277 615.667 117.277C620.47 117.277 624.353 113.386 624.353 108.593C624.353 104.065 620.886 100.351 616.454 99.9438C616.269 98.4846 615.773 97.1227 615.048 95.9111L594.385 116.57C595.437 117.021 596.605 117.277 597.826 117.277C599.719 117.277 601.47 116.667 602.903 115.632C604.336 116.667 606.079 117.277 607.98 117.277C609.369 117.277 610.669 116.95 611.828 116.375Z" fill="#003F82"/>
<path d="M458.588 221.624L442.852 233.465L459.411 245.731" stroke="#3D3544" stroke-width="2.018" stroke-miterlimit="10" stroke-linecap="round" stroke-linejoin="round"/>
<path d="M462.693 221.623C462.693 223.887 460.853 225.727 458.589 225.727C456.324 225.727 454.484 223.887 454.484 221.623C454.484 219.359 456.324 217.52 458.589 217.52C460.853 217.52 462.693 219.359 462.693 221.623Z" fill="#FF8401"/>
<path d="M446.957 233.465C446.957 235.729 445.117 237.568 442.852 237.568C440.588 237.568 438.748 235.729 438.748 233.465C438.748 231.201 440.588 229.361 442.852 229.361C445.117 229.361 446.957 231.201 446.957 233.465Z" fill="#FF8401"/>
<path d="M462.693 245.731C462.693 247.995 460.853 249.835 458.589 249.835C456.324 249.835 454.484 247.995 454.484 245.731C454.484 243.467 456.324 241.628 458.589 241.628C460.853 241.628 462.693 243.467 462.693 245.731Z" fill="#FF8401"/>
<path d="M536.968 199.576V128.978H486.903" stroke="#4C4C4C" stroke-width="2.6906" stroke-miterlimit="10" stroke-linecap="round" stroke-linejoin="round"/>
<path d="M496.43 128.977C496.43 141.42 486.337 151.511 473.891 151.511C461.446 151.511 451.353 141.42 451.353 128.977C451.353 116.534 461.446 106.444 473.891 106.444C486.346 106.453 496.43 116.534 496.43 128.977Z" stroke="#4C4C4C" stroke-width="2.6906" stroke-miterlimit="10" stroke-linecap="round" stroke-linejoin="round"/>
<path d="M490.034 122.106H458.235V134.885H490.034V122.106Z" fill="#003F82"/>
<path d="M490.034 122.106H458.235V128.252H490.034V122.106Z" fill="#FF8401"/>
<path d="M462.499 123.707H460.358V125.847H462.499V123.707Z" fill="white"/>
<path d="M466.842 123.707H464.701V125.847H466.842V123.707Z" fill="#003F82"/>
<path d="M664.45 208.473V138.635" stroke="#4C4C4C" stroke-width="2.6906" stroke-miterlimit="10" stroke-linecap="round" stroke-linejoin="round"/>
<path d="M700.239 128.252C700.239 140.695 690.146 150.786 677.7 150.786C665.255 150.786 655.162 140.695 655.162 128.252C655.162 115.809 665.255 105.719 677.7 105.719C690.146 105.719 700.239 115.809 700.239 128.252Z" stroke="#4C4C4C" stroke-width="2.6906" stroke-miterlimit="10" stroke-linecap="round" stroke-linejoin="round"/>
<path d="M677.701 141.058C684.775 141.058 690.509 135.325 690.509 128.252C690.509 121.18 684.775 115.447 677.701 115.447C670.627 115.447 664.893 121.18 664.893 128.252C664.893 135.325 670.627 141.058 677.701 141.058Z" fill="#003F82"/>
<path d="M677.701 133.355C680.52 133.355 682.805 131.07 682.805 128.252C682.805 125.434 680.52 123.149 677.701 123.149C674.882 123.149 672.597 125.434 672.597 128.252C672.597 131.07 674.882 133.355 677.701 133.355Z" fill="#FF8401"/>
<path d="M530.998 260.261V338.731H487.929" stroke="#4C4C4C" stroke-width="2.6906" stroke-miterlimit="10" stroke-linecap="round" stroke-linejoin="round"/>
<path d="M497.217 338.731C497.217 351.174 487.124 361.264 474.678 361.264C462.233 361.264 452.14 351.174 452.14 338.731C452.14 326.288 462.224 316.197 474.678 316.197C487.124 316.206 497.217 326.288 497.217 338.731Z" stroke="#4C4C4C" stroke-width="2.6906" stroke-miterlimit="10" stroke-linecap="round" stroke-linejoin="round"/>
<path d="M488.77 338.731C488.77 346.513 482.463 352.819 474.679 352.819C466.895 352.819 460.588 346.513 460.588 338.731C460.588 330.949 466.895 324.643 474.679 324.643C482.463 324.652 488.77 330.957 488.77 338.731Z" fill="#FF8401"/>
<path d="M492.396 340.65H478.473L475.289 345.558L472.989 337.484L469.124 344.824L466.691 332.814L463.896 339.182H457.182" stroke="#3D3544" stroke-width="1.3453" stroke-miterlimit="10" stroke-linecap="round" stroke-linejoin="round"/>
<path d="M482.604 340.906C482.604 342.321 481.454 343.462 480.039 343.462C478.623 343.462 477.482 342.313 477.482 340.906C477.482 339.5 478.632 338.342 480.039 338.342C481.454 338.351 482.604 339.491 482.604 340.906Z" fill="white"/>
<path d="M599.33 215.849V143.702H629.095" stroke="#4C4C4C" stroke-width="2.6906" stroke-miterlimit="10" stroke-linecap="round" stroke-linejoin="round"/>
<path d="M638.55 143.287C638.55 145.86 636.463 147.947 633.889 147.947C631.315 147.947 629.227 145.86 629.227 143.287C629.227 140.713 631.315 138.635 633.889 138.635C636.463 138.635 638.55 140.713 638.55 143.287Z" stroke="#3D3544" stroke-width="2.6906" stroke-miterlimit="10"/>
<path d="M523.152 192.245H485.143" stroke="#4C4C4C" stroke-width="2.6906" stroke-miterlimit="10" stroke-linecap="round" stroke-linejoin="round"/>
<path d="M484.701 192.245C484.701 194.818 482.613 196.905 480.039 196.905C477.465 196.905 475.377 194.818 475.377 192.245C475.377 189.671 477.465 187.593 480.039 187.593C482.613 187.584 484.701 189.671 484.701 192.245Z" stroke="#3D3544" stroke-width="1.3453" stroke-miterlimit="10"/>
<path d="M692.243 203.768V165.776" stroke="#4C4C4C" stroke-width="2.6906" stroke-miterlimit="10" stroke-linecap="round" stroke-linejoin="round"/>
<path d="M696.895 160.134C696.895 162.707 694.808 164.785 692.234 164.785C689.66 164.785 687.572 162.698 687.572 160.134C687.572 157.56 689.66 155.473 692.234 155.473C694.817 155.482 696.895 157.56 696.895 160.134Z" stroke="#3D3544" stroke-width="1.3453" stroke-miterlimit="10"/>
<path d="M712.915 297.582H674.915" stroke="#4C4C4C" stroke-width="2.6906" stroke-miterlimit="10" stroke-linecap="round" stroke-linejoin="round"/>
<path d="M723.901 297.573C723.901 300.146 721.813 302.233 719.239 302.233C716.665 302.233 714.578 300.146 714.578 297.573C714.578 294.999 716.665 292.921 719.239 292.921C721.813 292.921 723.901 295.008 723.901 297.573Z" stroke="#3D3544" stroke-width="2.6906" stroke-miterlimit="10"/>
<path d="M607.388 335.202V297.201" stroke="#4C4C4C" stroke-width="2.6906" stroke-miterlimit="10" stroke-linecap="round" stroke-linejoin="round"/>
<path d="M612.376 339.854C612.376 342.427 610.289 344.514 607.715 344.514C605.141 344.514 603.053 342.427 603.053 339.854C603.053 337.28 605.141 335.202 607.715 335.202C610.289 335.202 612.376 337.28 612.376 339.854Z" stroke="#3D3544" stroke-width="2.6906" stroke-miterlimit="10"/>
<path d="M551.44 339.182V301.189" stroke="#4C4C4C" stroke-width="2.6906" stroke-miterlimit="10" stroke-linecap="round" stroke-linejoin="round"/>
<path d="M556.093 343.392C556.093 345.965 554.005 348.052 551.431 348.052C548.857 348.052 546.77 345.965 546.77 343.392C546.77 340.818 548.857 338.74 551.431 338.74C554.005 338.731 556.093 340.818 556.093 343.392Z" stroke="#3D3544" stroke-width="2.6906" stroke-miterlimit="10"/>
<path d="M667.475 271.024H729.544" stroke="#4C4C4C" stroke-width="2.6906" stroke-miterlimit="10" stroke-linecap="round" stroke-linejoin="round"/>
<path d="M737.983 271.024C737.983 273.261 736.17 275.074 733.932 275.074C731.694 275.074 729.88 273.261 729.88 271.024C729.88 268.787 731.694 266.974 733.932 266.974C736.17 266.974 737.983 268.787 737.983 271.024Z" stroke="#3D3544" stroke-width="2.6906" stroke-miterlimit="10"/>
<path d="M571.033 259.297V358.169H603.664" stroke="#4C4C4C" stroke-width="2.6906" stroke-miterlimit="10" stroke-linecap="round" stroke-linejoin="round"/>
<path d="M607.715 361.981C609.952 361.981 611.766 360.167 611.766 357.93C611.766 355.693 609.952 353.88 607.715 353.88C605.477 353.88 603.664 355.693 603.664 357.93C603.664 360.167 605.477 361.981 607.715 361.981Z" stroke="#3D3544" stroke-width="1.3453" stroke-miterlimit="10"/>
<path d="M518.048 279.354H480.039" stroke="#4C4C4C" stroke-width="2.6906" stroke-miterlimit="10" stroke-linecap="round" stroke-linejoin="round"/>
<path d="M480.039 279.77C480.039 282.344 477.951 284.422 475.377 284.422C472.803 284.422 470.716 282.335 470.716 279.77C470.716 277.197 472.803 275.11 475.377 275.11C477.951 275.119 480.039 277.197 480.039 279.77Z" stroke="#3D3544" stroke-width="2.6906" stroke-miterlimit="10"/>
<path d="M701.964 169.49H501.861V188.946H701.964V169.49Z" fill="#4F4F4F"/>
<path d="M701.964 188.938H501.861V313.659H701.964V188.938Z" fill="#F0F1F1"/>
<path d="M513.44 177.122H509.265V181.296H513.44V177.122Z" fill="#FF8401"/>
<path d="M522.223 177.122H518.048V181.296H522.223V177.122Z" fill="#003F82"/>
<path d="M530.998 177.122H526.823V181.296H530.998V177.122Z" fill="#003F82"/>
<path d="M664.256 245.518C663.681 242.839 662.646 240.336 661.222 238.081C660.045 236.047 658.621 234.437 657.109 233.182C657.259 231.422 657.153 229.679 656.79 227.981C655.198 220.473 648.865 214.76 641.266 213.885C638.285 207.721 632.023 203.768 625.132 203.768C623.885 203.768 622.629 203.9 621.399 204.166C615.429 205.43 610.581 209.578 608.388 215.291C604.885 218.315 602.638 222.242 601.904 226.345C601.17 222.242 598.914 218.315 595.42 215.291C593.218 209.587 588.379 205.439 582.408 204.166C581.179 203.9 579.923 203.768 578.667 203.768C571.785 203.768 565.522 207.712 562.532 213.885C554.943 214.751 548.61 220.464 547.017 227.981C546.655 229.679 546.549 231.422 546.699 233.182C545.178 234.446 543.762 236.047 542.577 238.09C541.153 240.345 540.127 242.839 539.552 245.518C538.145 252.151 539.729 258.978 543.904 264.32C543.789 271.112 546.796 277.736 552.006 282.14C555.182 288.162 560.808 292.425 567.477 293.84C569.043 294.167 570.644 294.344 572.227 294.344C576.181 294.344 580.073 293.301 583.532 291.337C584.867 292.257 586.389 292.92 587.99 293.256C590.555 293.796 593.147 293.584 595.455 292.637C596.543 292.186 597.773 291.364 598.852 290.382C600.232 289.118 601.302 287.402 601.913 285.554C602.514 287.402 603.584 289.118 604.964 290.382C606.035 291.364 607.273 292.186 608.361 292.637C610.67 293.592 613.253 293.805 615.827 293.256C617.428 292.92 618.949 292.257 620.285 291.337C623.735 293.309 627.627 294.344 631.589 294.344C633.173 294.344 634.774 294.176 636.339 293.84C643 292.425 648.626 288.171 651.81 282.14C657.02 277.736 660.028 271.121 659.913 264.32C664.079 258.978 665.662 252.151 664.256 245.518ZM609.104 263.047C608.423 264.152 607.423 264.957 606.822 266.159C605.805 268.202 605.053 270.104 604.964 272.421C604.911 274.004 604.796 275.587 604.549 277.152C604.416 278.01 603.62 278.638 603.213 279.443C603.204 279.584 603.178 279.734 603.098 279.885C603.036 280 602.974 280.106 602.912 280.221C602.452 281.07 601.373 280.681 601.178 279.92C600.949 279.876 600.719 279.752 600.55 279.513C599.02 277.329 599.171 274.411 598.834 271.855C598.428 268.786 596.694 265.576 595.066 262.958C594.527 262.091 595.553 261.304 596.296 261.632C598.755 259.987 600.471 257.298 601.205 253.823C602.16 249.321 600.046 244.466 597.286 241.185C597.242 241.203 597.198 241.229 597.145 241.247C595.977 241.663 595.473 239.805 596.632 239.399C597.605 239.054 598.304 237.179 598.834 236.365C599.781 234.924 600.931 233.65 601.444 231.97C601.515 231.731 601.656 231.581 601.815 231.475C602.09 231.041 602.815 231.041 602.992 231.51C603.266 231.713 603.425 232.05 603.301 232.483C603.239 232.686 603.16 232.89 603.089 233.084C603.496 235.852 605.716 238.32 607.468 240.256C607.645 240.46 607.662 240.681 607.6 240.884C607.662 241.097 607.671 241.344 607.538 241.592C607.008 242.671 606.335 243.617 605.84 244.722C605.424 245.66 604.805 246.58 604.664 247.606C604.628 247.88 604.496 248.083 604.327 248.233C603.806 252.31 604.213 259.509 608.927 261.225C609.812 261.552 609.714 262.71 609.104 263.047Z" fill="#FF8401"/>
<path d="M632.792 295.945C628.696 295.945 624.663 294.866 621.08 292.832C619.701 293.787 618.117 294.468 616.463 294.822C613.801 295.388 611.12 295.167 608.732 294.176C607.609 293.716 606.326 292.867 605.22 291.842C601.567 288.49 599.957 282.149 603.372 278.063C603.469 277.939 603.602 277.807 603.734 277.665C603.885 277.515 604.159 277.232 604.239 277.073C603.814 273.624 603.929 267.46 608.706 262.587C605.707 260.96 603.628 257.962 602.779 253.973C601.762 249.162 604.132 243.944 607.122 240.549C604.371 237.657 602.735 234.844 602.125 231.961C600.78 225.603 603.319 218.775 608.768 214.071C611.041 208.163 616.056 203.865 622.239 202.556C623.513 202.282 624.813 202.149 626.105 202.149C633.234 202.149 639.718 206.235 642.805 212.629C650.669 213.531 657.223 219.439 658.877 227.221C659.249 228.99 659.364 230.812 659.205 232.642C662.991 236.003 665.547 240.398 666.608 245.386C668.059 252.257 666.423 259.324 662.106 264.851C662.221 271.89 659.107 278.744 653.712 283.299C650.421 289.542 644.592 293.946 637.692 295.414C636.082 295.768 634.437 295.945 632.792 295.945ZM621.019 290.329C621.222 290.329 621.434 290.382 621.611 290.497C624.99 292.576 628.856 293.663 632.792 293.663C634.278 293.663 635.773 293.513 637.241 293.195C643.548 291.859 648.864 287.8 651.819 282.061C651.889 281.928 651.987 281.804 652.102 281.707C657.179 277.497 660.063 271.077 659.833 264.515C659.824 264.241 659.912 263.975 660.089 263.754C664.176 258.713 665.741 252.187 664.397 245.864C663.406 241.185 660.947 237.073 657.303 233.987C657.011 233.739 656.861 233.367 656.905 232.987C657.117 231.201 657.038 229.414 656.675 227.699C655.18 220.677 649.147 215.388 641.982 214.84C641.567 214.805 641.195 214.548 641.027 214.168C638.427 208.26 632.58 204.44 626.122 204.44C624.99 204.44 623.84 204.564 622.726 204.794C617.215 205.961 612.757 209.835 610.811 215.15C610.74 215.335 610.625 215.503 610.475 215.627C606.583 218.89 602.938 224.78 604.362 231.493C604.92 234.146 606.653 236.914 609.511 239.726C609.723 239.938 609.847 240.23 609.847 240.531C609.847 240.831 609.723 241.132 609.511 241.344C606.698 244.148 604.079 249.145 605.008 253.504C605.592 256.246 607.122 259.81 611.12 261.172C611.51 261.305 611.802 261.641 611.872 262.047C611.943 262.454 611.793 262.87 611.474 263.135C606.185 267.504 606.087 273.624 606.503 276.887C606.636 277.939 605.875 278.735 605.362 279.257C605.265 279.354 605.176 279.443 605.105 279.531C602.523 282.618 603.867 287.526 606.751 290.17C607.653 291.001 608.723 291.718 609.599 292.08C611.563 292.894 613.774 293.071 615.985 292.602C617.56 292.266 619.055 291.567 620.302 290.586C620.514 290.409 620.762 290.329 621.019 290.329Z" fill="#003F82"/>
<path d="M632.748 259.341C632.261 259.341 631.81 259.023 631.66 258.536C630.094 253.381 627.874 250.48 619.524 247.986C610.262 245.218 605.212 238.329 604.999 238.037C604.628 237.524 604.743 236.816 605.256 236.445C605.769 236.074 606.476 236.189 606.848 236.701C606.892 236.763 611.678 243.263 620.169 245.802C629.413 248.561 632.102 252.169 633.836 257.873C634.013 258.474 633.676 259.111 633.075 259.297C632.969 259.323 632.854 259.341 632.748 259.341Z" fill="#003F82"/>
<path d="M619.338 246.801C617.825 246.801 616.189 246.474 614.491 245.819C613.907 245.598 613.615 244.935 613.836 244.351C614.057 243.768 614.721 243.476 615.304 243.697C618.215 244.82 620.815 244.802 622.62 243.662C624.327 242.583 625.335 240.54 625.548 237.745C625.592 237.117 626.158 236.657 626.768 236.693C627.396 236.746 627.865 237.285 627.821 237.913C627.547 241.46 626.176 244.113 623.84 245.581C622.558 246.394 621.027 246.801 619.338 246.801Z" fill="#003F82"/>
<path d="M663.318 240.938C662.893 240.938 662.478 240.69 662.283 240.283C657.17 229.352 645.388 230.131 644.884 230.166C644.247 230.219 643.708 229.75 643.663 229.122C643.61 228.495 644.079 227.946 644.707 227.902C644.849 227.893 658.55 226.938 664.344 239.319C664.609 239.894 664.362 240.566 663.796 240.831C663.636 240.902 663.477 240.938 663.318 240.938Z" fill="#003F82"/>
<path d="M643.38 285.801C640.134 285.801 636.666 284.767 633.535 281.663C633.084 281.22 633.084 280.495 633.526 280.053C633.968 279.602 634.694 279.602 635.136 280.044C643.168 287.986 653.773 280.062 654.224 279.717C654.72 279.337 655.436 279.425 655.817 279.929C656.197 280.424 656.1 281.141 655.604 281.521C655.516 281.583 649.908 285.801 643.38 285.801Z" fill="#003F82"/>
<path d="M620.382 268.477C620.373 268.477 620.355 268.477 620.346 268.477C619.718 268.459 619.223 267.929 619.25 267.301C619.665 255.141 630.032 252.125 630.13 252.098C630.731 251.93 631.359 252.284 631.536 252.894C631.704 253.496 631.35 254.124 630.749 254.292C630.377 254.398 621.886 256.936 621.532 267.38C621.496 267.982 620.992 268.477 620.382 268.477Z" fill="#003F82"/>
<path d="M604.805 279.354C604.557 279.354 604.309 279.275 604.097 279.107C603.602 278.717 603.522 278.001 603.911 277.506C606.875 273.783 611.421 273.084 613.863 272.996C614.473 272.969 615.021 273.464 615.039 274.092C615.057 274.72 614.57 275.251 613.942 275.268C612.288 275.33 608.175 275.799 605.689 278.921C605.468 279.204 605.141 279.354 604.805 279.354Z" fill="#003F82"/>
<path d="M608.52 217.077C608.192 217.077 607.865 216.936 607.635 216.662C607.237 216.175 607.308 215.459 607.794 215.061C613.084 210.745 620.815 211.011 621.142 211.02C621.77 211.046 622.257 211.577 622.23 212.205C622.204 212.833 621.664 213.319 621.045 213.301C620.974 213.292 613.836 213.071 609.227 216.83C609.033 216.998 608.776 217.077 608.52 217.077Z" fill="#003F82"/>
<path d="M654.03 261.428C654.021 261.428 654.021 261.428 654.012 261.428C653.384 261.42 652.88 260.898 652.889 260.27C653.11 243.803 642.177 240.885 642.071 240.849C641.461 240.699 641.089 240.08 641.239 239.47C641.39 238.859 642.009 238.488 642.619 238.638C642.743 238.674 655.41 242.052 655.162 260.296C655.153 260.924 654.649 261.428 654.03 261.428Z" fill="#003F82"/>
<path d="M634.782 235.552C634.65 235.552 634.508 235.525 634.375 235.481C633.792 235.26 633.491 234.605 633.712 234.013C637.418 224.188 630.961 216.564 630.899 216.485C630.483 216.007 630.536 215.291 631.014 214.875C631.492 214.46 632.208 214.513 632.615 214.99C632.925 215.344 640.019 223.728 635.844 234.809C635.676 235.269 635.242 235.552 634.782 235.552Z" fill="#003F82"/>
<path d="M616.578 287.623C614.42 287.623 612.155 286.898 610.041 284.944C609.581 284.519 609.555 283.794 609.979 283.334C610.404 282.874 611.129 282.848 611.589 283.272C617.206 288.472 623.716 282.308 623.999 282.052C624.451 281.619 625.176 281.627 625.609 282.078C626.043 282.529 626.034 283.246 625.583 283.688C623.778 285.439 620.329 287.623 616.578 287.623Z" fill="#003F82"/>
<path d="M614.163 237.091C613.845 237.091 613.526 236.958 613.296 236.693C611.067 234.102 609.723 231.121 609.316 227.823C609.236 227.203 609.679 226.629 610.307 226.549C610.935 226.478 611.501 226.912 611.58 227.54C611.934 230.378 613.102 232.961 615.03 235.207C615.437 235.685 615.384 236.401 614.906 236.817C614.685 237.002 614.42 237.091 614.163 237.091Z" fill="#003F82"/>
<path d="M633.677 274.579C633.049 274.579 632.544 274.066 632.544 273.438C632.544 272.81 633.057 272.297 633.677 272.297C640.152 272.297 645.424 267.027 645.424 260.553C645.424 257.352 644.159 254.354 641.859 252.125C641.408 251.683 641.39 250.966 641.832 250.515C642.266 250.064 642.991 250.056 643.442 250.489C646.193 253.151 647.697 256.724 647.697 260.553C647.697 268.291 641.408 274.579 633.677 274.579Z" fill="#003F82"/>
<path d="M624.796 212.16C624.796 214.194 623.141 215.848 621.107 215.848C619.073 215.848 617.418 214.194 617.418 212.16C617.418 210.126 619.073 208.473 621.107 208.473C623.141 208.473 624.796 210.126 624.796 212.16Z" fill="#003F82"/>
<path d="M614.128 226.018C614.128 228.052 612.474 229.706 610.44 229.706C608.396 229.706 606.751 228.052 606.751 226.018C606.751 223.984 608.405 222.331 610.44 222.331C612.483 222.331 614.128 223.984 614.128 226.018Z" fill="#003F82"/>
<path d="M630.377 237.365C630.377 239.407 628.723 241.052 626.689 241.052C624.654 241.052 623 239.399 623 237.365C623 235.331 624.654 233.677 626.689 233.677C628.723 233.677 630.377 235.331 630.377 237.365Z" fill="#003F82"/>
<path d="M635.454 215.848C635.454 217.883 633.8 219.536 631.757 219.536C629.722 219.536 628.068 217.883 628.068 215.848C628.068 213.814 629.722 212.161 631.757 212.161C633.8 212.161 635.454 213.814 635.454 215.848Z" fill="#003F82"/>
<path d="M648.484 228.132C648.484 230.166 646.83 231.82 644.796 231.82C642.761 231.82 641.107 230.166 641.107 228.132C641.107 226.098 642.761 224.444 644.796 224.444C646.83 224.444 648.484 226.089 648.484 228.132Z" fill="#003F82"/>
<path d="M657.745 260.765C657.745 262.799 656.091 264.453 654.057 264.453C652.022 264.453 650.368 262.799 650.368 260.765C650.368 258.731 652.022 257.077 654.057 257.077C656.091 257.077 657.745 258.731 657.745 260.765Z" fill="#003F82"/>
<path d="M637.365 272.89C637.365 274.933 635.711 276.578 633.676 276.578C631.642 276.578 629.988 274.924 629.988 272.89C629.988 270.856 631.642 269.202 633.676 269.202C635.711 269.202 637.365 270.856 637.365 272.89Z" fill="#003F82"/>
<path d="M624.486 267.336C624.486 269.379 622.832 271.024 620.797 271.024C618.763 271.024 617.109 269.37 617.109 267.336C617.109 265.302 618.763 263.648 620.797 263.648C622.832 263.648 624.486 265.293 624.486 267.336Z" fill="#003F82"/>
<path d="M618.586 274.137C618.586 276.171 616.932 277.824 614.898 277.824C612.863 277.824 611.209 276.171 611.209 274.137C611.209 272.102 612.863 270.449 614.898 270.449C616.932 270.449 618.586 272.102 618.586 274.137Z" fill="#003F82"/>
<path d="M629.094 281.91C629.094 283.944 627.44 285.598 625.406 285.598C623.363 285.598 621.717 283.944 621.717 281.91C621.717 279.868 623.371 278.223 625.406 278.223C627.449 278.223 629.094 279.868 629.094 281.91Z" fill="#003F82"/>
<path d="M638.559 280.619C638.559 282.653 636.905 284.307 634.871 284.307C632.836 284.307 631.182 282.653 631.182 280.619C631.182 278.576 632.836 276.931 634.871 276.931C636.905 276.931 638.559 278.576 638.559 280.619Z" fill="#003F82"/>
<path d="M566.407 295.423C559.507 293.955 553.678 289.551 550.387 283.307C544.992 278.744 541.878 271.89 541.993 264.86C537.676 259.332 536.031 252.257 537.491 245.395C538.552 240.416 541.1 236.021 544.885 232.651C544.726 230.82 544.832 228.999 545.213 227.23C546.867 219.448 553.421 213.531 561.285 212.638C564.372 206.253 570.856 202.158 577.985 202.158C579.277 202.158 580.577 202.3 581.86 202.565C588.043 203.874 593.058 208.172 595.34 214.079C600.789 218.784 603.337 225.612 601.983 231.97C601.373 234.844 599.736 237.665 596.986 240.557C599.984 243.953 602.355 249.171 601.329 253.982C600.479 257.97 598.41 260.96 595.402 262.596C600.179 267.477 600.285 273.633 599.869 277.082C599.949 277.232 600.223 277.515 600.373 277.674C600.506 277.816 600.639 277.948 600.736 278.072C604.159 282.158 602.54 288.49 598.887 291.85C597.773 292.867 596.499 293.725 595.376 294.185C592.987 295.176 590.307 295.397 587.645 294.831C585.991 294.477 584.407 293.796 583.027 292.841C579.454 294.875 575.42 295.954 571.325 295.954C569.688 295.945 568.025 295.768 566.407 295.423ZM583.806 290.577C585.053 291.559 586.548 292.257 588.122 292.593C590.334 293.062 592.545 292.885 594.509 292.072C595.384 291.709 596.446 290.993 597.348 290.161C600.232 287.517 601.576 282.609 598.993 279.522C598.923 279.434 598.834 279.346 598.737 279.248C598.233 278.726 597.463 277.931 597.596 276.878C598.012 273.615 597.914 267.495 592.625 263.126C592.306 262.861 592.156 262.445 592.227 262.039C592.297 261.632 592.589 261.296 592.978 261.163C596.977 259.801 598.507 256.246 599.091 253.496C600.02 249.136 597.401 244.13 594.588 241.336C594.376 241.123 594.252 240.831 594.252 240.522C594.252 240.221 594.376 239.929 594.588 239.717C597.445 236.914 599.179 234.146 599.736 231.484C601.161 224.771 597.516 218.882 593.624 215.618C593.474 215.494 593.359 215.326 593.288 215.141C591.333 209.826 586.884 205.952 581.373 204.785C580.25 204.546 579.109 204.431 577.976 204.431C571.519 204.431 565.672 208.251 563.072 214.159C562.904 214.539 562.532 214.805 562.116 214.831C554.952 215.388 548.91 220.677 547.424 227.69C547.061 229.414 546.982 231.192 547.194 232.978C547.238 233.359 547.088 233.73 546.796 233.978C543.143 237.064 540.693 241.168 539.702 245.855C538.357 252.187 539.932 258.704 544.01 263.745C544.178 263.958 544.275 264.232 544.266 264.506C544.036 271.068 546.929 277.497 551.997 281.698C552.121 281.795 552.218 281.919 552.28 282.052C555.235 287.791 560.551 291.85 566.858 293.186C568.326 293.495 569.821 293.655 571.307 293.655C575.234 293.655 579.1 292.558 582.479 290.489C582.665 290.374 582.868 290.32 583.08 290.32C583.355 290.329 583.602 290.409 583.806 290.577Z" fill="#003F82"/>
<path d="M571.369 259.341C571.855 259.341 572.306 259.023 572.457 258.536C574.023 253.381 576.243 250.48 584.593 247.986C593.854 245.218 598.905 238.329 599.108 238.037C599.48 237.524 599.356 236.816 598.852 236.445C598.348 236.074 597.631 236.189 597.26 236.701C597.215 236.763 592.43 243.263 583.938 245.802C574.695 248.561 572.006 252.169 570.272 257.873C570.086 258.474 570.431 259.111 571.033 259.297C571.148 259.323 571.263 259.341 571.369 259.341Z" fill="#003F82"/>
<path d="M584.779 246.801C586.291 246.801 587.928 246.473 589.626 245.819C590.21 245.598 590.502 244.935 590.281 244.351C590.06 243.767 589.396 243.475 588.812 243.696C585.902 244.82 583.302 244.802 581.497 243.661C579.79 242.582 578.782 240.539 578.569 237.745C578.525 237.117 577.959 236.657 577.349 236.692C576.721 236.745 576.252 237.285 576.305 237.913C576.579 241.459 577.95 244.112 580.285 245.58C581.559 246.394 583.089 246.801 584.779 246.801Z" fill="#003F82"/>
<path d="M540.799 240.938C541.232 240.938 541.639 240.69 541.834 240.283C546.946 229.352 558.729 230.131 559.233 230.166C559.87 230.219 560.409 229.75 560.453 229.122C560.498 228.495 560.038 227.946 559.41 227.902C559.268 227.893 545.558 226.938 539.773 239.319C539.507 239.894 539.755 240.566 540.321 240.831C540.48 240.902 540.639 240.938 540.799 240.938Z" fill="#003F82"/>
<path d="M560.737 285.801C563.983 285.801 567.45 284.767 570.582 281.663C571.033 281.22 571.033 280.495 570.591 280.053C570.148 279.602 569.423 279.602 568.981 280.044C560.949 287.986 550.343 280.062 549.892 279.717C549.397 279.337 548.68 279.425 548.3 279.929C547.919 280.424 548.017 281.141 548.512 281.521C548.601 281.583 554.209 285.801 560.737 285.801Z" fill="#003F82"/>
<path d="M583.735 268.477C583.744 268.477 583.762 268.477 583.77 268.477C584.398 268.459 584.894 267.929 584.867 267.301C584.452 255.141 574.085 252.125 573.987 252.098C573.386 251.93 572.749 252.284 572.581 252.894C572.413 253.496 572.767 254.124 573.368 254.292C573.74 254.398 582.231 256.936 582.585 267.38C582.621 267.982 583.125 268.477 583.735 268.477Z" fill="#003F82"/>
<path d="M599.312 279.354C599.56 279.354 599.807 279.275 600.02 279.107C600.515 278.717 600.594 278.001 600.205 277.506C597.242 273.783 592.695 273.084 590.254 272.996C589.653 272.969 589.095 273.464 589.078 274.092C589.06 274.72 589.546 275.251 590.174 275.268C591.829 275.33 595.942 275.799 598.427 278.921C598.648 279.204 598.976 279.354 599.312 279.354Z" fill="#003F82"/>
<path d="M595.597 217.077C595.924 217.077 596.251 216.936 596.481 216.662C596.879 216.175 596.809 215.459 596.322 215.061C591.033 210.745 583.302 211.011 582.974 211.02C582.346 211.046 581.86 211.577 581.886 212.205C581.913 212.833 582.452 213.319 583.072 213.301C583.142 213.292 590.281 213.071 594.889 216.83C595.084 216.998 595.34 217.077 595.597 217.077Z" fill="#003F82"/>
<path d="M550.095 261.428C550.104 261.428 550.104 261.428 550.113 261.428C550.741 261.42 551.245 260.898 551.236 260.27C551.015 243.803 561.948 240.885 562.054 240.849C562.665 240.699 563.036 240.08 562.886 239.47C562.736 238.859 562.116 238.488 561.506 238.638C561.382 238.674 548.715 242.052 548.963 260.296C548.963 260.924 549.467 261.428 550.095 261.428Z" fill="#003F82"/>
<path d="M569.334 235.552C569.467 235.552 569.6 235.525 569.732 235.481C570.325 235.26 570.617 234.605 570.396 234.013C566.689 224.188 573.147 216.564 573.209 216.485C573.624 216.007 573.571 215.291 573.094 214.875C572.616 214.46 571.899 214.513 571.484 214.99C571.183 215.344 564.08 223.728 568.255 234.809C568.441 235.269 568.874 235.552 569.334 235.552Z" fill="#003F82"/>
<path d="M587.538 287.623C589.697 287.623 591.961 286.898 594.066 284.944C594.526 284.519 594.553 283.794 594.128 283.334C593.704 282.874 592.978 282.848 592.518 283.272C586.901 288.472 580.391 282.308 580.108 282.052C579.657 281.619 578.932 281.627 578.498 282.078C578.065 282.529 578.074 283.246 578.525 283.688C580.338 285.439 583.788 287.623 587.538 287.623Z" fill="#003F82"/>
<path d="M589.953 237.091C590.272 237.091 590.59 236.958 590.82 236.693C593.049 234.102 594.394 231.121 594.81 227.823C594.889 227.203 594.447 226.629 593.819 226.549C593.191 226.478 592.625 226.912 592.545 227.54C592.191 230.378 591.024 232.961 589.095 235.207C588.688 235.685 588.742 236.401 589.219 236.817C589.431 237.002 589.697 237.091 589.953 237.091Z" fill="#003F82"/>
<path d="M570.44 274.579C571.068 274.579 571.581 274.066 571.581 273.438C571.581 272.81 571.068 272.297 570.44 272.297C563.965 272.297 558.693 267.027 558.693 260.553C558.693 257.352 559.958 254.354 562.258 252.125C562.709 251.683 562.718 250.966 562.285 250.515C561.842 250.064 561.126 250.056 560.675 250.489C557.933 253.151 556.42 256.724 556.42 260.553C556.411 268.291 562.709 274.579 570.44 274.579Z" fill="#003F82"/>
<path d="M579.321 212.16C579.321 214.194 580.975 215.848 583.009 215.848C585.044 215.848 586.698 214.194 586.698 212.16C586.698 210.126 585.044 208.473 583.009 208.473C580.975 208.473 579.321 210.126 579.321 212.16Z" fill="#003F82"/>
<path d="M589.989 226.018C589.989 228.052 591.643 229.706 593.677 229.706C595.712 229.706 597.366 228.052 597.366 226.018C597.366 223.984 595.712 222.331 593.677 222.331C591.643 222.331 589.989 223.984 589.989 226.018Z" fill="#003F82"/>
<path d="M573.739 237.365C573.739 239.407 575.393 241.052 577.428 241.052C579.462 241.052 581.116 239.399 581.116 237.365C581.116 235.331 579.462 233.677 577.428 233.677C575.385 233.677 573.739 235.331 573.739 237.365Z" fill="#003F82"/>
<path d="M568.662 215.848C568.662 217.882 570.316 219.536 572.351 219.536C574.385 219.536 576.039 217.882 576.039 215.848C576.039 213.814 574.385 212.16 572.351 212.16C570.316 212.16 568.662 213.814 568.662 215.848Z" fill="#003F82"/>
<path d="M555.633 228.132C555.633 230.166 557.287 231.82 559.321 231.82C561.356 231.82 563.01 230.166 563.01 228.132C563.01 226.098 561.356 224.444 559.321 224.444C557.287 224.444 555.633 226.089 555.633 228.132Z" fill="#003F82"/>
<path d="M546.372 260.765C546.372 262.799 548.026 264.453 550.06 264.453C552.103 264.453 553.749 262.799 553.749 260.765C553.749 258.731 552.095 257.077 550.06 257.077C548.026 257.077 546.372 258.731 546.372 260.765Z" fill="#003F82"/>
<path d="M566.751 272.889C566.751 274.932 568.406 276.577 570.44 276.577C572.475 276.577 574.129 274.924 574.129 272.889C574.129 270.855 572.475 269.202 570.44 269.202C568.397 269.202 566.751 270.855 566.751 272.889Z" fill="#003F82"/>
<path d="M579.63 267.336C579.63 269.379 581.284 271.024 583.319 271.024C585.362 271.024 587.016 269.37 587.016 267.336C587.016 265.302 585.362 263.648 583.319 263.648C581.284 263.648 579.63 265.293 579.63 267.336Z" fill="#003F82"/>
<path d="M585.531 274.137C585.531 276.171 587.185 277.824 589.219 277.824C591.263 277.824 592.908 276.171 592.908 274.137C592.908 272.102 591.254 270.449 589.219 270.449C587.185 270.449 585.531 272.102 585.531 274.137Z" fill="#003F82"/>
<path d="M575.022 281.91C575.022 283.944 576.676 285.598 578.711 285.598C580.745 285.598 582.399 283.944 582.399 281.91C582.399 279.868 580.745 278.223 578.711 278.223C576.667 278.223 575.022 279.868 575.022 281.91Z" fill="#003F82"/>
<path d="M565.548 280.619C565.548 282.653 567.202 284.307 569.237 284.307C571.271 284.307 572.925 282.653 572.925 280.619C572.925 278.576 571.271 276.931 569.237 276.931C567.202 276.922 565.548 278.576 565.548 280.619Z" fill="#003F82"/>
</g>
<defs>
<filter id="filter0_d_40_5063" x="0" y="0" width="799" height="474" filterUnits="userSpaceOnUse" color-interpolation-filters="sRGB">
<feFlood flood-opacity="0" result="BackgroundImageFix"/>
<feColorMatrix in="SourceAlpha" type="matrix" values="0 0 0 0 0 0 0 0 0 0 0 0 0 0 0 0 0 0 127 0" result="hardAlpha"/>
<feOffset dy="4"/>
<feGaussianBlur stdDeviation="2"/>
<feComposite in2="hardAlpha" operator="out"/>
<feColorMatrix type="matrix" values="0 0 0 0 0 0 0 0 0 0 0 0 0 0 0 0 0 0 0.1 0"/>
<feBlend mode="normal" in2="BackgroundImageFix" result="effect1_dropShadow_40_5063"/>
<feBlend mode="normal" in="SourceGraphic" in2="effect1_dropShadow_40_5063" result="shape"/>
</filter>
<clipPath id="clip0_40_5063">
<rect width="329" height="291" fill="white" transform="translate(430 82)"/>
</clipPath>
</defs>
</svg>
