<svg width="799" height="474" viewBox="0 0 799 474" fill="none" xmlns="http://www.w3.org/2000/svg">
<g filter="url(#filter0_d_40_5270)">
<rect x="4" width="791" height="466" rx="27" fill="#FFF2EA"/>
</g>
<path d="M84.07 217.708H64.354L60.572 228H55.984L71.794 185.22H76.692L92.44 228H87.852L84.07 217.708ZM82.768 214.112L74.212 190.676L65.656 214.112H82.768ZM103.745 184.662V228H99.4053V184.662H103.745ZM150.861 205.618C153.3 206.073 155.366 207.313 157.061 209.338C158.756 211.363 159.603 213.719 159.603 216.406C159.603 218.597 159.045 220.581 157.929 222.358C156.854 224.094 155.263 225.479 153.155 226.512C151.047 227.504 148.526 228 145.591 228H130.587V184.662H145.157C149.538 184.662 152.866 185.675 155.139 187.7C157.454 189.725 158.611 192.35 158.611 195.574C158.611 198.261 157.888 200.451 156.441 202.146C154.994 203.799 153.134 204.957 150.861 205.618ZM134.927 203.82H145.033C147.968 203.82 150.22 203.138 151.791 201.774C153.403 200.369 154.209 198.447 154.209 196.008C154.209 193.611 153.403 191.73 151.791 190.366C150.22 189.002 147.906 188.32 144.847 188.32H134.927V203.82ZM145.281 224.342C148.422 224.342 150.861 223.598 152.597 222.11C154.374 220.622 155.263 218.576 155.263 215.972C155.263 213.368 154.333 211.301 152.473 209.772C150.654 208.201 148.195 207.416 145.095 207.416H134.927V224.342H145.281ZM165.597 211.012C165.597 207.54 166.279 204.502 167.643 201.898C169.048 199.253 170.97 197.227 173.409 195.822C175.889 194.375 178.679 193.652 181.779 193.652C185.003 193.652 187.772 194.396 190.087 195.884C192.443 197.372 194.138 199.273 195.171 201.588V194.148H199.511V228H195.171V220.498C194.096 222.813 192.381 224.735 190.025 226.264C187.71 227.752 184.941 228.496 181.717 228.496C178.658 228.496 175.889 227.773 173.409 226.326C170.97 224.879 169.048 222.833 167.643 220.188C166.279 217.543 165.597 214.484 165.597 211.012ZM195.171 211.074C195.171 208.346 194.613 205.949 193.497 203.882C192.381 201.815 190.852 200.224 188.909 199.108C187.008 197.992 184.9 197.434 182.585 197.434C180.188 197.434 178.038 197.971 176.137 199.046C174.236 200.121 172.727 201.691 171.611 203.758C170.536 205.783 169.999 208.201 169.999 211.012C169.999 213.781 170.536 216.22 171.611 218.328C172.727 220.395 174.236 221.986 176.137 223.102C178.038 224.177 180.188 224.714 182.585 224.714C184.9 224.714 187.008 224.156 188.909 223.04C190.852 221.924 192.381 220.333 193.497 218.266C194.613 216.199 195.171 213.802 195.171 211.074ZM221.075 228.496C217.19 228.496 214.007 227.607 211.527 225.83C209.088 224.011 207.724 221.552 207.435 218.452H211.899C212.106 220.353 212.994 221.903 214.565 223.102C216.177 224.259 218.326 224.838 221.013 224.838C223.369 224.838 225.208 224.28 226.531 223.164C227.895 222.048 228.577 220.663 228.577 219.01C228.577 217.853 228.205 216.902 227.461 216.158C226.717 215.414 225.766 214.835 224.609 214.422C223.493 213.967 221.964 213.492 220.021 212.996C217.5 212.335 215.454 211.673 213.883 211.012C212.312 210.351 210.969 209.379 209.853 208.098C208.778 206.775 208.241 205.019 208.241 202.828C208.241 201.175 208.737 199.645 209.729 198.24C210.721 196.835 212.126 195.719 213.945 194.892C215.764 194.065 217.83 193.652 220.145 193.652C223.782 193.652 226.717 194.582 228.949 196.442C231.181 198.261 232.38 200.782 232.545 204.006H228.205C228.081 202.022 227.296 200.431 225.849 199.232C224.444 197.992 222.501 197.372 220.021 197.372C217.83 197.372 216.053 197.889 214.689 198.922C213.325 199.955 212.643 201.237 212.643 202.766C212.643 204.089 213.036 205.184 213.821 206.052C214.648 206.879 215.66 207.54 216.859 208.036C218.058 208.491 219.67 209.007 221.695 209.586C224.134 210.247 226.076 210.888 227.523 211.508C228.97 212.128 230.21 213.037 231.243 214.236C232.276 215.435 232.814 217.026 232.855 219.01C232.855 220.829 232.359 222.461 231.367 223.908C230.375 225.313 228.99 226.429 227.213 227.256C225.436 228.083 223.39 228.496 221.075 228.496ZM271.652 209.338C271.652 210.826 271.611 211.963 271.528 212.748H243.442C243.566 215.311 244.186 217.501 245.302 219.32C246.418 221.139 247.886 222.523 249.704 223.474C251.523 224.383 253.507 224.838 255.656 224.838C258.467 224.838 260.823 224.156 262.724 222.792C264.667 221.428 265.948 219.589 266.568 217.274H271.156C270.33 220.581 268.552 223.288 265.824 225.396C263.138 227.463 259.748 228.496 255.656 228.496C252.474 228.496 249.622 227.793 247.1 226.388C244.579 224.941 242.595 222.916 241.148 220.312C239.743 217.667 239.04 214.587 239.04 211.074C239.04 207.561 239.743 204.481 241.148 201.836C242.554 199.191 244.517 197.165 247.038 195.76C249.56 194.355 252.432 193.652 255.656 193.652C258.88 193.652 261.691 194.355 264.088 195.76C266.527 197.165 268.387 199.067 269.668 201.464C270.991 203.82 271.652 206.445 271.652 209.338ZM267.25 209.214C267.292 206.693 266.775 204.543 265.7 202.766C264.667 200.989 263.241 199.645 261.422 198.736C259.604 197.827 257.62 197.372 255.47 197.372C252.246 197.372 249.498 198.405 247.224 200.472C244.951 202.539 243.69 205.453 243.442 209.214H267.25ZM277.609 211.012C277.609 207.54 278.311 204.502 279.717 201.898C281.122 199.253 283.044 197.227 285.483 195.822C287.963 194.375 290.753 193.652 293.853 193.652C296.829 193.652 299.515 194.375 301.913 195.822C304.31 197.269 306.067 199.149 307.183 201.464V182.12H311.523V228H307.183V220.436C306.149 222.792 304.455 224.735 302.099 226.264C299.743 227.752 296.973 228.496 293.791 228.496C290.691 228.496 287.901 227.773 285.421 226.326C282.982 224.879 281.06 222.833 279.655 220.188C278.291 217.543 277.609 214.484 277.609 211.012ZM307.183 211.074C307.183 208.346 306.625 205.949 305.509 203.882C304.393 201.815 302.863 200.224 300.921 199.108C299.019 197.992 296.911 197.434 294.597 197.434C292.199 197.434 290.05 197.971 288.149 199.046C286.247 200.121 284.739 201.691 283.623 203.758C282.548 205.783 282.011 208.201 282.011 211.012C282.011 213.781 282.548 216.22 283.623 218.328C284.739 220.395 286.247 221.986 288.149 223.102C290.05 224.177 292.199 224.714 294.597 224.714C296.911 224.714 299.019 224.156 300.921 223.04C302.863 221.924 304.393 220.333 305.509 218.266C306.625 216.199 307.183 213.802 307.183 211.074Z" fill="#303030"/>
<path d="M79.344 256.96C78.736 255.84 77.856 254.992 76.704 254.416C75.584 253.808 74.256 253.504 72.72 253.504C70.064 253.504 67.936 254.384 66.336 256.144C64.736 257.872 63.936 260.192 63.936 263.104C63.936 266.208 64.768 268.64 66.432 270.4C68.128 272.128 70.448 272.992 73.392 272.992C75.408 272.992 77.104 272.48 78.48 271.456C79.888 270.432 80.912 268.96 81.552 267.04H71.136V260.992H88.992V268.624C88.384 270.672 87.344 272.576 85.872 274.336C84.432 276.096 82.592 277.52 80.352 278.608C78.112 279.696 75.584 280.24 72.768 280.24C69.44 280.24 66.464 279.52 63.84 278.08C61.248 276.608 59.216 274.576 57.744 271.984C56.304 269.392 55.584 266.432 55.584 263.104C55.584 259.776 56.304 256.816 57.744 254.224C59.216 251.6 61.248 249.568 63.84 248.128C66.432 246.656 69.392 245.92 72.72 245.92C76.752 245.92 80.144 246.896 82.896 248.848C85.68 250.8 87.52 253.504 88.416 256.96H79.344ZM91.9065 266.56C91.9065 263.808 92.4185 261.392 93.4425 259.312C94.4985 257.232 95.9225 255.632 97.7145 254.512C99.5065 253.392 101.507 252.832 103.715 252.832C105.603 252.832 107.251 253.216 108.659 253.984C110.099 254.752 111.203 255.76 111.971 257.008V253.216H120.179V280H111.971V276.208C111.171 277.456 110.051 278.464 108.611 279.232C107.203 280 105.555 280.384 103.667 280.384C101.491 280.384 99.5065 279.824 97.7145 278.704C95.9225 277.552 94.4985 275.936 93.4425 273.856C92.4185 271.744 91.9065 269.312 91.9065 266.56ZM111.971 266.608C111.971 264.56 111.395 262.944 110.243 261.76C109.123 260.576 107.747 259.984 106.115 259.984C104.483 259.984 103.091 260.576 101.939 261.76C100.819 262.912 100.259 264.512 100.259 266.56C100.259 268.608 100.819 270.24 101.939 271.456C103.091 272.64 104.483 273.232 106.115 273.232C107.747 273.232 109.123 272.64 110.243 271.456C111.395 270.272 111.971 268.656 111.971 266.608ZM160.293 252.928C163.621 252.928 166.261 253.936 168.213 255.952C170.197 257.968 171.189 260.768 171.189 264.352V280H163.029V265.456C163.029 263.728 162.565 262.4 161.637 261.472C160.741 260.512 159.493 260.032 157.893 260.032C156.293 260.032 155.029 260.512 154.101 261.472C153.205 262.4 152.757 263.728 152.757 265.456V280H144.597V265.456C144.597 263.728 144.133 262.4 143.205 261.472C142.309 260.512 141.061 260.032 139.461 260.032C137.861 260.032 136.597 260.512 135.669 261.472C134.773 262.4 134.325 263.728 134.325 265.456V280H126.117V253.216H134.325V256.576C135.157 255.456 136.245 254.576 137.589 253.936C138.933 253.264 140.453 252.928 142.149 252.928C144.165 252.928 145.957 253.36 147.525 254.224C149.125 255.088 150.373 256.32 151.269 257.92C152.197 256.448 153.461 255.248 155.061 254.32C156.661 253.392 158.405 252.928 160.293 252.928ZM181.057 250.432C179.617 250.432 178.433 250.016 177.505 249.184C176.609 248.32 176.161 247.264 176.161 246.016C176.161 244.736 176.609 243.68 177.505 242.848C178.433 241.984 179.617 241.552 181.057 241.552C182.465 241.552 183.617 241.984 184.513 242.848C185.441 243.68 185.905 244.736 185.905 246.016C185.905 247.264 185.441 248.32 184.513 249.184C183.617 250.016 182.465 250.432 181.057 250.432ZM185.137 253.216V280H176.929V253.216H185.137ZM204.525 260.032H200.109V280H191.901V260.032H188.925V253.216H191.901V252.448C191.901 249.152 192.845 246.656 194.733 244.96C196.621 243.232 199.389 242.368 203.037 242.368C203.645 242.368 204.093 242.384 204.381 242.416V249.376C202.813 249.28 201.709 249.504 201.069 250.048C200.429 250.592 200.109 251.568 200.109 252.976V253.216H204.525V260.032ZM212.51 250.432C211.07 250.432 209.886 250.016 208.958 249.184C208.062 248.32 207.614 247.264 207.614 246.016C207.614 244.736 208.062 243.68 208.958 242.848C209.886 241.984 211.07 241.552 212.51 241.552C213.918 241.552 215.07 241.984 215.966 242.848C216.894 243.68 217.358 244.736 217.358 246.016C217.358 247.264 216.894 248.32 215.966 249.184C215.07 250.016 213.918 250.432 212.51 250.432ZM216.59 253.216V280H208.382V253.216H216.59ZM220.907 266.608C220.907 263.824 221.467 261.392 222.587 259.312C223.739 257.232 225.323 255.632 227.339 254.512C229.387 253.392 231.723 252.832 234.347 252.832C237.707 252.832 240.507 253.712 242.747 255.472C245.019 257.232 246.507 259.712 247.211 262.912H238.475C237.739 260.864 236.315 259.84 234.203 259.84C232.699 259.84 231.499 260.432 230.603 261.616C229.707 262.768 229.259 264.432 229.259 266.608C229.259 268.784 229.707 270.464 230.603 271.648C231.499 272.8 232.699 273.376 234.203 273.376C236.315 273.376 237.739 272.352 238.475 270.304H247.211C246.507 273.44 245.019 275.904 242.747 277.696C240.475 279.488 237.675 280.384 234.347 280.384C231.723 280.384 229.387 279.824 227.339 278.704C225.323 277.584 223.739 275.984 222.587 273.904C221.467 271.824 220.907 269.392 220.907 266.608ZM249.969 266.56C249.969 263.808 250.481 261.392 251.505 259.312C252.561 257.232 253.985 255.632 255.777 254.512C257.569 253.392 259.569 252.832 261.777 252.832C263.665 252.832 265.313 253.216 266.721 253.984C268.161 254.752 269.265 255.76 270.033 257.008V253.216H278.241V280H270.033V276.208C269.233 277.456 268.113 278.464 266.673 279.232C265.265 280 263.617 280.384 261.729 280.384C259.553 280.384 257.569 279.824 255.777 278.704C253.985 277.552 252.561 275.936 251.505 273.856C250.481 271.744 249.969 269.312 249.969 266.56ZM270.033 266.608C270.033 264.56 269.457 262.944 268.305 261.76C267.185 260.576 265.809 259.984 264.177 259.984C262.545 259.984 261.153 260.576 260.001 261.76C258.881 262.912 258.321 264.512 258.321 266.56C258.321 268.608 258.881 270.24 260.001 271.456C261.153 272.64 262.545 273.232 264.177 273.232C265.809 273.232 267.185 272.64 268.305 271.456C269.457 270.272 270.033 268.656 270.033 266.608ZM299.107 273.04V280H294.931C291.955 280 289.635 279.28 287.971 277.84C286.307 276.368 285.475 273.984 285.475 270.688V260.032H282.211V253.216H285.475V246.688H293.683V253.216H299.059V260.032H293.683V270.784C293.683 271.584 293.875 272.16 294.259 272.512C294.643 272.864 295.283 273.04 296.179 273.04H299.107ZM307.807 250.432C306.367 250.432 305.183 250.016 304.255 249.184C303.359 248.32 302.911 247.264 302.911 246.016C302.911 244.736 303.359 243.68 304.255 242.848C305.183 241.984 306.367 241.552 307.807 241.552C309.215 241.552 310.367 241.984 311.263 242.848C312.191 243.68 312.655 244.736 312.655 246.016C312.655 247.264 312.191 248.32 311.263 249.184C310.367 250.016 309.215 250.432 307.807 250.432ZM311.887 253.216V280H303.679V253.216H311.887ZM330.027 280.384C327.403 280.384 325.035 279.824 322.923 278.704C320.843 277.584 319.195 275.984 317.979 273.904C316.795 271.824 316.203 269.392 316.203 266.608C316.203 263.856 316.811 261.44 318.027 259.36C319.243 257.248 320.907 255.632 323.019 254.512C325.131 253.392 327.499 252.832 330.123 252.832C332.747 252.832 335.115 253.392 337.227 254.512C339.339 255.632 341.003 257.248 342.219 259.36C343.435 261.44 344.043 263.856 344.043 266.608C344.043 269.36 343.419 271.792 342.171 273.904C340.955 275.984 339.275 277.584 337.131 278.704C335.019 279.824 332.651 280.384 330.027 280.384ZM330.027 273.28C331.595 273.28 332.923 272.704 334.011 271.552C335.131 270.4 335.691 268.752 335.691 266.608C335.691 264.464 335.147 262.816 334.059 261.664C333.003 260.512 331.691 259.936 330.123 259.936C328.523 259.936 327.195 260.512 326.139 261.664C325.083 262.784 324.555 264.432 324.555 266.608C324.555 268.752 325.067 270.4 326.091 271.552C327.147 272.704 328.459 273.28 330.027 273.28ZM364.718 252.928C367.854 252.928 370.35 253.952 372.206 256C374.094 258.016 375.038 260.8 375.038 264.352V280H366.878V265.456C366.878 263.664 366.414 262.272 365.486 261.28C364.558 260.288 363.31 259.792 361.742 259.792C360.174 259.792 358.926 260.288 357.998 261.28C357.07 262.272 356.606 263.664 356.606 265.456V280H348.398V253.216H356.606V256.768C357.438 255.584 358.558 254.656 359.966 253.984C361.374 253.28 362.958 252.928 364.718 252.928Z" fill="#FF8B36"/>
<g clip-path="url(#clip0_40_5270)">
<path d="M589.548 133.564L589.419 133.148L583.711 134.555C582.648 131.121 581.26 127.78 579.595 124.614L584.627 121.569L584.433 121.18C581.547 115.599 577.819 110.518 573.361 106.048C568.902 101.586 563.815 97.8565 558.237 94.9688L557.849 94.7652L554.806 99.7909C551.633 98.1249 548.294 96.7366 544.871 95.6722L546.277 89.9616L545.861 89.832C533.892 86.028 520.794 86.028 508.825 89.832L508.408 89.9616L509.814 95.6722C506.383 96.7366 503.043 98.1249 499.88 99.7909L496.837 94.7652L496.448 94.9688C490.871 97.8565 485.783 101.586 481.325 106.048C476.866 110.509 473.139 115.599 470.253 121.18L470.049 121.569L475.072 124.614C473.407 127.78 472.019 131.121 470.956 134.555L465.248 133.148L465.119 133.564C463.223 139.553 462.251 145.781 462.251 152.094C462.251 158.406 463.213 164.635 465.119 170.623L465.248 171.04L470.956 169.633C472.019 173.067 473.407 176.408 475.072 179.573L470.04 182.618L470.243 183.007C473.129 188.588 476.857 193.679 481.315 198.14C485.774 202.601 490.861 206.331 496.439 209.219L496.827 209.422L499.871 204.397C503.043 206.063 506.383 207.451 509.805 208.515L508.399 214.226L508.815 214.355C514.8 216.253 521.025 217.225 527.334 217.225C533.642 217.225 539.867 216.262 545.852 214.355L546.268 214.226L544.862 208.515C548.294 207.451 551.633 206.063 554.796 204.397L557.84 209.432L558.228 209.228C563.806 206.34 568.893 202.61 573.352 198.149C577.81 193.688 581.538 188.597 584.424 183.016L584.618 182.628L579.586 179.583C581.251 176.417 582.638 173.076 583.702 169.642L589.409 171.049L589.539 170.633C591.444 164.644 592.406 158.415 592.406 152.103C592.416 145.781 591.454 139.553 589.548 133.564ZM527.343 187.311C507.937 187.311 492.147 171.512 492.147 152.094C492.147 132.676 507.937 116.877 527.343 116.877C546.749 116.877 562.539 132.676 562.539 152.094C562.539 171.512 546.749 187.311 527.343 187.311Z" fill="#F2831F"/>
<path d="M780.687 207.257L780.539 206.924L776.95 207.571C775.776 202.462 773.769 197.613 770.975 193.151L773.972 191.069L773.833 190.726C772.418 187.135 770.365 183.979 767.719 181.341C765.083 178.704 761.929 176.649 758.34 175.223L757.997 175.085L755.916 178.083C751.458 175.288 746.611 173.28 741.505 172.104L742.152 168.513L741.819 168.365C734.743 165.292 726.992 165.292 719.916 168.365L719.583 168.513L720.23 172.104C715.124 173.28 710.277 175.288 705.819 178.083L703.738 175.085L703.396 175.223C699.807 176.64 696.652 178.694 694.016 181.341C691.38 183.979 689.326 187.135 687.911 190.726L687.772 191.069L690.769 193.151C687.976 197.613 685.969 202.453 684.794 207.571L681.205 206.924L681.057 207.257C679.522 210.792 678.745 214.485 678.745 218.215C678.745 221.945 679.522 225.638 681.057 229.174L681.205 229.507L684.794 228.859C685.969 233.968 687.976 238.818 690.769 243.279L687.772 245.362L687.911 245.704C689.326 249.295 691.38 252.451 694.016 255.089C696.652 257.727 699.807 259.782 703.396 261.198L703.738 261.337L705.819 258.338C710.277 261.133 715.115 263.141 720.23 264.317L719.583 267.908L719.916 268.056C723.458 269.593 727.14 270.37 730.868 270.37C734.595 270.37 738.277 269.593 741.819 268.056L742.152 267.908L741.505 264.317C746.611 263.141 751.458 261.133 755.916 258.338L757.997 261.337L758.34 261.198C761.929 259.782 765.083 257.727 767.719 255.089C770.355 252.451 772.409 249.295 773.833 245.704L773.972 245.362L770.975 243.279C773.769 238.818 775.776 233.977 776.95 228.859L780.539 229.507L780.687 229.174C782.223 225.638 783 221.945 783 218.215C783 214.485 782.223 210.792 780.687 207.257ZM730.886 252.636C711.924 252.636 696.486 237.198 696.486 218.215C696.486 199.232 711.915 183.794 730.886 183.794C749.848 183.794 765.286 199.232 765.286 218.215C765.286 237.198 749.848 252.636 730.886 252.636Z" fill="#F2831F"/>
<path d="M501.924 334.964L501.776 334.631L498.187 335.278C497.013 330.16 495.005 325.32 492.212 320.858L495.209 318.776L495.07 318.433C493.655 314.842 491.601 311.686 488.956 309.048C486.32 306.411 483.166 304.356 479.577 302.931L479.234 302.792L477.153 305.79C472.695 302.995 467.848 300.987 462.742 299.811L463.389 296.22L463.056 296.072C455.98 292.999 448.229 292.999 441.153 296.072L440.82 296.22L441.467 299.811C436.361 300.987 431.514 302.995 427.056 305.79L424.975 302.792L424.632 302.931C421.043 304.347 417.889 306.401 415.253 309.048C412.617 311.686 410.563 314.842 409.148 318.433L409.009 318.776L412.006 320.858C409.213 325.32 407.206 330.16 406.031 335.278L402.442 334.631L402.294 334.964C400.758 338.499 399.981 342.192 399.981 345.922C399.981 349.652 400.758 353.345 402.294 356.881L402.442 357.214L406.031 356.566C407.206 361.675 409.213 366.525 412.006 370.986L409.009 373.069L409.148 373.411C410.563 377.002 412.617 380.158 415.253 382.796C417.889 385.434 421.043 387.489 424.632 388.905L424.975 389.044L427.056 386.045C431.514 388.84 436.352 390.849 441.467 392.024L440.82 395.615L441.153 395.763C444.695 397.3 448.377 398.077 452.104 398.077C455.832 398.077 459.514 397.3 463.056 395.763L463.389 395.615L462.742 392.024C467.848 390.849 472.695 388.84 477.153 386.045L479.234 389.044L479.577 388.905C483.166 387.489 486.32 385.434 488.956 382.796C491.592 380.158 493.646 377.002 495.07 373.411L495.209 373.069L492.212 370.986C495.005 366.525 497.013 361.684 498.187 356.566L501.776 357.214L501.924 356.881C503.46 353.345 504.237 349.652 504.237 345.922C504.237 342.192 503.46 338.499 501.924 334.964ZM452.114 371.551C437.989 371.551 426.501 360.055 426.501 345.922C426.501 331.789 437.989 320.294 452.114 320.294C466.238 320.294 477.727 331.789 477.727 345.922C477.727 360.055 466.238 371.551 452.114 371.551Z" fill="#F2831F"/>
<path d="M723.375 338.231C723.375 341.341 720.841 343.877 717.733 343.877H431.699C428.6 343.877 426.057 341.332 426.057 338.231V172.484C426.057 169.383 428.6 166.838 431.699 166.838H717.733C720.841 166.838 723.375 169.383 723.375 172.484V338.231Z" fill="#1C417F"/>
<path d="M714.449 176.084H434.992V334.621H714.449V176.084Z" fill="white"/>
<path opacity="0.1" d="M434.992 334.621L714.44 176.084V334.621H434.992Z" fill="white"/>
<path d="M599.242 373.217H548.451L557.858 343.636H589.835L599.242 373.217Z" fill="#15325B"/>
<path d="M622.746 373.217C622.746 375.707 620.73 377.724 618.241 377.724H529.443C526.954 377.724 524.938 375.707 524.938 373.217C524.938 370.727 526.954 368.709 529.443 368.709H618.241C620.739 368.719 622.746 370.727 622.746 373.217Z" fill="#1C417F"/>
<path d="M735.659 142.598H446.351V306.725H735.659V142.598Z" fill="#C6C6DB"/>
<path d="M735.659 142.598H446.351V156.564H735.659V142.598Z" fill="#1C417F"/>
<path d="M457.155 149.585C457.155 150.974 456.026 152.103 454.639 152.103C453.252 152.103 452.123 150.974 452.123 149.585C452.123 148.197 453.252 147.068 454.639 147.068C456.026 147.059 457.155 148.188 457.155 149.585Z" fill="#EF6287"/>
<path d="M466.405 149.585C466.405 150.974 465.276 152.103 463.889 152.103C462.502 152.103 461.373 150.974 461.373 149.585C461.373 148.197 462.502 147.068 463.889 147.068C465.276 147.068 466.405 148.188 466.405 149.585Z" fill="#DDB03E"/>
<path d="M475.654 149.585C475.654 150.974 474.526 152.103 473.139 152.103C471.751 152.103 470.623 150.974 470.623 149.585C470.623 148.197 471.751 147.068 473.139 147.068C474.526 147.068 475.654 148.188 475.654 149.585Z" fill="#23C16E"/>
<path d="M476.811 164.459H453.27V168.096H476.811V164.459Z" fill="#1C417F"/>
<path d="M495.311 173.715H453.27V177.352H495.311V173.715Z" fill="#1C417F"/>
<path d="M611.258 164.459H490.27V168.096H611.258V164.459Z" fill="#1C417F"/>
<path d="M594.21 173.715H507.937V177.352H594.21V173.715Z" fill="#1C417F"/>
<path d="M485.062 182.97H453.27V186.608H485.062V182.97Z" fill="#1C417F"/>
<path d="M666.646 182.97H503.238V186.608H666.646V182.97Z" fill="#1C417F"/>
<path d="M510.046 192.226H453.27V195.863H510.046V192.226Z" fill="#1C417F"/>
<path d="M643.632 192.226H527.103V195.863H643.632V192.226Z" fill="#1C417F"/>
<path d="M471.095 201.481H453.27V205.118H471.095V201.481Z" fill="#1C417F"/>
<path d="M485.108 210.737H453.27V214.374H485.108V210.737Z" fill="#1C417F"/>
<path d="M572.926 201.481H481.288V205.118H572.926V201.481Z" fill="#1C417F"/>
<path d="M560.023 210.737H494.672V214.374H560.023V210.737Z" fill="#1C417F"/>
<path d="M477.347 219.992H453.27V223.63H477.347V219.992Z" fill="#1C417F"/>
<path d="M614.893 219.992H491.121V223.63H614.893V219.992Z" fill="#1C417F"/>
<path d="M496.273 229.248H453.27V232.885H496.273V229.248Z" fill="#1C417F"/>
<path d="M597.457 229.248H509.195V232.885H597.457V229.248Z" fill="#1C417F"/>
<path d="M476.811 238.503H453.27V242.14H476.811V238.503Z" fill="#1C417F"/>
<path d="M495.311 247.759H453.27V251.396H495.311V247.759Z" fill="#1C417F"/>
<path d="M611.258 238.503H490.27V242.14H611.258V238.503Z" fill="#1C417F"/>
<path d="M594.21 247.759H507.937V251.396H594.21V247.759Z" fill="#1C417F"/>
<path d="M485.062 257.014H453.27V260.652H485.062V257.014Z" fill="#1C417F"/>
<path d="M666.646 257.014H503.238V260.652H666.646V257.014Z" fill="#1C417F"/>
<path d="M510.046 266.27H453.27V269.907H510.046V266.27Z" fill="#1C417F"/>
<path d="M643.632 266.27H527.103V269.907H643.632V266.27Z" fill="#1C417F"/>
<path d="M471.095 275.525H453.27V279.162H471.095V275.525Z" fill="#1C417F"/>
<path d="M485.108 284.781H453.27V288.418H485.108V284.781Z" fill="#1C417F"/>
<path d="M572.926 275.525H481.288V279.162H572.926V275.525Z" fill="#1C417F"/>
<path d="M560.023 284.781H494.672V288.418H560.023V284.781Z" fill="#1C417F"/>
<path d="M477.347 294.036H453.27V297.674H477.347V294.036Z" fill="#1C417F"/>
<path d="M614.893 294.036H491.121V297.674H614.893V294.036Z" fill="#1C417F"/>
<path d="M655.241 383.009C655.241 387.035 651.948 390.33 647.924 390.33H585.737C581.713 390.33 578.42 387.035 578.42 383.009V250.008C578.42 245.981 581.713 242.687 585.737 242.687H647.924C651.948 242.687 655.241 245.981 655.241 250.008V383.009Z" fill="#1C417F"/>
<path d="M650.82 252.349H582.833V373.707H650.82V252.349Z" fill="#C6C6DB"/>
<path d="M621.099 381.427C621.099 383.953 619.055 385.999 616.521 385.999C613.995 385.999 611.951 383.953 611.951 381.427C611.951 378.9 613.995 376.854 616.521 376.854C619.046 376.854 621.099 378.9 621.099 381.427Z" fill="white"/>
<path d="M630.395 247.509C630.395 248.008 629.988 248.425 629.48 248.425H604.477C603.969 248.425 603.562 248.018 603.562 247.509C603.562 247 603.969 246.592 604.477 246.592H629.48C629.988 246.592 630.395 247.009 630.395 247.509Z" fill="white"/>
<path d="M650.82 268.861H582.833V296.924H650.82V268.861Z" fill="white"/>
<path d="M587.402 285.438C588.807 285.438 589.946 284.298 589.946 282.892C589.946 281.487 588.807 280.347 587.402 280.347C585.997 280.347 584.858 281.487 584.858 282.892C584.858 284.298 585.997 285.438 587.402 285.438Z" fill="#C8C5FC"/>
<path d="M587.06 282.892C587.393 282.541 587.735 282.189 588.068 281.837C588.336 281.55 587.911 281.125 587.633 281.402C587.226 281.828 586.829 282.244 586.422 282.67C586.301 282.791 586.301 282.976 586.422 283.105C586.829 283.531 587.226 283.947 587.633 284.373C587.902 284.66 588.336 284.225 588.068 283.938C587.726 283.596 587.393 283.244 587.06 282.892Z" fill="white"/>
<path d="M646.555 285.438C647.96 285.438 649.099 284.298 649.099 282.892C649.099 281.487 647.96 280.347 646.555 280.347C645.15 280.347 644.011 281.487 644.011 282.892C644.011 284.298 645.15 285.438 646.555 285.438Z" fill="#C8C5FC"/>
<path d="M646.897 282.892C646.564 283.244 646.222 283.596 645.889 283.947C645.621 284.234 646.046 284.66 646.324 284.382C646.731 283.957 647.128 283.54 647.535 283.114C647.646 282.994 647.646 282.809 647.535 282.679C647.128 282.254 646.722 281.837 646.324 281.411C646.056 281.124 645.621 281.559 645.889 281.846C646.231 282.198 646.564 282.541 646.897 282.892Z" fill="white"/>
<path d="M643.632 260.809C643.632 262.928 641.903 264.659 639.784 264.659H593.877C591.759 264.659 590.029 262.928 590.029 260.809V259.809C590.029 257.69 591.759 255.959 593.877 255.959H639.784C641.903 255.959 643.632 257.69 643.632 259.809V260.809Z" fill="white"/>
<path d="M595.607 258.282C594.756 257.431 593.369 257.431 592.518 258.282C591.667 259.134 591.667 260.522 592.518 261.374C593.285 262.142 594.488 262.207 595.339 261.586L596.689 262.938L597.17 262.456L595.82 261.105C596.44 260.254 596.375 259.05 595.607 258.282ZM595.126 260.892C594.543 261.475 593.581 261.475 592.999 260.892C592.416 260.309 592.416 259.347 592.999 258.763C593.581 258.18 594.534 258.18 595.126 258.763C595.709 259.347 595.709 260.3 595.126 260.892Z" fill="#9797FC"/>
<path d="M614.31 301.403H586.866V321.534H614.31V301.403Z" fill="white"/>
<path d="M614.31 324.792H586.866V326.217H614.31V324.792Z" fill="#9797FC"/>
<path d="M614.31 328.448H586.866V329.873H614.31V328.448Z" fill="#9797FC"/>
<path d="M614.31 332.113H586.866V333.539H614.31V332.113Z" fill="#9797FC"/>
<path d="M604.607 309.021L597.281 318.693L593.276 313.389L587.106 321.534H595.135H599.437H614.079L604.607 309.021Z" fill="#E1E1FF"/>
<path d="M598.336 311.205C598.336 312.038 597.661 312.704 596.837 312.704C596.005 312.704 595.339 312.029 595.339 311.205C595.339 310.372 596.014 309.696 596.837 309.696C597.661 309.696 598.336 310.372 598.336 311.205Z" fill="#E1E1FF"/>
<path d="M647.092 301.403H619.647V321.534H647.092V301.403Z" fill="white"/>
<path d="M647.092 324.792H619.647V326.217H647.092V324.792Z" fill="#9797FC"/>
<path d="M647.092 328.448H619.647V329.873H647.092V328.448Z" fill="#9797FC"/>
<path d="M647.092 332.113H619.647V333.539H647.092V332.113Z" fill="#9797FC"/>
<path d="M637.379 309.021L630.053 318.693L626.048 313.389L619.878 321.534H627.907H632.208H646.851L637.379 309.021Z" fill="#E1E1FF"/>
<path d="M631.108 311.205C631.108 312.038 630.433 312.704 629.609 312.704C628.777 312.704 628.111 312.029 628.111 311.205C628.111 310.372 628.786 309.696 629.609 309.696C630.433 309.696 631.108 310.372 631.108 311.205Z" fill="#E1E1FF"/>
<path d="M614.31 336.787H586.866V356.918H614.31V336.787Z" fill="white"/>
<path d="M614.31 360.176H586.866V361.601H614.31V360.176Z" fill="#9797FC"/>
<path d="M614.31 363.832H586.866V365.257H614.31V363.832Z" fill="#9797FC"/>
<path d="M614.31 367.497H586.866V368.922H614.31V367.497Z" fill="#9797FC"/>
<path d="M604.607 344.414L597.281 354.076L593.276 348.782L587.106 356.918H595.135H599.437H614.079L604.607 344.414Z" fill="#E1E1FF"/>
<path d="M598.336 346.589C598.336 347.422 597.661 348.088 596.837 348.088C596.005 348.088 595.339 347.412 595.339 346.589C595.339 345.756 596.014 345.08 596.837 345.08C597.661 345.089 598.336 345.756 598.336 346.589Z" fill="#E1E1FF"/>
<path d="M647.092 336.787H619.647V356.918H647.092V336.787Z" fill="white"/>
<path d="M647.092 360.176H619.647V361.601H647.092V360.176Z" fill="#9797FC"/>
<path d="M647.092 363.832H619.647V365.257H647.092V363.832Z" fill="#9797FC"/>
<path d="M647.092 367.497H619.647V368.922H647.092V367.497Z" fill="#9797FC"/>
<path d="M637.379 344.414L630.053 354.076L626.048 348.782L619.878 356.918H627.907H632.208H646.851L637.379 344.414Z" fill="#E1E1FF"/>
<path d="M631.108 346.589C631.108 347.422 630.433 348.088 629.609 348.088C628.777 348.088 628.111 347.412 628.111 346.589C628.111 345.756 628.786 345.08 629.609 345.08C630.433 345.089 631.108 345.756 631.108 346.589Z" fill="#E1E1FF"/>
<path d="M539.923 352.521C539.923 354.558 538.258 356.224 536.223 356.224H484.784C482.749 356.224 481.084 354.558 481.084 352.521V322.904C481.084 320.868 482.749 319.202 484.784 319.202H536.223C538.258 319.202 539.923 320.868 539.923 322.904V352.521Z" fill="#EAAA2A"/>
<path d="M538.073 349.745C538.073 351.781 536.408 353.447 534.373 353.447H482.934C480.899 353.447 479.234 351.781 479.234 349.745V320.127C479.234 318.091 480.899 316.425 482.934 316.425H534.373C536.408 316.425 538.073 318.091 538.073 320.127V349.745Z" fill="#EFC45E"/>
<path d="M503.016 331.947L495.708 334.622L503.016 337.278V340.027L492.573 336.056V333.196L503.016 329.226V331.947Z" fill="#1C417F"/>
<path d="M510.869 323.82H513.921L506.678 344.506H503.626L510.869 323.82Z" fill="#1C417F"/>
<path d="M524.762 333.196V336.047L514.319 340.017V337.269L521.626 334.612L514.319 331.937V329.216L524.762 333.196Z" fill="#1C417F"/>
<path d="M765.231 319.951C765.231 322.08 763.492 323.811 761.374 323.811H709.01C706.883 323.811 705.153 322.071 705.153 319.951V267.556C705.153 265.427 706.892 263.696 709.01 263.696H761.374C763.492 263.696 765.231 265.436 765.231 267.556V319.951Z" fill="#1C417F"/>
<path d="M762.826 317.545C762.826 319.674 761.087 321.405 758.969 321.405H706.605C704.487 321.405 702.748 319.664 702.748 317.545V265.15C702.748 263.03 704.487 261.29 706.605 261.29H758.969C761.096 261.29 762.826 263.03 762.826 265.15V317.545Z" fill="#EFC45E"/>
<path d="M720.371 285.318V296.615H717.756V291.984H712.624V296.615H710.01V285.318H712.624V289.773H717.756V285.318H720.371ZM725.383 287.449H721.768V285.318H731.613V287.449H727.998V296.615H725.383V287.449ZM743.299 296.615L743.283 289.837L739.959 295.421H738.781L735.472 289.982V296.615H733.019V285.318H735.182L739.41 292.339L743.574 285.318H745.72L745.752 296.615H743.299ZM710.01 305.318H712.624V314.485H718.289V316.615H710.01V305.318Z" fill="#1C417F"/>
<path d="M759.283 177.167C759.283 178.833 757.914 180.203 756.249 180.203H715.087C713.422 180.203 712.053 178.833 712.053 177.167V135.98C712.053 134.305 713.422 132.944 715.087 132.944H756.249C757.914 132.944 759.283 134.314 759.283 135.98V177.167Z" fill="#1C417F"/>
<path d="M757.396 175.27C757.396 176.936 756.027 178.305 754.362 178.305H713.2C711.535 178.305 710.167 176.936 710.167 175.27V134.083C710.167 132.417 711.535 131.047 713.2 131.047H754.362C756.027 131.047 757.396 132.417 757.396 134.083V175.27Z" fill="#F2831F"/>
<path d="M718.477 158.39C717.877 158.39 717.323 158.28 716.815 158.06C716.316 157.831 715.906 157.51 715.585 157.095L716.727 155.725C717.209 156.376 717.758 156.702 718.376 156.702C719.213 156.702 719.632 156.211 719.632 155.23V151.005H716.511V149.356H721.675V155.116C721.675 156.207 721.404 157.028 720.863 157.578C720.321 158.119 719.526 158.39 718.477 158.39ZM729.369 156.334H725.245L724.458 158.237H722.352L726.311 149.356H728.341L732.312 158.237H730.155L729.369 156.334ZM728.721 154.773L727.313 151.373L725.905 154.773H728.721ZM741.289 149.356L737.445 158.237H735.415L731.583 149.356H733.804L736.506 155.7L739.247 149.356H741.289ZM722.69 171.334H718.566L717.78 173.237H715.673L719.632 164.356H721.662L725.634 173.237H723.477L722.69 171.334ZM722.043 169.773L720.634 166.373L719.226 169.773H722.043Z" fill="#FDFDFD"/>
<path d="M713.941 246.741C713.941 248.527 712.479 249.989 710.694 249.989H666.6C664.815 249.989 663.353 248.527 663.353 246.741V202.62C663.353 200.833 664.815 199.371 666.6 199.371H710.694C712.479 199.371 713.941 200.833 713.941 202.62V246.741Z" fill="#EAAA2A"/>
<path d="M711.915 244.713C711.915 246.5 710.453 247.962 708.668 247.962H664.574C662.789 247.962 661.327 246.5 661.327 244.713V200.592C661.327 198.806 662.789 197.344 664.574 197.344H708.668C710.453 197.344 711.915 198.806 711.915 200.592V244.713Z" fill="#EFC45E"/>
<path d="M675.288 228.313C673.934 228.313 672.707 228.022 671.607 227.44C670.519 226.845 669.658 226.029 669.026 224.992C668.406 223.942 668.096 222.759 668.096 221.443C668.096 220.128 668.406 218.951 669.026 217.914C669.658 216.864 670.519 216.048 671.607 215.466C672.707 214.871 673.941 214.574 675.307 214.574C676.458 214.574 677.495 214.777 678.419 215.181C679.355 215.586 680.139 216.168 680.772 216.927L678.798 218.749C677.9 217.711 676.787 217.193 675.459 217.193C674.636 217.193 673.903 217.376 673.257 217.743C672.612 218.097 672.106 218.597 671.739 219.242C671.385 219.887 671.208 220.621 671.208 221.443C671.208 222.266 671.385 222.999 671.739 223.645C672.106 224.29 672.612 224.796 673.257 225.163C673.903 225.517 674.636 225.694 675.459 225.694C676.787 225.694 677.9 225.169 678.798 224.119L680.772 225.941C680.139 226.712 679.355 227.301 678.419 227.705C677.483 228.11 676.439 228.313 675.288 228.313ZM687.101 228.313C686.051 228.313 685.033 228.174 684.046 227.895C683.072 227.604 682.288 227.231 681.693 226.776L682.737 224.461C683.306 224.878 683.983 225.213 684.767 225.466C685.551 225.719 686.336 225.846 687.12 225.846C687.993 225.846 688.638 225.719 689.056 225.466C689.473 225.201 689.682 224.853 689.682 224.423C689.682 224.106 689.555 223.847 689.302 223.645C689.062 223.43 688.746 223.259 688.354 223.132C687.974 223.006 687.455 222.867 686.798 222.715C685.785 222.474 684.957 222.234 684.312 221.994C683.666 221.753 683.11 221.367 682.642 220.836C682.186 220.305 681.959 219.596 681.959 218.711C681.959 217.939 682.167 217.243 682.585 216.624C683.002 215.991 683.629 215.491 684.463 215.124C685.311 214.758 686.342 214.574 687.557 214.574C688.404 214.574 689.233 214.675 690.042 214.878C690.852 215.08 691.56 215.371 692.168 215.751L691.219 218.085C689.992 217.389 688.765 217.041 687.538 217.041C686.677 217.041 686.038 217.18 685.621 217.458C685.216 217.737 685.014 218.104 685.014 218.559C685.014 219.014 685.248 219.356 685.716 219.584C686.197 219.799 686.924 220.014 687.898 220.229C688.91 220.469 689.739 220.71 690.384 220.95C691.029 221.19 691.579 221.57 692.035 222.089C692.503 222.607 692.737 223.309 692.737 224.195C692.737 224.954 692.522 225.65 692.092 226.282C691.674 226.902 691.042 227.396 690.194 227.762C689.347 228.129 688.316 228.313 687.101 228.313ZM673.295 251.313C672.245 251.313 671.227 251.174 670.24 250.895C669.266 250.604 668.482 250.231 667.887 249.776L668.931 247.461C669.5 247.878 670.177 248.213 670.961 248.466C671.746 248.719 672.53 248.846 673.314 248.846C674.187 248.846 674.832 248.719 675.25 248.466C675.667 248.201 675.876 247.853 675.876 247.423C675.876 247.106 675.75 246.847 675.497 246.645C675.256 246.43 674.94 246.259 674.548 246.132C674.168 246.006 673.65 245.867 672.992 245.715C671.98 245.474 671.151 245.234 670.506 244.994C669.861 244.753 669.304 244.367 668.836 243.836C668.381 243.305 668.153 242.596 668.153 241.711C668.153 240.939 668.362 240.243 668.779 239.624C669.197 238.991 669.823 238.491 670.658 238.124C671.505 237.758 672.536 237.574 673.751 237.574C674.598 237.574 675.427 237.675 676.237 237.878C677.046 238.08 677.755 238.371 678.362 238.751L677.413 241.085C676.186 240.389 674.959 240.041 673.732 240.041C672.872 240.041 672.233 240.18 671.815 240.458C671.41 240.737 671.208 241.104 671.208 241.559C671.208 242.014 671.442 242.356 671.91 242.584C672.391 242.799 673.118 243.014 674.092 243.229C675.104 243.469 675.933 243.71 676.578 243.95C677.223 244.19 677.774 244.57 678.229 245.089C678.697 245.607 678.931 246.309 678.931 247.195C678.931 247.954 678.716 248.65 678.286 249.282C677.869 249.902 677.236 250.396 676.388 250.762C675.541 251.129 674.51 251.313 673.295 251.313Z" fill="#1C417F"/>
<path d="M460.494 282.198C460.494 283.864 459.125 285.234 457.46 285.234H416.298C414.633 285.234 413.264 283.864 413.264 282.198V241.011C413.264 239.336 414.633 237.976 416.298 237.976H457.46C459.125 237.976 460.494 239.345 460.494 241.011V282.198Z" fill="#F2831F"/>
<path d="M458.607 280.301C458.607 281.967 457.238 283.337 455.573 283.337H414.411C412.746 283.337 411.377 281.967 411.377 280.301V239.114C411.377 237.448 412.746 236.078 414.411 236.078H455.573C457.238 236.078 458.607 237.448 458.607 239.114V280.301Z" fill="#1C417F"/>
<path d="M425.092 265.241C423.834 265.241 422.694 264.971 421.671 264.43C420.66 263.877 419.86 263.119 419.272 262.155C418.696 261.179 418.408 260.079 418.408 258.857C418.408 257.634 418.696 256.54 419.272 255.576C419.86 254.6 420.66 253.842 421.671 253.301C422.694 252.749 423.84 252.472 425.11 252.472C426.18 252.472 427.144 252.66 428.002 253.037C428.872 253.413 429.601 253.954 430.189 254.659L428.355 256.352C427.52 255.388 426.485 254.906 425.251 254.906C424.487 254.906 423.805 255.077 423.205 255.418C422.605 255.747 422.135 256.211 421.794 256.811C421.465 257.41 421.3 258.092 421.3 258.857C421.3 259.621 421.465 260.303 421.794 260.902C422.135 261.502 422.605 261.972 423.205 262.313C423.805 262.643 424.487 262.807 425.251 262.807C426.485 262.807 427.52 262.319 428.355 261.343L430.189 263.036C429.601 263.754 428.872 264.3 428.002 264.677C427.132 265.053 426.162 265.241 425.092 265.241ZM440.04 259.932H436.971V262.931H434.696V259.932H431.645V257.781H434.696V254.783H436.971V257.781H440.04V259.932ZM427.208 280.932H424.14V283.931H421.865V280.932H418.814V278.781H421.865V275.783H424.14V278.781H427.208V280.932Z" fill="#FDFDFD"/>
<path d="M658.756 167.625C658.756 169.707 657.054 171.419 654.972 171.419H603.589C601.508 171.419 599.797 169.716 599.797 167.625V116.22C599.797 114.137 601.499 112.434 603.589 112.434H654.963C657.044 112.434 658.746 114.137 658.746 116.22V167.625H658.756Z" fill="#1C417F"/>
<path d="M656.397 165.264C656.397 167.347 654.695 169.05 652.614 169.05H601.24C599.159 169.05 597.448 167.347 597.448 165.264V113.859C597.448 111.777 599.15 110.074 601.24 110.074H652.614C654.695 110.074 656.397 111.777 656.397 113.859V165.264Z" fill="#F2831F"/>
<path d="M615.144 132.949C616.125 132.949 616.975 133.113 617.693 133.44C618.422 133.767 618.981 134.232 619.372 134.833C619.762 135.435 619.958 136.148 619.958 136.971C619.958 137.784 619.762 138.497 619.372 139.109C618.981 139.711 618.422 140.175 617.693 140.502C616.975 140.819 616.125 140.977 615.144 140.977H612.911V144.034H610.346V132.949H615.144ZM615.001 138.887C615.772 138.887 616.358 138.724 616.759 138.396C617.16 138.059 617.361 137.583 617.361 136.971C617.361 136.348 617.16 135.873 616.759 135.546C616.358 135.208 615.772 135.039 615.001 135.039H612.911V138.887H615.001ZM631.955 132.949V144.034H629.39V139.489H624.354V144.034H621.789V132.949H624.354V137.32H629.39V132.949H631.955ZM615.144 151.949C616.125 151.949 616.975 152.113 617.693 152.44C618.422 152.767 618.981 153.232 619.372 153.833C619.762 154.435 619.958 155.148 619.958 155.971C619.958 156.784 619.762 157.497 619.372 158.109C618.981 158.711 618.422 159.175 617.693 159.502C616.975 159.819 616.125 159.977 615.144 159.977H612.911V163.034H610.346V151.949H615.144ZM615.001 157.887C615.772 157.887 616.358 157.724 616.759 157.396C617.16 157.059 617.361 156.583 617.361 155.971C617.361 155.348 617.16 154.873 616.759 154.546C616.358 154.208 615.772 154.039 615.001 154.039H612.911V157.887H615.001Z" fill="#FDFDFD"/>
<path d="M690.446 402.964C690.446 404.63 689.077 406 687.412 406H646.25C644.585 406 643.216 404.63 643.216 402.964V361.777C643.216 360.102 644.585 358.741 646.25 358.741H687.412C689.077 358.741 690.446 360.111 690.446 361.777V402.964Z" fill="#E27CF7"/>
<path d="M688.559 401.076C688.559 402.742 687.19 404.112 685.525 404.112H644.363C642.698 404.112 641.329 402.742 641.329 401.076V359.889C641.329 358.223 642.698 356.853 644.363 356.853H685.525C687.19 356.853 688.559 358.223 688.559 359.889V401.076Z" fill="#F2831F"/>
<path d="M658.763 387.36C657.886 387.36 657.077 387.199 656.335 386.878C655.607 386.544 655.007 386.075 654.538 385.469L656.206 383.468C656.91 384.419 657.713 384.895 658.615 384.895C659.838 384.895 660.449 384.178 660.449 382.745V376.574H655.891V374.165H663.433V382.579C663.433 384.172 663.038 385.371 662.247 386.174C661.456 386.964 660.295 387.36 658.763 387.36ZM660.635 410.36C659.609 410.36 658.615 410.224 657.651 409.952C656.7 409.668 655.934 409.303 655.353 408.859L656.373 406.598C656.928 407.005 657.589 407.333 658.355 407.58C659.121 407.827 659.887 407.951 660.653 407.951C661.506 407.951 662.136 407.827 662.543 407.58C662.951 407.32 663.155 406.981 663.155 406.561C663.155 406.252 663.031 405.999 662.784 405.801C662.55 405.591 662.241 405.424 661.858 405.301C661.487 405.177 660.981 405.041 660.338 404.893C659.35 404.658 658.541 404.423 657.911 404.189C657.281 403.954 656.737 403.577 656.28 403.058C655.835 402.539 655.613 401.848 655.613 400.983C655.613 400.229 655.817 399.55 656.224 398.944C656.632 398.327 657.244 397.839 658.059 397.48C658.887 397.122 659.893 396.943 661.079 396.943C661.907 396.943 662.716 397.042 663.507 397.24C664.298 397.437 664.99 397.721 665.583 398.092L664.656 400.371C663.458 399.692 662.259 399.352 661.061 399.352C660.221 399.352 659.597 399.488 659.189 399.76C658.794 400.032 658.596 400.39 658.596 400.835C658.596 401.279 658.825 401.613 659.282 401.835C659.751 402.045 660.462 402.255 661.413 402.465C662.401 402.7 663.211 402.935 663.841 403.17C664.471 403.404 665.008 403.775 665.453 404.281C665.91 404.788 666.138 405.474 666.138 406.338C666.138 407.08 665.928 407.759 665.508 408.377C665.101 408.982 664.483 409.464 663.655 409.822C662.828 410.18 661.821 410.36 660.635 410.36Z" fill="#FDFDFD"/>
</g>
<defs>
<filter id="filter0_d_40_5270" x="0" y="0" width="799" height="474" filterUnits="userSpaceOnUse" color-interpolation-filters="sRGB">
<feFlood flood-opacity="0" result="BackgroundImageFix"/>
<feColorMatrix in="SourceAlpha" type="matrix" values="0 0 0 0 0 0 0 0 0 0 0 0 0 0 0 0 0 0 127 0" result="hardAlpha"/>
<feOffset dy="4"/>
<feGaussianBlur stdDeviation="2"/>
<feComposite in2="hardAlpha" operator="out"/>
<feColorMatrix type="matrix" values="0 0 0 0 0 0 0 0 0 0 0 0 0 0 0 0 0 0 0.1 0"/>
<feBlend mode="normal" in2="BackgroundImageFix" result="effect1_dropShadow_40_5270"/>
<feBlend mode="normal" in="SourceGraphic" in2="effect1_dropShadow_40_5270" result="shape"/>
</filter>
<clipPath id="clip0_40_5270">
<rect width="383" height="319" fill="white" transform="translate(400 87)"/>
</clipPath>
</defs>
</svg>
