<svg width="799" height="474" viewBox="0 0 799 474" fill="none" xmlns="http://www.w3.org/2000/svg">
<g filter="url(#filter0_d_40_999)">
<rect x="4" width="791" height="466" rx="27" fill="#FFF2EA"/>
</g>
<path d="M142.112 61.224C140.469 61.224 138.997 60.9573 137.696 60.424C136.395 59.8907 135.349 59.1013 134.56 58.056C133.792 57.0107 133.387 55.752 133.344 54.28H139.168C139.253 55.112 139.541 55.752 140.032 56.2C140.523 56.6267 141.163 56.84 141.952 56.84C142.763 56.84 143.403 56.6587 143.872 56.296C144.341 55.912 144.576 55.3893 144.576 54.728C144.576 54.1733 144.384 53.7147 144 53.352C143.637 52.9893 143.179 52.6907 142.624 52.456C142.091 52.2213 141.323 51.9547 140.32 51.656C138.869 51.208 137.685 50.76 136.768 50.312C135.851 49.864 135.061 49.2027 134.4 48.328C133.739 47.4533 133.408 46.312 133.408 44.904C133.408 42.8133 134.165 41.1813 135.68 40.008C137.195 38.8133 139.168 38.216 141.6 38.216C144.075 38.216 146.069 38.8133 147.584 40.008C149.099 41.1813 149.909 42.824 150.016 44.936H144.096C144.053 44.2107 143.787 43.6453 143.296 43.24C142.805 42.8133 142.176 42.6 141.408 42.6C140.747 42.6 140.213 42.7813 139.808 43.144C139.403 43.4853 139.2 43.9867 139.2 44.648C139.2 45.3733 139.541 45.9387 140.224 46.344C140.907 46.7493 141.973 47.1867 143.424 47.656C144.875 48.1467 146.048 48.616 146.944 49.064C147.861 49.512 148.651 50.1627 149.312 51.016C149.973 51.8693 150.304 52.968 150.304 54.312C150.304 55.592 149.973 56.7547 149.312 57.8C148.672 58.8453 147.733 59.6773 146.496 60.296C145.259 60.9147 143.797 61.224 142.112 61.224ZM164.584 61L159.144 53.512V61H153.672V37.32H159.144V50.408L164.552 43.144H171.304L163.88 52.104L171.368 61H164.584ZM176.205 41.288C175.245 41.288 174.455 41.0107 173.837 40.456C173.239 39.88 172.941 39.176 172.941 38.344C172.941 37.4907 173.239 36.7867 173.837 36.232C174.455 35.656 175.245 35.368 176.205 35.368C177.143 35.368 177.911 35.656 178.509 36.232C179.127 36.7867 179.437 37.4907 179.437 38.344C179.437 39.176 179.127 39.88 178.509 40.456C177.911 41.0107 177.143 41.288 176.205 41.288ZM178.925 43.144V61H173.453V43.144H178.925ZM188.362 37.32V61H182.89V37.32H188.362ZM197.8 37.32V61H192.328V37.32H197.8ZM210.181 38.536C212.549 38.536 214.619 39.0053 216.389 39.944C218.16 40.8827 219.525 42.2053 220.485 43.912C221.467 45.5973 221.957 47.5493 221.957 49.768C221.957 51.9653 221.467 53.9173 220.485 55.624C219.525 57.3307 218.149 58.6533 216.357 59.592C214.587 60.5307 212.528 61 210.181 61H201.765V38.536H210.181ZM209.829 56.264C211.899 56.264 213.509 55.6987 214.661 54.568C215.813 53.4373 216.389 51.8373 216.389 49.768C216.389 47.6987 215.813 46.088 214.661 44.936C213.509 43.784 211.899 43.208 209.829 43.208H207.237V56.264H209.829ZM241.847 51.784C241.847 52.296 241.815 52.8293 241.751 53.384H229.367C229.453 54.4933 229.805 55.3467 230.423 55.944C231.063 56.52 231.842 56.808 232.759 56.808C234.125 56.808 235.074 56.232 235.607 55.08H241.431C241.133 56.2533 240.589 57.3093 239.799 58.248C239.031 59.1867 238.061 59.9227 236.887 60.456C235.714 60.9893 234.402 61.256 232.951 61.256C231.202 61.256 229.645 60.8827 228.279 60.136C226.914 59.3893 225.847 58.3227 225.079 56.936C224.311 55.5493 223.927 53.928 223.927 52.072C223.927 50.216 224.301 48.5947 225.047 47.208C225.815 45.8213 226.882 44.7547 228.247 44.008C229.613 43.2613 231.181 42.888 232.951 42.888C234.679 42.888 236.215 43.2507 237.559 43.976C238.903 44.7013 239.949 45.736 240.695 47.08C241.463 48.424 241.847 49.992 241.847 51.784ZM236.247 50.344C236.247 49.4053 235.927 48.6587 235.287 48.104C234.647 47.5493 233.847 47.272 232.887 47.272C231.97 47.272 231.191 47.5387 230.551 48.072C229.933 48.6053 229.549 49.3627 229.399 50.344H236.247ZM251.998 61.256C250.441 61.256 249.054 60.9893 247.838 60.456C246.622 59.9227 245.662 59.1973 244.958 58.28C244.254 57.3413 243.859 56.296 243.774 55.144H249.182C249.246 55.7627 249.534 56.264 250.046 56.648C250.558 57.032 251.187 57.224 251.934 57.224C252.617 57.224 253.139 57.096 253.502 56.84C253.886 56.5627 254.078 56.2107 254.078 55.784C254.078 55.272 253.811 54.8987 253.278 54.664C252.745 54.408 251.881 54.1307 250.686 53.832C249.406 53.5333 248.339 53.224 247.486 52.904C246.633 52.5627 245.897 52.04 245.278 51.336C244.659 50.6107 244.35 49.64 244.35 48.424C244.35 47.4 244.627 46.472 245.182 45.64C245.758 44.7867 246.59 44.1147 247.678 43.624C248.787 43.1333 250.099 42.888 251.614 42.888C253.854 42.888 255.614 43.4427 256.894 44.552C258.195 45.6613 258.942 47.1333 259.134 48.968H254.078C253.993 48.3493 253.715 47.8587 253.246 47.496C252.798 47.1333 252.201 46.952 251.454 46.952C250.814 46.952 250.323 47.08 249.982 47.336C249.641 47.5707 249.47 47.9013 249.47 48.328C249.47 48.84 249.737 49.224 250.27 49.48C250.825 49.736 251.678 49.992 252.83 50.248C254.153 50.5893 255.23 50.9307 256.062 51.272C256.894 51.592 257.619 52.1253 258.238 52.872C258.878 53.5973 259.209 54.5787 259.23 55.816C259.23 56.8613 258.931 57.8 258.334 58.632C257.758 59.4427 256.915 60.0827 255.806 60.552C254.718 61.0213 253.449 61.256 251.998 61.256ZM273.49 61L268.05 53.512V61H262.578V37.32H268.05V50.408L273.458 43.144H280.21L272.786 52.104L280.274 61H273.49Z" fill="#003F7D"/>
<path d="M85.07 210.708H65.354L61.572 221H56.984L72.794 178.22H77.692L93.44 221H88.852L85.07 210.708ZM83.768 207.112L75.212 183.676L66.656 207.112H83.768ZM104.745 177.662V221H100.405V177.662H104.745ZM151.861 198.618C154.3 199.073 156.366 200.313 158.061 202.338C159.756 204.363 160.603 206.719 160.603 209.406C160.603 211.597 160.045 213.581 158.929 215.358C157.854 217.094 156.263 218.479 154.155 219.512C152.047 220.504 149.526 221 146.591 221H131.587V177.662H146.157C150.538 177.662 153.866 178.675 156.139 180.7C158.454 182.725 159.611 185.35 159.611 188.574C159.611 191.261 158.888 193.451 157.441 195.146C155.994 196.799 154.134 197.957 151.861 198.618ZM135.927 196.82H146.033C148.968 196.82 151.22 196.138 152.791 194.774C154.403 193.369 155.209 191.447 155.209 189.008C155.209 186.611 154.403 184.73 152.791 183.366C151.22 182.002 148.906 181.32 145.847 181.32H135.927V196.82ZM146.281 217.342C149.422 217.342 151.861 216.598 153.597 215.11C155.374 213.622 156.263 211.576 156.263 208.972C156.263 206.368 155.333 204.301 153.473 202.772C151.654 201.201 149.195 200.416 146.095 200.416H135.927V217.342H146.281ZM166.597 204.012C166.597 200.54 167.279 197.502 168.643 194.898C170.048 192.253 171.97 190.227 174.409 188.822C176.889 187.375 179.679 186.652 182.779 186.652C186.003 186.652 188.772 187.396 191.087 188.884C193.443 190.372 195.138 192.273 196.171 194.588V187.148H200.511V221H196.171V213.498C195.096 215.813 193.381 217.735 191.025 219.264C188.71 220.752 185.941 221.496 182.717 221.496C179.658 221.496 176.889 220.773 174.409 219.326C171.97 217.879 170.048 215.833 168.643 213.188C167.279 210.543 166.597 207.484 166.597 204.012ZM196.171 204.074C196.171 201.346 195.613 198.949 194.497 196.882C193.381 194.815 191.852 193.224 189.909 192.108C188.008 190.992 185.9 190.434 183.585 190.434C181.188 190.434 179.038 190.971 177.137 192.046C175.236 193.121 173.727 194.691 172.611 196.758C171.536 198.783 170.999 201.201 170.999 204.012C170.999 206.781 171.536 209.22 172.611 211.328C173.727 213.395 175.236 214.986 177.137 216.102C179.038 217.177 181.188 217.714 183.585 217.714C185.9 217.714 188.008 217.156 189.909 216.04C191.852 214.924 193.381 213.333 194.497 211.266C195.613 209.199 196.171 206.802 196.171 204.074ZM222.075 221.496C218.19 221.496 215.007 220.607 212.527 218.83C210.088 217.011 208.724 214.552 208.435 211.452H212.899C213.106 213.353 213.994 214.903 215.565 216.102C217.177 217.259 219.326 217.838 222.013 217.838C224.369 217.838 226.208 217.28 227.531 216.164C228.895 215.048 229.577 213.663 229.577 212.01C229.577 210.853 229.205 209.902 228.461 209.158C227.717 208.414 226.766 207.835 225.609 207.422C224.493 206.967 222.964 206.492 221.021 205.996C218.5 205.335 216.454 204.673 214.883 204.012C213.312 203.351 211.969 202.379 210.853 201.098C209.778 199.775 209.241 198.019 209.241 195.828C209.241 194.175 209.737 192.645 210.729 191.24C211.721 189.835 213.126 188.719 214.945 187.892C216.764 187.065 218.83 186.652 221.145 186.652C224.782 186.652 227.717 187.582 229.949 189.442C232.181 191.261 233.38 193.782 233.545 197.006H229.205C229.081 195.022 228.296 193.431 226.849 192.232C225.444 190.992 223.501 190.372 221.021 190.372C218.83 190.372 217.053 190.889 215.689 191.922C214.325 192.955 213.643 194.237 213.643 195.766C213.643 197.089 214.036 198.184 214.821 199.052C215.648 199.879 216.66 200.54 217.859 201.036C219.058 201.491 220.67 202.007 222.695 202.586C225.134 203.247 227.076 203.888 228.523 204.508C229.97 205.128 231.21 206.037 232.243 207.236C233.276 208.435 233.814 210.026 233.855 212.01C233.855 213.829 233.359 215.461 232.367 216.908C231.375 218.313 229.99 219.429 228.213 220.256C226.436 221.083 224.39 221.496 222.075 221.496ZM272.652 202.338C272.652 203.826 272.611 204.963 272.528 205.748H244.442C244.566 208.311 245.186 210.501 246.302 212.32C247.418 214.139 248.886 215.523 250.704 216.474C252.523 217.383 254.507 217.838 256.656 217.838C259.467 217.838 261.823 217.156 263.724 215.792C265.667 214.428 266.948 212.589 267.568 210.274H272.156C271.33 213.581 269.552 216.288 266.824 218.396C264.138 220.463 260.748 221.496 256.656 221.496C253.474 221.496 250.622 220.793 248.1 219.388C245.579 217.941 243.595 215.916 242.148 213.312C240.743 210.667 240.04 207.587 240.04 204.074C240.04 200.561 240.743 197.481 242.148 194.836C243.554 192.191 245.517 190.165 248.038 188.76C250.56 187.355 253.432 186.652 256.656 186.652C259.88 186.652 262.691 187.355 265.088 188.76C267.527 190.165 269.387 192.067 270.668 194.464C271.991 196.82 272.652 199.445 272.652 202.338ZM268.25 202.214C268.292 199.693 267.775 197.543 266.7 195.766C265.667 193.989 264.241 192.645 262.422 191.736C260.604 190.827 258.62 190.372 256.47 190.372C253.246 190.372 250.498 191.405 248.224 193.472C245.951 195.539 244.69 198.453 244.442 202.214H268.25ZM278.609 204.012C278.609 200.54 279.311 197.502 280.717 194.898C282.122 192.253 284.044 190.227 286.483 188.822C288.963 187.375 291.753 186.652 294.853 186.652C297.829 186.652 300.515 187.375 302.913 188.822C305.31 190.269 307.067 192.149 308.183 194.464V175.12H312.523V221H308.183V213.436C307.149 215.792 305.455 217.735 303.099 219.264C300.743 220.752 297.973 221.496 294.791 221.496C291.691 221.496 288.901 220.773 286.421 219.326C283.982 217.879 282.06 215.833 280.655 213.188C279.291 210.543 278.609 207.484 278.609 204.012ZM308.183 204.074C308.183 201.346 307.625 198.949 306.509 196.882C305.393 194.815 303.863 193.224 301.921 192.108C300.019 190.992 297.911 190.434 295.597 190.434C293.199 190.434 291.05 190.971 289.149 192.046C287.247 193.121 285.739 194.691 284.623 196.758C283.548 198.783 283.011 201.201 283.011 204.012C283.011 206.781 283.548 209.22 284.623 211.328C285.739 213.395 287.247 214.986 289.149 216.102C291.05 217.177 293.199 217.714 295.597 217.714C297.911 217.714 300.019 217.156 301.921 216.04C303.863 214.924 305.393 213.333 306.509 211.266C307.625 209.199 308.183 206.802 308.183 204.074Z" fill="#303030"/>
<path d="M56.881 261.936C56.881 257.984 57.736 254.469 59.446 251.391C61.156 248.275 63.531 245.862 66.571 244.152C69.649 242.404 73.126 241.53 77.002 241.53C81.752 241.53 85.818 242.784 89.2 245.292C92.582 247.8 94.843 251.22 95.983 255.552H85.267C84.469 253.88 83.329 252.607 81.847 251.733C80.403 250.859 78.75 250.422 76.888 250.422C73.886 250.422 71.454 251.467 69.592 253.557C67.73 255.647 66.799 258.44 66.799 261.936C66.799 265.432 67.73 268.225 69.592 270.315C71.454 272.405 73.886 273.45 76.888 273.45C78.75 273.45 80.403 273.013 81.847 272.139C83.329 271.265 84.469 269.992 85.267 268.32H95.983C94.843 272.652 92.582 276.072 89.2 278.58C85.818 281.05 81.752 282.285 77.002 282.285C73.126 282.285 69.649 281.43 66.571 279.72C63.531 277.972 61.156 275.559 59.446 272.481C57.736 269.403 56.881 265.888 56.881 261.936ZM116.43 282.456C113.314 282.456 110.502 281.791 107.994 280.461C105.524 279.131 103.567 277.231 102.123 274.761C100.717 272.291 100.014 269.403 100.014 266.097C100.014 262.829 100.736 259.96 102.18 257.49C103.624 254.982 105.6 253.063 108.108 251.733C110.616 250.403 113.428 249.738 116.544 249.738C119.66 249.738 122.472 250.403 124.98 251.733C127.488 253.063 129.464 254.982 130.908 257.49C132.352 259.96 133.074 262.829 133.074 266.097C133.074 269.365 132.333 272.253 130.851 274.761C129.407 277.231 127.412 279.131 124.866 280.461C122.358 281.791 119.546 282.456 116.43 282.456ZM116.43 274.02C118.292 274.02 119.869 273.336 121.161 271.968C122.491 270.6 123.156 268.643 123.156 266.097C123.156 263.551 122.51 261.594 121.218 260.226C119.964 258.858 118.406 258.174 116.544 258.174C114.644 258.174 113.067 258.858 111.813 260.226C110.559 261.556 109.932 263.513 109.932 266.097C109.932 268.643 110.54 270.6 111.756 271.968C113.01 273.336 114.568 274.02 116.43 274.02ZM169.652 250.194V282H159.905V277.668C158.917 279.074 157.568 280.214 155.858 281.088C154.186 281.924 152.324 282.342 150.272 282.342C147.84 282.342 145.693 281.81 143.831 280.746C141.969 279.644 140.525 278.067 139.499 276.015C138.473 273.963 137.96 271.55 137.96 268.776V250.194H147.65V267.465C147.65 269.593 148.201 271.246 149.303 272.424C150.405 273.602 151.887 274.191 153.749 274.191C155.649 274.191 157.15 273.602 158.252 272.424C159.354 271.246 159.905 269.593 159.905 267.465V250.194H169.652ZM186.4 255.495C187.54 253.747 188.965 252.379 190.675 251.391C192.385 250.365 194.285 249.852 196.375 249.852V260.169H193.696C191.264 260.169 189.44 260.701 188.224 261.765C187.008 262.791 186.4 264.615 186.4 267.237V282H176.653V250.194H186.4V255.495ZM213.973 282.456C211.199 282.456 208.729 281.981 206.563 281.031C204.397 280.081 202.687 278.789 201.433 277.155C200.179 275.483 199.476 273.621 199.324 271.569H208.957C209.071 272.671 209.584 273.564 210.496 274.248C211.408 274.932 212.529 275.274 213.859 275.274C215.075 275.274 216.006 275.046 216.652 274.59C217.336 274.096 217.678 273.469 217.678 272.709C217.678 271.797 217.203 271.132 216.253 270.714C215.303 270.258 213.764 269.764 211.636 269.232C209.356 268.7 207.456 268.149 205.936 267.579C204.416 266.971 203.105 266.04 202.003 264.786C200.901 263.494 200.35 261.765 200.35 259.599C200.35 257.775 200.844 256.122 201.832 254.64C202.858 253.12 204.34 251.923 206.278 251.049C208.254 250.175 210.591 249.738 213.289 249.738C217.279 249.738 220.414 250.726 222.694 252.702C225.012 254.678 226.342 257.3 226.684 260.568H217.678C217.526 259.466 217.032 258.592 216.196 257.946C215.398 257.3 214.334 256.977 213.004 256.977C211.864 256.977 210.99 257.205 210.382 257.661C209.774 258.079 209.47 258.668 209.47 259.428C209.47 260.34 209.945 261.024 210.895 261.48C211.883 261.936 213.403 262.392 215.455 262.848C217.811 263.456 219.73 264.064 221.212 264.672C222.694 265.242 223.986 266.192 225.088 267.522C226.228 268.814 226.817 270.562 226.855 272.766C226.855 274.628 226.323 276.3 225.259 277.782C224.233 279.226 222.732 280.366 220.756 281.202C218.818 282.038 216.557 282.456 213.973 282.456ZM262.8 265.584C262.8 266.496 262.743 267.446 262.629 268.434H240.57C240.722 270.41 241.349 271.93 242.451 272.994C243.591 274.02 244.978 274.533 246.612 274.533C249.044 274.533 250.735 273.507 251.685 271.455H262.059C261.527 273.545 260.558 275.426 259.152 277.098C257.784 278.77 256.055 280.081 253.965 281.031C251.875 281.981 249.538 282.456 246.954 282.456C243.838 282.456 241.064 281.791 238.632 280.461C236.2 279.131 234.3 277.231 232.932 274.761C231.564 272.291 230.88 269.403 230.88 266.097C230.88 262.791 231.545 259.903 232.875 257.433C234.243 254.963 236.143 253.063 238.575 251.733C241.007 250.403 243.8 249.738 246.954 249.738C250.032 249.738 252.768 250.384 255.162 251.676C257.556 252.968 259.418 254.811 260.748 257.205C262.116 259.599 262.8 262.392 262.8 265.584ZM252.825 263.019C252.825 261.347 252.255 260.017 251.115 259.029C249.975 258.041 248.55 257.547 246.84 257.547C245.206 257.547 243.819 258.022 242.679 258.972C241.577 259.922 240.893 261.271 240.627 263.019H252.825ZM73.012 343.399C70.086 343.399 67.464 342.924 65.146 341.974C62.828 341.024 60.966 339.618 59.56 337.756C58.192 335.894 57.47 333.652 57.394 331.03H67.768C67.92 332.512 68.433 333.652 69.307 334.45C70.181 335.21 71.321 335.59 72.727 335.59C74.171 335.59 75.311 335.267 76.147 334.621C76.983 333.937 77.401 333.006 77.401 331.828C77.401 330.84 77.059 330.023 76.375 329.377C75.729 328.731 74.912 328.199 73.924 327.781C72.974 327.363 71.606 326.888 69.82 326.356C67.236 325.558 65.127 324.76 63.493 323.962C61.859 323.164 60.453 321.986 59.275 320.428C58.097 318.87 57.508 316.837 57.508 314.329C57.508 310.605 58.857 307.698 61.555 305.608C64.253 303.48 67.768 302.416 72.1 302.416C76.508 302.416 80.061 303.48 82.759 305.608C85.457 307.698 86.901 310.624 87.091 314.386H76.546C76.47 313.094 75.995 312.087 75.121 311.365C74.247 310.605 73.126 310.225 71.758 310.225C70.58 310.225 69.63 310.548 68.908 311.194C68.186 311.802 67.825 312.695 67.825 313.873C67.825 315.165 68.433 316.172 69.649 316.894C70.865 317.616 72.765 318.395 75.349 319.231C77.933 320.105 80.023 320.941 81.619 321.739C83.253 322.537 84.659 323.696 85.837 325.216C87.015 326.736 87.604 328.693 87.604 331.087C87.604 333.367 87.015 335.438 85.837 337.3C84.697 339.162 83.025 340.644 80.821 341.746C78.617 342.848 76.014 343.399 73.012 343.399ZM123.584 326.584C123.584 327.496 123.527 328.446 123.413 329.434H101.354C101.506 331.41 102.133 332.93 103.235 333.994C104.375 335.02 105.762 335.533 107.396 335.533C109.828 335.533 111.519 334.507 112.469 332.455H122.843C122.311 334.545 121.342 336.426 119.936 338.098C118.568 339.77 116.839 341.081 114.749 342.031C112.659 342.981 110.322 343.456 107.738 343.456C104.622 343.456 101.848 342.791 99.4164 341.461C96.9844 340.131 95.0844 338.231 93.7164 335.761C92.3484 333.291 91.6644 330.403 91.6644 327.097C91.6644 323.791 92.3294 320.903 93.6594 318.433C95.0274 315.963 96.9274 314.063 99.3594 312.733C101.791 311.403 104.584 310.738 107.738 310.738C110.816 310.738 113.552 311.384 115.946 312.676C118.34 313.968 120.202 315.811 121.532 318.205C122.9 320.599 123.584 323.392 123.584 326.584ZM113.609 324.019C113.609 322.347 113.039 321.017 111.899 320.029C110.759 319.041 109.334 318.547 107.624 318.547C105.99 318.547 104.603 319.022 103.463 319.972C102.361 320.922 101.677 322.271 101.411 324.019H113.609ZM138.473 300.82V343H128.726V300.82H138.473ZM175.519 326.584C175.519 327.496 175.462 328.446 175.348 329.434H153.289C153.441 331.41 154.068 332.93 155.17 333.994C156.31 335.02 157.697 335.533 159.331 335.533C161.763 335.533 163.454 334.507 164.404 332.455H174.778C174.246 334.545 173.277 336.426 171.871 338.098C170.503 339.77 168.774 341.081 166.684 342.031C164.594 342.981 162.257 343.456 159.673 343.456C156.557 343.456 153.783 342.791 151.351 341.461C148.919 340.131 147.019 338.231 145.651 335.761C144.283 333.291 143.599 330.403 143.599 327.097C143.599 323.791 144.264 320.903 145.594 318.433C146.962 315.963 148.862 314.063 151.294 312.733C153.726 311.403 156.519 310.738 159.673 310.738C162.751 310.738 165.487 311.384 167.881 312.676C170.275 313.968 172.137 315.811 173.467 318.205C174.835 320.599 175.519 323.392 175.519 326.584ZM165.544 324.019C165.544 322.347 164.974 321.017 163.834 320.029C162.694 319.041 161.269 318.547 159.559 318.547C157.925 318.547 156.538 319.022 155.398 319.972C154.296 320.922 153.612 322.271 153.346 324.019H165.544ZM178.723 327.097C178.723 323.791 179.388 320.903 180.718 318.433C182.086 315.963 183.967 314.063 186.361 312.733C188.793 311.403 191.567 310.738 194.683 310.738C198.673 310.738 201.998 311.783 204.658 313.873C207.356 315.963 209.123 318.908 209.959 322.708H199.585C198.711 320.276 197.02 319.06 194.512 319.06C192.726 319.06 191.301 319.763 190.237 321.169C189.173 322.537 188.641 324.513 188.641 327.097C188.641 329.681 189.173 331.676 190.237 333.082C191.301 334.45 192.726 335.134 194.512 335.134C197.02 335.134 198.711 333.918 199.585 331.486H209.959C209.123 335.21 207.356 338.136 204.658 340.264C201.96 342.392 198.635 343.456 194.683 343.456C191.567 343.456 188.793 342.791 186.361 341.461C183.967 340.131 182.086 338.231 180.718 335.761C179.388 333.291 178.723 330.403 178.723 327.097ZM232.9 334.735V343H227.941C224.407 343 221.652 342.145 219.676 340.435C217.7 338.687 216.712 335.856 216.712 331.942V319.288H212.836V311.194H216.712V303.442H226.459V311.194H232.843V319.288H226.459V332.056C226.459 333.006 226.687 333.69 227.143 334.108C227.599 334.526 228.359 334.735 229.423 334.735H232.9ZM252.807 343.456C249.691 343.456 246.879 342.791 244.371 341.461C241.901 340.131 239.944 338.231 238.5 335.761C237.094 333.291 236.391 330.403 236.391 327.097C236.391 323.829 237.113 320.96 238.557 318.49C240.001 315.982 241.977 314.063 244.485 312.733C246.993 311.403 249.805 310.738 252.921 310.738C256.037 310.738 258.849 311.403 261.357 312.733C263.865 314.063 265.841 315.982 267.285 318.49C268.729 320.96 269.451 323.829 269.451 327.097C269.451 330.365 268.71 333.253 267.228 335.761C265.784 338.231 263.789 340.131 261.243 341.461C258.735 342.791 255.923 343.456 252.807 343.456ZM252.807 335.02C254.669 335.02 256.246 334.336 257.538 332.968C258.868 331.6 259.533 329.643 259.533 327.097C259.533 324.551 258.887 322.594 257.595 321.226C256.341 319.858 254.783 319.174 252.921 319.174C251.021 319.174 249.444 319.858 248.19 321.226C246.936 322.556 246.309 324.513 246.309 327.097C246.309 329.643 246.917 331.6 248.133 332.968C249.387 334.336 250.945 335.02 252.807 335.02ZM284.369 316.495C285.509 314.747 286.934 313.379 288.644 312.391C290.354 311.365 292.254 310.852 294.344 310.852V321.169H291.665C289.233 321.169 287.409 321.701 286.193 322.765C284.977 323.791 284.369 325.615 284.369 328.237V343H274.622V311.194H284.369V316.495Z" fill="#FF8B36"/>
<g clip-path="url(#clip0_40_999)">
<path d="M425.754 391.157C420.152 379.749 410.773 358.341 407.172 336.542C401.476 302.083 385.381 299.849 379.021 309.342C363.66 332.299 394.204 372.219 410.844 391.157H425.754Z" fill="#CDBFBC"/>
<path d="M398.965 354.227C403.299 364.5 409.825 378.094 418.53 391.157H420.378C411.46 377.94 404.792 364.074 400.386 353.648C394.003 338.528 390.888 327.156 390.852 327.038C390.746 326.636 390.319 326.388 389.905 326.506C389.49 326.613 389.253 327.038 389.36 327.44C389.395 327.57 392.546 339.013 398.965 354.227Z" fill="#AF9F9D"/>
<path d="M420.223 391.157C406.876 377.231 384.09 351.272 369.155 322.203C345.161 275.521 321.095 279.694 316.381 296.196C306.267 331.554 353.889 369.453 387.489 391.157H420.223Z" fill="#E3D7D5"/>
<path d="M405.656 391.156H409.28C392.143 377.136 377.647 361.792 367.331 349.782C351.248 331.069 341.56 316.245 341.454 316.091C341.11 315.559 340.388 315.406 339.855 315.76C339.322 316.103 339.168 316.824 339.511 317.356C339.606 317.51 349.365 332.44 365.543 351.26C375.503 362.845 389.324 377.527 405.656 391.156Z" fill="#CDBFBC"/>
<path d="M693.15 349.416C682.716 340.041 651.272 355.705 633.234 377.278L651.663 341.531C654.623 339.309 660.853 335.549 671.109 333.386C684.599 330.549 698.455 325.123 691.894 319.236C685.297 313.314 665.389 323.255 654.031 336.909L657.939 329.343C673.833 310.89 681.993 280.403 673.383 274.481C664.773 268.57 660.379 286.361 659.42 305.346C659.005 313.538 656.755 320.595 655.192 325.549L647.612 340.254C649.673 324.733 646.061 308.171 638.599 306.528C629.989 304.625 633.625 319.035 639.144 331.637C642.093 338.386 643.242 343.966 643.633 347.974L620.42 392.93H625.122L629.385 384.726C634.134 381.191 643.988 375.281 660.154 371.864C681.555 367.349 703.548 358.755 693.15 349.416Z" fill="#E3D7D5"/>
<path d="M514.47 410C594.086 410 658.627 404.559 658.627 397.848C658.627 391.136 594.086 385.695 514.47 385.695C434.855 385.695 370.314 391.136 370.314 397.848C370.314 404.559 434.855 410 514.47 410Z" fill="#E3D7D5"/>
<path d="M436.139 367.55C435.156 367.55 434.362 366.758 434.362 365.776V337.512C434.362 337.039 434.552 336.59 434.884 336.259L449.605 321.565V306.103L434.268 290.794C433.936 290.463 433.747 290.014 433.747 289.541V256.418C433.747 255.437 434.54 254.645 435.523 254.645C436.506 254.645 437.3 255.437 437.3 256.418V288.808L452.637 304.117C452.968 304.448 453.158 304.897 453.158 305.37V322.298C453.158 322.771 452.968 323.22 452.637 323.551L437.915 338.245V365.776C437.915 366.758 437.122 367.55 436.139 367.55Z" fill="#FF5325"/>
<path d="M469.655 369.606C468.672 369.606 467.879 368.814 467.879 367.833V335.797C467.879 335.325 468.068 334.875 468.4 334.544L474.878 328.078V308.112C474.878 307.131 475.672 306.339 476.655 306.339C477.638 306.339 478.431 307.131 478.431 308.112V328.811C478.431 329.284 478.242 329.733 477.91 330.064L471.432 336.53V367.833C471.432 368.803 470.638 369.606 469.655 369.606Z" fill="#FF5325"/>
<path d="M505.067 369.607C504.084 369.607 503.29 368.815 503.29 367.833V295.073L487.835 279.647C487.503 279.316 487.313 278.866 487.313 278.394V254.266C487.313 253.285 488.107 252.493 489.09 252.493C490.073 252.493 490.866 253.285 490.866 254.266V277.661L506.322 293.087C506.654 293.418 506.843 293.868 506.843 294.34V367.833C506.843 368.803 506.038 369.607 505.067 369.607Z" fill="#FF5325"/>
<path d="M540.277 372.29C539.294 372.29 538.501 371.498 538.501 370.517V350.184L526.622 338.327C526.29 337.996 526.101 337.547 526.101 337.074V303.076C526.101 302.603 526.29 302.154 526.622 301.823L537.861 290.605V269.421C537.861 268.44 538.654 267.648 539.637 267.648C540.62 267.648 541.414 268.44 541.414 269.421V291.338C541.414 291.811 541.224 292.26 540.893 292.591L529.654 303.809V336.341L541.532 348.198C541.864 348.529 542.053 348.978 542.053 349.451V370.517C542.053 371.498 541.26 372.29 540.277 372.29Z" fill="#FF5325"/>
<path d="M565.432 373.401C564.449 373.401 563.655 372.609 563.655 371.628V361.485C563.655 361.012 563.845 360.563 564.176 360.232L575.676 348.754V331.045L564.804 320.193C564.472 319.862 564.283 319.413 564.283 318.94V288.642C564.283 287.661 565.076 286.869 566.059 286.869C567.042 286.869 567.836 287.661 567.836 288.642V318.207L578.708 329.059C579.04 329.39 579.229 329.839 579.229 330.312V349.498C579.229 349.971 579.04 350.42 578.708 350.751L567.208 362.23V371.628C567.22 372.609 566.415 373.401 565.432 373.401Z" fill="#FF5325"/>
<path d="M587.2 367.549C586.217 367.549 585.423 366.757 585.423 365.776V321.482L578.211 314.283C577.879 313.952 577.689 313.502 577.689 313.03V304.353C577.689 303.88 577.879 303.431 578.211 303.1L584.476 296.846V273.665C584.476 272.684 585.269 271.892 586.252 271.892C587.235 271.892 588.029 272.684 588.029 273.665V297.579C588.029 298.052 587.839 298.501 587.508 298.832L581.242 305.086V312.297L588.455 319.496C588.787 319.827 588.976 320.276 588.976 320.749V365.776C588.976 366.757 588.183 367.549 587.2 367.549Z" fill="#FF5325"/>
<path d="M443.446 253.959C443.446 258.321 439.905 261.856 435.523 261.856C431.152 261.856 427.611 258.321 427.611 253.959C427.611 249.597 431.152 246.063 435.523 246.063C439.905 246.051 443.446 249.597 443.446 253.959Z" fill="#003F82"/>
<path d="M484.578 303.679C484.578 308.041 481.037 311.588 476.667 311.588C472.297 311.588 468.755 308.053 468.755 303.679C468.755 299.317 472.297 295.783 476.667 295.783C481.025 295.771 484.578 299.317 484.578 303.679Z" fill="#003F82"/>
<path d="M497.001 251.524C497.001 255.886 493.46 259.432 489.09 259.432C484.72 259.432 481.179 255.897 481.179 251.524C481.179 247.162 484.72 243.627 489.09 243.627C493.46 243.615 497.001 247.15 497.001 251.524Z" fill="#003F82"/>
<path d="M547.56 267.329C547.56 271.691 544.019 275.225 539.637 275.225C535.267 275.225 531.714 271.691 531.714 267.329C531.714 262.967 535.255 259.42 539.637 259.42C544.019 259.42 547.56 262.955 547.56 267.329Z" fill="#003F82"/>
<path d="M573.983 286.29C573.983 290.652 570.442 294.187 566.072 294.187C561.701 294.187 558.148 290.652 558.148 286.29C558.148 281.928 561.69 278.394 566.072 278.394C570.43 278.394 573.983 281.928 573.983 286.29Z" fill="#003F82"/>
<path d="M594.164 269.433C594.164 273.795 590.623 277.329 586.253 277.329C581.882 277.329 578.341 273.795 578.341 269.433C578.341 265.071 581.882 261.536 586.253 261.536C590.623 261.524 594.164 265.071 594.164 269.433Z" fill="#003F82"/>
<path d="M639.559 379.997V391.062C639.559 396.275 635.284 400.543 630.061 400.543H398.88C393.657 400.543 389.381 396.275 389.381 391.062V379.997C389.381 374.784 393.657 370.517 398.88 370.517H630.061C635.284 370.517 639.559 374.784 639.559 379.997Z" fill="#003F82"/>
<path d="M639.559 385.14V391.062C639.559 396.275 635.284 400.543 630.061 400.543H398.88C393.657 400.543 389.381 396.275 389.381 391.062V385.14H639.559Z" fill="#002029"/>
<path d="M607.819 376.049H422.495C416.005 376.049 410.747 370.8 410.747 364.322V161.351C410.747 103.852 456.924 56.3308 514.541 55.9998C572.384 55.6688 619.556 102.54 619.556 160.204V364.322C619.556 370.8 614.309 376.049 607.819 376.049ZM427.244 365.776H603.07C606.492 365.776 609.276 363.01 609.276 359.582V161.245C609.276 109.408 567.646 66.5798 515.714 66.2725C463.568 65.9769 421.05 108.226 421.05 160.204V359.582C421.05 363.01 423.822 365.776 427.244 365.776Z" fill="#003F82"/>
<path d="M589.924 164.306V188.883H453.939C447.627 188.883 442.499 183.764 442.499 177.464V169.567C442.499 169.106 442.499 168.657 442.51 168.219C442.534 166.943 442.581 165.666 442.688 164.413C442.866 162.06 443.162 159.732 443.588 157.426C443.813 156.15 444.086 154.873 444.382 153.62C445.294 149.778 446.561 146.066 448.1 142.52C448.657 141.231 449.249 139.966 449.889 138.713C452.234 134.068 455.135 129.741 458.451 125.793C459.553 124.481 460.702 123.204 461.922 121.986C463.923 119.918 466.067 117.979 468.329 116.182C470.188 114.716 472.119 113.345 474.12 112.068C476.311 110.673 478.585 109.408 480.93 108.262C486.65 105.484 492.833 103.486 499.311 102.387C500.566 102.174 501.845 102.008 503.124 101.855C505.623 101.595 508.181 101.441 510.751 101.441H526.941C528.777 101.441 530.565 101.512 532.354 101.689C533.633 101.784 534.888 101.914 536.143 102.103C550.865 104.254 563.928 111.513 573.473 121.998C574.622 123.216 575.688 124.492 576.695 125.805C579.064 128.843 581.16 132.105 582.924 135.545C583.576 136.798 584.18 138.063 584.736 139.352C587.449 145.593 589.178 152.367 589.711 159.483C589.805 160.736 589.865 162.013 589.888 163.29C589.924 163.621 589.924 163.964 589.924 164.306Z" fill="#FF8B36"/>
<path d="M589.936 188.883C589.936 192.536 588.455 195.243 586.027 198.612C585.933 198.754 585.814 198.907 585.708 199.073L573.094 211.663C566.995 217.739 558.729 221.167 550.118 221.167C543.676 221.167 539.069 219.405 535.184 216.746C531.299 214.086 528.125 210.575 524.608 207.04L523.957 206.39H510.811C504.747 206.39 499.37 203.293 496.22 198.6C494.348 195.81 493.259 192.477 493.259 188.871H589.936V188.883Z" fill="#FF5325"/>
<path d="M589.936 188.883C589.936 192.536 588.455 195.243 586.027 198.612C585.933 198.754 585.814 198.907 585.708 199.073L573.094 211.663C566.995 217.739 558.729 221.167 550.118 221.167C543.676 221.167 539.069 219.405 535.184 216.746C531.299 214.086 528.125 210.575 524.608 207.04L523.957 206.39H510.811C504.747 206.39 499.37 203.293 496.22 198.6C494.348 195.81 493.259 192.477 493.259 188.871H589.936V188.883Z" fill="#FF8B36"/>
<path d="M578.353 206.402L573.071 211.674C566.984 217.75 558.717 221.178 550.095 221.178C543.652 221.178 539.045 219.417 535.161 216.769C531.276 214.109 528.102 210.598 524.573 207.064L523.921 206.414H578.353V206.402Z" fill="#003F82"/>
<path d="M464.906 177.073H461.093C461.093 172.179 457.113 168.207 452.21 168.207H442.522C442.546 166.931 442.594 165.654 442.688 164.401H452.198C459.198 164.401 464.906 170.087 464.906 177.073Z" fill="#003F82"/>
<path d="M482.612 135.521C482.612 138.382 482.055 141.113 481.049 143.607C480.516 144.943 479.864 146.22 479.071 147.414C475.186 153.431 468.388 157.403 460.69 157.403H443.588C443.813 156.126 444.086 154.849 444.394 153.596H460.702C470.698 153.596 478.81 145.487 478.81 135.521H482.612Z" fill="#003F82"/>
<path d="M589.924 175.17V178.977H564.224C555.342 178.811 548.165 171.553 548.165 162.651H551.978C551.978 169.555 557.604 175.17 564.52 175.17H589.924Z" fill="#003F82"/>
<path d="M466.102 138.702V142.508H448.101C448.657 141.208 449.249 139.955 449.889 138.702H466.102Z" fill="#003F82"/>
<path d="M576.718 125.781H552.463C542.87 125.781 535.054 133.559 535.054 143.134H531.24C531.24 139.422 532.211 135.935 533.905 132.897C534.592 131.656 535.397 130.497 536.321 129.433C540.194 124.87 545.985 121.974 552.452 121.974H573.485C574.634 123.192 575.7 124.468 576.718 125.781Z" fill="#003F82"/>
<path d="M584.76 139.328H557.118V135.521H582.96C583.6 136.786 584.204 138.039 584.76 139.328Z" fill="#003F82"/>
<path d="M503.16 160.748V164.554C497.688 164.554 493.247 168.987 493.247 174.449V188.871H489.434V174.449C489.434 174.319 489.434 174.165 489.457 174.035C489.481 172.723 489.706 171.47 490.085 170.288C491.85 164.755 497.037 160.748 503.16 160.748Z" fill="#003F82"/>
<path d="M514.802 123.381V127.188C506.263 127.188 499.323 120.26 499.323 111.737V102.375C500.578 102.162 501.857 101.996 503.136 101.843V111.737C503.136 118.168 508.359 123.381 514.802 123.381Z" fill="#003F82"/>
<path d="M536.155 102.091C535.409 109.917 528.801 116.064 520.747 116.064V112.257C526.835 112.257 531.821 107.6 532.353 101.677C533.644 101.76 534.9 101.902 536.155 102.091Z" fill="#003F82"/>
<path d="M497.416 138.855H493.603C493.603 131.644 487.716 125.781 480.48 125.781H458.452C459.553 124.468 460.702 123.192 461.922 121.974H480.48C489.801 121.974 497.416 129.552 497.416 138.855Z" fill="#003F82"/>
<path d="M537.198 133.264H536.854C529.95 133.264 524.336 127.66 524.336 120.769H528.149C528.149 125.556 532.058 129.457 536.854 129.457H537.198V133.264Z" fill="#003F82"/>
<path d="M491.53 174.225C485.585 174.225 480.741 169.39 480.741 163.455V156.776H484.554V163.455C484.554 167.297 487.681 170.418 491.53 170.418V174.225Z" fill="#003F82"/>
<path d="M531.963 206.402H528.149V185.892C528.149 183.138 525.899 180.892 523.14 180.892C518.272 180.892 514.316 176.943 514.316 172.085V164.555H518.13V172.085C518.13 174.839 520.38 177.085 523.14 177.085C528.007 177.085 531.963 181.034 531.963 185.892V206.402Z" fill="#003F82"/>
<path d="M530.056 196.91V193.103C534.959 193.103 538.95 189.119 538.95 184.225V182.168H542.764V184.225C542.764 191.212 537.067 196.91 530.056 196.91Z" fill="#003F82"/>
<path d="M525.84 161.375H522.026C522.026 153.679 515.749 147.414 508.039 147.414H478.028V143.607H508.039C517.857 143.619 525.84 151.587 525.84 161.375Z" fill="#003F82"/>
<path d="M535.149 153.75H520.747V149.943H535.149C540.75 149.943 545.31 145.392 545.31 139.801H549.124C549.124 147.496 542.858 153.75 535.149 153.75Z" fill="#003F82"/>
<path d="M577.572 192.618C570.217 192.618 564.224 186.637 564.224 179.296V177.073H568.038V179.296C568.038 184.544 572.313 188.812 577.572 188.812V192.618Z" fill="#003F82"/>
<path d="M563.584 150.747H560.245V146.941H563.584C568.843 146.941 573.118 142.673 573.118 137.425H576.932C576.932 144.778 570.939 150.747 563.584 150.747Z" fill="#003F82"/>
<path d="M589.912 163.278H570.572V159.472H589.734C589.829 160.725 589.888 162.001 589.912 163.278Z" fill="#003F82"/>
<path d="M492.821 117.92H489.007C489.007 114.681 486.378 112.056 483.133 112.056H474.132C476.323 110.662 478.597 109.397 480.942 108.25H483.133C488.474 108.25 492.821 112.588 492.821 117.92Z" fill="#003F82"/>
<path d="M453.714 188.871V199.936C453.714 201.012 454.603 201.863 455.68 201.827C455.692 201.827 455.704 201.827 455.716 201.827C456.723 201.78 457.528 200.952 457.528 199.948V188.883H453.714V188.871Z" fill="#003F82"/>
<path d="M461.021 188.871V199.936C461.021 201.012 461.91 201.863 462.987 201.827C462.999 201.827 463.011 201.827 463.023 201.827C464.03 201.78 464.835 200.952 464.835 199.948V188.883H461.021V188.871Z" fill="#003F82"/>
<path d="M468.341 188.871V199.936C468.341 201.012 469.229 201.863 470.307 201.827C470.319 201.827 470.33 201.827 470.342 201.827C471.349 201.78 472.154 200.952 472.154 199.948V188.883H468.341V188.871Z" fill="#003F82"/>
<path d="M475.648 188.871V199.936C475.648 201.012 476.536 201.863 477.614 201.827C477.626 201.827 477.638 201.827 477.649 201.827C478.656 201.78 479.461 200.952 479.461 199.948V188.883H475.648V188.871Z" fill="#003F82"/>
<path d="M482.967 188.871V199.936C482.967 201.012 483.856 201.863 484.933 201.827C484.945 201.827 484.957 201.827 484.969 201.827C485.975 201.78 486.781 200.952 486.781 199.948V188.883H482.967V188.871Z" fill="#003F82"/>
<path d="M702.352 407.541C734.742 407.541 761 404.429 761 400.59C761 396.751 734.742 393.639 702.352 393.639C669.962 393.639 643.704 396.751 643.704 400.59C643.704 404.429 669.962 407.541 702.352 407.541Z" fill="#E3D7D5"/>
<path d="M647.447 334.994H629.244C628.426 334.994 627.763 334.332 627.763 333.516C627.763 332.701 628.426 332.039 629.244 332.039H645.966V273.559C645.966 272.743 646.63 272.081 647.447 272.081H701.144C701.961 272.081 702.625 272.743 702.625 273.559V286.219C702.625 287.035 701.961 287.697 701.144 287.697C700.327 287.697 699.664 287.035 699.664 286.219V275.048H648.927V333.528C648.927 334.332 648.264 334.994 647.447 334.994Z" fill="#FF5325"/>
<path d="M619.556 339.12H625.359C628.367 339.12 630.795 336.685 630.795 333.694V333.327C630.795 330.325 628.355 327.901 625.359 327.901H619.556V339.12Z" fill="#FF8401"/>
<path d="M667.497 294.873V396.796C667.497 399.042 669.321 400.85 671.559 400.85H730.74C731.877 400.85 732.896 400.389 733.63 399.645C734.352 398.912 734.802 397.907 734.802 396.796V294.873C734.802 292.627 732.979 290.818 730.74 290.818H671.559C670.754 290.818 670.008 291.054 669.38 291.444C668.243 292.165 667.497 293.43 667.497 294.873Z" fill="#FF5325"/>
<path d="M685.937 310.465H725.458C726.998 310.465 728.253 309.212 728.253 307.675C728.253 306.138 726.998 304.885 725.458 304.885H685.937C684.397 304.885 683.142 306.138 683.142 307.675C683.142 309.224 684.386 310.465 685.937 310.465Z" fill="#FF8401"/>
<path d="M685.937 323.185H725.458C726.998 323.185 728.253 321.932 728.253 320.395C728.253 318.858 726.998 317.605 725.458 317.605H685.937C684.397 317.605 683.142 318.858 683.142 320.395C683.142 321.943 684.386 323.185 685.937 323.185Z" fill="#FF8401"/>
<path d="M685.937 335.904H725.458C726.998 335.904 728.253 334.651 728.253 333.115C728.253 331.578 726.998 330.325 725.458 330.325H685.937C684.397 330.325 683.142 331.578 683.142 333.115C683.142 334.651 684.386 335.904 685.937 335.904Z" fill="#FF8401"/>
<path d="M685.937 348.624H725.458C726.998 348.624 728.253 347.371 728.253 345.834C728.253 344.297 726.998 343.044 725.458 343.044H685.937C684.397 343.044 683.142 344.297 683.142 345.834C683.142 347.371 684.386 348.624 685.937 348.624Z" fill="#FF8401"/>
<path d="M685.937 361.344H725.458C726.998 361.344 728.253 360.091 728.253 358.554C728.253 357.017 726.998 355.764 725.458 355.764H685.937C684.397 355.764 683.142 357.017 683.142 358.554C683.142 360.091 684.386 361.344 685.937 361.344Z" fill="#FF8401"/>
<path d="M685.937 374.064H725.458C726.998 374.064 728.253 372.81 728.253 371.274C728.253 369.737 726.998 368.484 725.458 368.484H685.937C684.397 368.484 683.142 369.737 683.142 371.274C683.142 372.81 684.386 374.064 685.937 374.064Z" fill="#FF8401"/>
<path d="M685.937 386.783H725.458C726.998 386.783 728.253 385.53 728.253 383.993C728.253 382.457 726.998 381.204 725.458 381.204H685.937C684.397 381.204 683.142 382.457 683.142 383.993C683.142 385.53 684.386 386.783 685.937 386.783Z" fill="#FF8401"/>
<path d="M675.148 306.079C675.148 306.741 675.681 307.273 676.344 307.273C677.007 307.273 677.54 306.741 677.54 306.079C677.54 305.417 677.007 304.885 676.344 304.885C675.681 304.885 675.148 305.417 675.148 306.079Z" fill="#173953"/>
<path d="M675.148 309.271C675.148 309.933 675.681 310.465 676.344 310.465C677.007 310.465 677.54 309.933 677.54 309.271C677.54 308.609 677.007 308.077 676.344 308.077C675.681 308.077 675.148 308.609 675.148 309.271Z" fill="#FF8401"/>
<path d="M675.148 318.799C675.148 319.461 675.681 319.993 676.344 319.993C677.007 319.993 677.54 319.461 677.54 318.799C677.54 318.137 677.007 317.605 676.344 317.605C675.681 317.605 675.148 318.137 675.148 318.799Z" fill="white"/>
<path d="M675.148 321.991C675.148 322.653 675.681 323.185 676.344 323.185C677.007 323.185 677.54 322.653 677.54 321.991C677.54 321.329 677.007 320.797 676.344 320.797C675.681 320.797 675.148 321.329 675.148 321.991Z" fill="#FF8401"/>
<path d="M675.148 344.238C675.148 344.9 675.681 345.432 676.344 345.432C677.007 345.432 677.54 344.9 677.54 344.238C677.54 343.576 677.007 343.044 676.344 343.044C675.681 343.044 675.148 343.576 675.148 344.238Z" fill="white"/>
<path d="M675.148 347.43C675.148 348.092 675.681 348.624 676.344 348.624C677.007 348.624 677.54 348.092 677.54 347.43C677.54 346.768 677.007 346.236 676.344 346.236C675.681 346.236 675.148 346.768 675.148 347.43Z" fill="#FF8401"/>
<path d="M675.148 331.519C675.148 332.181 675.681 332.713 676.344 332.713C677.007 332.713 677.54 332.181 677.54 331.519C677.54 330.857 677.007 330.325 676.344 330.325C675.681 330.325 675.148 330.857 675.148 331.519Z" fill="#173953"/>
<path d="M675.148 334.711C675.148 335.373 675.681 335.905 676.344 335.905C677.007 335.905 677.54 335.373 677.54 334.711C677.54 334.049 677.007 333.517 676.344 333.517C675.681 333.517 675.148 334.049 675.148 334.711Z" fill="#FF8401"/>
<path d="M675.148 356.958C675.148 357.62 675.681 358.152 676.344 358.152C677.007 358.152 677.54 357.62 677.54 356.958C677.54 356.296 677.007 355.764 676.344 355.764C675.681 355.764 675.148 356.296 675.148 356.958Z" fill="#173953"/>
<path d="M675.148 360.15C675.148 360.812 675.681 361.344 676.344 361.344C677.007 361.344 677.54 360.812 677.54 360.15C677.54 359.488 677.007 358.956 676.344 358.956C675.681 358.956 675.148 359.488 675.148 360.15Z" fill="#FF8401"/>
<path d="M675.148 369.678C675.148 370.34 675.681 370.872 676.344 370.872C677.007 370.872 677.54 370.34 677.54 369.678C677.54 369.016 677.007 368.484 676.344 368.484C675.681 368.472 675.148 369.016 675.148 369.678Z" fill="white"/>
<path d="M675.148 372.87C675.148 373.532 675.681 374.064 676.344 374.064C677.007 374.064 677.54 373.532 677.54 372.87C677.54 372.208 677.007 371.676 676.344 371.676C675.681 371.676 675.148 372.208 675.148 372.87Z" fill="#FF8401"/>
<path d="M675.148 382.386C675.148 383.048 675.681 383.58 676.344 383.58C677.007 383.58 677.54 383.048 677.54 382.386C677.54 381.724 677.007 381.192 676.344 381.192C675.681 381.192 675.148 381.736 675.148 382.386Z" fill="#173953"/>
<path d="M675.148 385.589C675.148 386.251 675.681 386.783 676.344 386.783C677.007 386.783 677.54 386.251 677.54 385.589C677.54 384.927 677.007 384.395 676.344 384.395C675.681 384.383 675.148 384.927 675.148 385.589Z" fill="#FF8401"/>
<path d="M680.335 290.818H721.965C721.965 288.276 719.904 286.219 717.358 286.219H684.942C682.396 286.219 680.335 288.276 680.335 290.818Z" fill="#173953"/>
</g>
<path d="M56.0519 60.9287C56.0519 56.3078 55.9909 51.687 56.0779 47.0676C56.1222 44.7572 57.2563 42.8639 59.2361 41.6594C62.5912 39.6175 66.0226 37.7 69.4265 35.7385C73.8181 33.2066 78.2172 30.6883 82.6072 28.1533C85.2586 26.6227 87.9039 26.6136 90.5553 28.1382C98.1371 32.4966 105.722 36.8489 113.298 41.2195C115.775 42.6485 117.105 44.8133 117.114 47.6653C117.143 56.5536 117.147 65.4419 117.117 74.3301C117.106 77.1412 115.838 79.3242 113.374 80.7426C105.752 85.1314 98.1188 89.5004 90.4897 93.8785C87.8856 95.3728 85.2861 95.3743 82.6835 93.8801C75.0774 89.514 67.4712 85.1511 59.868 80.7805C57.2304 79.265 55.9909 76.9682 56.0001 73.9585C56.0138 69.6152 56.0031 65.272 56.0031 60.9287C56.0199 60.9287 56.0352 60.9287 56.0519 60.9287ZM69.1151 71.1277C68.961 70.6513 68.7824 70.1795 68.6557 69.6956C68.4847 69.0418 67.9474 68.4016 68.1657 67.7523C68.3962 67.0651 68.2283 66.4962 68.1794 65.8424C68.0405 63.984 68.1275 62.1105 68.126 60.243C68.126 59.8895 68.2481 59.6817 68.6602 59.6847C70.7942 59.6999 72.9281 59.6954 75.0621 59.703C75.4483 59.7045 75.8146 59.8182 75.7948 60.2779C75.7749 60.7148 75.4376 60.824 75.0331 60.8195C74.0165 60.8104 73.0014 60.8149 71.9848 60.8286C71.7146 60.8316 71.3483 60.8256 71.2933 61.1456C71.2399 61.4566 71.6353 61.4779 71.8367 61.5719C73.8425 62.511 75.8574 63.4288 77.8738 64.3435C80.5313 65.5481 83.198 66.7313 85.8494 67.9525C86.3851 68.1998 86.8736 68.1938 87.3819 67.9617C90.1768 66.6858 92.9686 65.407 95.762 64.1281C97.9127 63.1436 100.062 62.156 102.213 61.1745C105.378 59.7318 108.544 58.2906 111.713 56.854C112.109 56.675 112.145 56.455 111.828 56.1865C111.677 56.0591 111.487 55.9695 111.304 55.8876C109.697 55.1625 108.086 54.4404 106.476 53.7198C103.278 52.2892 100.1 50.8162 96.9129 49.3629C93.6799 47.8899 90.4638 46.3789 87.246 44.8725C86.7912 44.6601 86.4035 44.6692 85.9501 44.8816C83.2376 46.1468 80.5175 47.3983 77.7929 48.6378C73.6669 50.5158 69.5334 52.3787 65.4074 54.2553C64.0107 54.8894 62.6263 55.5478 61.2342 56.1926C61.0968 56.2563 60.9167 56.2912 60.9106 56.4671C60.9045 56.631 61.0373 56.7114 61.1914 56.7796C62.5973 57.4031 63.9619 58.1419 65.412 58.6395C66.7598 59.1022 67.259 59.8456 67.0804 61.2443C66.8499 63.0525 67.3643 64.9124 66.7568 66.7101C66.7079 66.8573 66.7461 67.0985 66.8423 67.2168C67.2529 67.7174 67.059 68.1922 66.8804 68.7065C66.5965 69.5257 66.1676 70.313 66.0928 71.4311C67.1415 70.3768 68.0817 70.5436 69.1151 71.1277ZM103.66 68.0648C103.66 67.6112 103.644 67.1561 103.664 66.7025C103.687 66.17 103.463 66.0927 103.02 66.2975C102.06 66.7404 101.094 67.1713 100.131 67.6082C95.7711 69.5894 91.4117 71.5691 87.0552 73.5564C86.7973 73.6748 86.5988 73.7703 86.2844 73.6232C83.7978 72.4627 81.2976 71.3279 78.7988 70.1902C75.9535 68.8961 73.1052 67.6112 70.2615 66.3142C69.7654 66.0881 69.5547 66.214 69.5563 66.7571C69.5608 67.5642 69.5502 68.3712 69.5334 69.1783C69.5227 69.6956 69.7471 69.9808 70.2401 70.2023C75.4544 72.5537 80.6595 74.9233 85.8539 77.3156C86.3928 77.5629 86.8431 77.5705 87.3621 77.3308C92.2375 75.0917 97.0976 72.8161 102.01 70.6604C103.267 70.1098 104.067 69.5363 103.66 68.0648ZM103.658 63.3059C103.658 62.8523 103.643 62.3972 103.663 61.9436C103.681 61.487 103.565 61.3686 103.106 61.5795C100.474 62.7856 97.8288 63.9613 95.1926 65.1612C92.5336 66.3718 89.8776 67.593 87.2262 68.8203C86.8278 69.0054 86.4508 69.0281 86.057 68.8491C82.7095 67.3184 79.362 65.7847 76.0146 64.254C74.16 63.406 72.3069 62.5534 70.4462 61.716C69.657 61.3611 69.5547 61.4384 69.5502 62.3289C69.5456 63.1102 69.5593 63.893 69.5502 64.6758C69.5456 65.0459 69.6707 65.275 70.0417 65.4206C70.7652 65.7073 71.4704 66.0411 72.1787 66.3657C76.4801 68.3379 80.7969 70.2751 85.0678 72.311C86.1669 72.8343 87.0461 72.8374 88.1512 72.3155C92.7503 70.1401 97.3739 68.0117 102.039 65.9804C103.347 65.41 104.046 64.7562 103.658 63.3059Z" fill="#003F7D"/>
<path d="M147.583 80.6364C147.583 80.9719 147.593 81.3075 147.582 81.6416C147.561 82.3055 147.661 82.9104 148.341 83.2805C148.497 83.3655 148.637 83.4879 148.565 83.6852C148.497 83.871 148.293 83.9214 148.132 83.9243C147.354 83.9401 146.575 83.9373 145.796 83.9171C145.636 83.9128 145.43 83.8696 145.365 83.678C145.299 83.4807 145.444 83.3569 145.588 83.2633C146.253 82.8326 146.365 82.1889 146.363 81.4947C146.36 78.7886 146.356 76.081 146.363 73.3749C146.365 72.6966 146.215 72.0932 145.628 71.6481C145.489 71.543 145.334 71.4163 145.382 71.2348C145.439 71.0231 145.674 70.9468 145.86 70.9424C146.638 70.9266 147.419 70.9093 148.194 70.964C148.702 71.0001 148.808 71.3313 148.397 71.615C147.691 72.1018 147.573 72.7686 147.577 73.5132C147.585 74.5429 147.576 75.5726 147.58 76.6024C147.582 76.8141 147.538 77.0791 147.757 77.1943C148.016 77.3311 148.152 77.069 148.309 76.9293C149.939 75.4776 151.56 74.0172 153.198 72.5742C153.592 72.2257 153.771 71.9419 153.264 71.5372C152.926 71.2665 153.048 70.9828 153.465 70.9597C154.243 70.918 155.023 70.9381 155.801 70.954C155.995 70.9583 156.234 71.0289 156.257 71.2564C156.279 71.471 156.081 71.6136 155.897 71.6741C154.562 72.1148 153.715 73.1603 152.685 73.9812C152.313 74.2779 152.271 74.6048 152.458 75.0023C153.559 77.3326 154.667 79.6585 155.75 81.9973C155.994 82.5216 156.31 82.9464 156.854 83.2056C157.061 83.3036 157.273 83.4289 157.179 83.6968C157.111 83.8926 156.916 84.0107 156.715 84.0136C156.016 84.0237 155.31 84.0525 154.619 83.979C154.173 83.9315 153.93 83.6291 154.308 83.2186C154.607 82.8946 154.571 82.5734 154.412 82.2206C153.474 80.1366 152.522 78.0584 151.613 75.9629C151.361 75.3797 151.138 75.3206 150.67 75.7642C149.833 76.5563 148.97 77.321 148.102 78.08C147.726 78.4084 147.521 78.7684 147.567 79.2725C147.606 79.7247 147.576 80.1827 147.576 80.6378C147.58 80.6364 147.582 80.6364 147.583 80.6364Z" fill="#003F7D"/>
<path d="M136.06 84.008C135.118 84.1206 134.012 83.6983 132.873 83.9561C132.428 84.0569 132.237 83.6583 132.165 83.2983C131.97 82.3057 131.693 81.3249 131.646 80.31C131.636 80.1144 131.545 79.8937 131.821 79.8063C132.125 79.7085 132.355 79.8655 132.497 80.0892C132.753 80.4907 132.973 80.91 133.214 81.3204C134.336 83.2346 136.76 83.6628 138.652 82.8538C140.507 82.0627 140.684 79.8181 139.015 78.7573C137.903 78.0506 136.609 77.6773 135.41 77.132C134.28 76.6194 133.056 76.1972 132.41 75.1156C131.256 73.1778 132.481 70.8976 134.877 70.4635C135.861 70.2843 136.854 70.2502 137.851 70.385C138.385 70.4576 138.919 70.4828 139.453 70.348C139.887 70.2384 140.2 70.3835 140.313 70.7969C140.536 71.6058 140.76 72.4148 140.957 73.2281C141.012 73.4533 141.111 73.7585 140.784 73.88C140.46 74.0015 140.2 73.8178 140.048 73.5659C139.63 72.8711 139.071 72.3036 138.408 71.7895C137.304 70.9362 135.165 70.8576 134.046 71.6903C132.866 72.5674 133.01 74.2015 134.364 75.0223C135.468 75.692 136.726 76.0875 137.904 76.6239C138.646 76.9617 139.389 77.2817 140.083 77.7202C142.387 79.1766 141.985 82.1753 139.491 83.3679C138.335 83.922 137.812 84.0243 136.06 84.008Z" fill="#003F7D"/>
<path d="M197.993 84.002C197.065 84.1148 196.143 83.6918 195.197 83.9783C194.889 84.0718 194.649 83.812 194.587 83.4944C194.389 82.4808 194.211 81.4641 194.042 80.4445C194.004 80.2145 193.941 79.9058 194.242 79.8108C194.543 79.7158 194.732 79.9488 194.847 80.1996C195.2 80.9803 195.565 81.7402 196.181 82.3487C197.465 83.6147 199.839 83.5865 200.889 82.2656C201.89 81.0055 201.719 79.511 200.369 78.6769C199.282 78.0046 198.101 77.4985 196.969 76.9063C195.951 76.3735 194.977 75.7902 194.533 74.5821C193.951 72.9985 194.711 71.3259 196.265 70.6862C197.236 70.2855 198.233 70.281 199.237 70.3345C199.798 70.3642 200.351 70.4977 200.915 70.33C201.294 70.2172 201.506 70.4695 201.592 70.8035C201.807 71.6346 201.996 72.4731 202.184 73.3102C202.233 73.5254 202.268 73.7836 202.013 73.8831C201.741 73.9899 201.551 73.7822 201.437 73.5684C201.123 72.9807 200.72 72.4731 200.256 72.016C199.125 70.9014 197.055 70.707 196.03 71.8157C195.33 72.5726 195.292 73.9395 196.037 74.6593C197.05 75.6373 198.373 75.998 199.56 76.6288C200.188 76.9627 200.823 77.2699 201.4 77.7107C203.232 79.1132 203.188 81.7847 201.28 83.1249C200.287 83.8239 199.19 84.1208 197.993 84.002Z" fill="#003F7D"/>
<path d="M182.451 77.7715C182.451 76.158 182.451 74.5445 182.451 72.9324C182.451 72.4192 182.265 71.9988 181.858 71.6727C181.717 71.5596 181.518 71.4248 181.594 71.203C181.663 71 181.872 70.9391 182.069 70.9377C182.836 70.9319 183.606 70.9116 184.372 70.9478C184.825 70.9696 184.851 71.2943 184.55 71.5175C183.836 72.0452 183.748 72.7672 183.749 73.5645C183.759 76.4363 183.768 79.3082 183.739 82.18C183.732 82.9237 184.043 83.2165 184.74 83.289C185.629 83.3803 186.516 83.3601 187.4 83.318C188.296 83.276 188.905 82.8208 189.26 81.964C189.4 81.6262 189.522 80.9985 189.988 81.1362C190.451 81.2739 190.206 81.8437 190.161 82.2278C189.948 84.0139 189.925 84.0226 188.117 84.0197C186.245 84.0153 184.371 84.0255 182.499 84.0255C182.284 84.0255 182.059 84.0414 181.854 83.9878C181.497 83.8935 181.407 83.634 181.738 83.4398C182.416 83.0426 182.461 82.4308 182.454 81.7538C182.438 80.4273 182.449 79.0994 182.449 77.7715C182.449 77.7715 182.449 77.7715 182.451 77.7715Z" fill="#003F7D"/>
<path d="M168.89 77.5502C168.89 76.0788 168.89 74.6073 168.89 73.1359C168.89 72.5357 168.796 71.9776 168.109 71.6456C167.898 71.5441 167.803 71.3687 167.886 71.1527C167.965 70.9497 168.171 70.9396 168.364 70.9381C169.249 70.9323 170.136 70.9149 171.021 70.9396C171.508 70.9526 171.63 71.3078 171.3 71.5137C170.142 72.2356 170.29 73.3084 170.324 74.2811C170.415 76.8862 170.335 79.4899 170.384 82.0936C170.402 83.0895 170.658 83.3345 171.799 83.3475C172.658 83.3577 173.518 83.3693 174.373 83.3302C175.506 83.278 176.403 82.8923 176.772 81.866C176.829 81.7065 176.91 81.5485 177.015 81.4108C177.131 81.2556 177.245 81.0541 177.521 81.1034C177.82 81.1571 177.792 81.3847 177.785 81.5688C177.767 82.0747 177.777 82.5879 177.679 83.0837C177.572 83.6259 177.203 84.0101 176.503 84.013C173.817 84.0231 171.132 84.0289 168.447 84.0275C168.207 84.0275 167.905 84.0275 167.822 83.7752C167.752 83.5636 167.953 83.4302 168.153 83.3258C168.745 83.017 168.901 82.5372 168.896 81.9674C168.883 80.496 168.891 79.0246 168.891 77.5531C168.893 77.5502 168.891 77.5502 168.89 77.5502Z" fill="#003F7D"/>
<path d="M162.042 77.5433C162.042 76.1207 162.035 74.698 162.046 73.2754C162.051 72.6229 161.939 72.0268 161.255 71.6078C161.102 71.5135 160.926 71.3873 161.002 71.1872C161.088 70.961 161.318 70.9276 161.556 70.9276C162.414 70.9262 163.27 70.9262 164.128 70.9305C164.365 70.932 164.601 70.9827 164.675 71.2032C164.74 71.3989 164.551 71.5193 164.396 71.615C163.638 72.082 163.5 72.7693 163.497 73.4785C163.485 76.0104 163.488 78.541 163.507 81.073C163.514 81.9358 163.49 82.803 164.47 83.4193C164.911 83.6963 164.582 83.9747 164.192 83.9936C163.282 84.0357 162.362 84.0458 161.456 83.9834C160.94 83.9472 160.723 83.6659 161.244 83.3251C161.898 82.8987 162.066 82.3288 162.054 81.6661C162.032 80.2913 162.047 78.918 162.047 77.5433C162.046 77.5433 162.044 77.5433 162.042 77.5433Z" fill="#003F7D"/>
<path d="M153.944 91.7997C154.16 91.0273 154.814 90.3496 154.179 89.4594C154.109 89.3605 154.116 89.1374 154.242 89.1206C154.568 89.0764 154.897 89.0722 155.225 89.0932C155.389 89.1038 155.433 89.2742 155.398 89.4763C155.246 90.3223 155.644 90.9936 155.847 91.947C156.091 90.9894 156.377 90.297 156.379 89.4363C156.38 88.586 156.931 89.3395 157.202 89.089C156.693 90.2991 156.455 91.5724 156.123 92.8014C156.033 93.1318 155.9 93.3633 155.612 93.3844C155.255 93.4096 155.26 93.0098 155.176 92.7404C155.018 92.2311 154.887 91.7071 154.703 91.0357C154.495 91.7828 154.325 92.3679 154.17 92.9635C154.099 93.2371 153.958 93.3486 153.745 93.3718C153.495 93.4012 153.409 93.1845 153.336 92.9509C152.972 91.7891 152.797 90.5348 152.255 89.4594C152.193 89.3353 152.183 89.1374 152.311 89.1185C152.637 89.0722 152.968 89.0659 153.296 89.0869C153.464 89.0974 153.485 89.2784 153.455 89.4763C153.322 90.3454 153.77 91.0168 153.944 91.7997Z" fill="#003F7D"/>
<path d="M144.101 90.9802C143.888 91.5742 143.69 92.1788 143.46 92.7601C143.284 93.2067 143.078 93.2151 142.917 92.7306C142.727 92.1598 142.547 91.5827 142.298 91.0203C142.157 91.768 142.111 92.5074 142.358 93.2909C141.906 93.3183 141.47 93.7227 141.667 92.5411C141.826 91.5869 142.051 90.4831 141.642 89.4742C141.558 89.2678 141.626 89.1014 141.766 89.0866C142.087 89.055 142.473 88.8402 142.675 89.3857C142.917 90.0429 143.125 90.7254 143.364 91.4521C143.734 90.9192 143.851 90.2599 144.076 89.6848C144.197 89.3731 144.282 89.0024 144.617 89.055C144.907 89.1014 145.364 88.7243 145.113 89.7691C144.893 90.6896 144.853 91.846 145.261 92.817C145.417 93.1877 145.37 93.3373 145.075 93.352C144.789 93.3646 144.461 93.4468 144.225 93.2951C143.825 93.0403 144.317 92.7454 144.291 92.4294C144.254 91.9576 144.282 91.4773 144.282 90.9992C144.222 90.9929 144.161 90.9866 144.101 90.9802Z" fill="#003F7D"/>
<path d="M183.625 90.7907C184.002 90.3222 184.523 90.1646 184.624 89.385C184.709 88.7381 185.465 89.1403 185.939 89.1611C185.947 89.2958 185.974 89.4057 185.949 89.4182C184.999 89.9303 184.964 90.6021 185.514 91.477C185.848 92.0099 186.014 92.6506 186.523 93.0943C186.047 93.453 185.631 93.2995 185.242 93.3265C184.936 93.3472 184.687 93.2643 184.823 92.8538C184.93 92.5282 184.831 92.2276 184.654 91.9746C184.464 91.6989 184.523 91.0541 184.062 91.1971C183.554 91.3568 183.367 91.8772 183.509 92.4764C183.572 92.7397 184.089 93.0072 183.688 93.2394C183.294 93.4675 182.767 93.3866 182.305 93.2788C182.084 93.227 182.157 93.0404 182.218 92.8662C182.595 91.7694 182.609 90.6622 182.216 89.5716C182.062 89.1403 182.287 89.0844 182.591 89.0885C182.958 89.0926 183.404 88.9993 183.671 89.1777C184.103 89.4638 183.493 89.7188 183.489 90.0319C183.493 90.2641 183.444 90.4942 183.625 90.7907Z" fill="#003F7D"/>
<path d="M161.05 89.0649C161.469 89.0252 161.82 89.0649 162.142 89.3116C162.634 89.6838 162.874 90.6393 162.556 91.3084C162.29 91.8667 162.367 92.2055 162.602 92.6341C162.692 92.7993 162.909 92.9477 162.773 93.2112C162.614 93.5165 162.362 93.3262 162.151 93.3346C162.017 93.3408 161.822 93.3994 161.817 93.0188C161.814 92.816 161.841 92.6027 161.808 92.4146C161.746 92.0528 161.555 91.9148 161.347 92.034C161.098 92.1762 161.222 92.4668 161.295 92.7136C161.35 92.8996 161.567 93.1694 161.323 93.2676C161.039 93.3826 160.705 93.3931 160.423 93.276C160.193 93.1798 160.42 92.9101 160.457 92.7073C160.606 91.8605 160.653 90.9133 160.491 90.148C160.232 88.9227 160.592 88.9624 161.05 89.0649ZM161.171 90.5097C161.341 90.7753 160.945 91.5196 161.521 91.5134C161.836 91.5092 162.003 91.2269 161.998 90.7314C161.993 90.125 161.853 89.5834 161.428 89.5688C161.027 89.5542 161.274 90.1438 161.171 90.5097Z" fill="#003F7D"/>
<path d="M175.917 93.2673C176.224 91.9667 176.275 90.7566 175.991 89.5592C175.896 89.1614 175.948 89.033 176.177 89.0373C176.612 89.0436 177.051 88.9468 177.48 89.1404C178.254 89.4897 178.528 90.4999 178.056 91.5311C177.782 92.1308 178.14 92.3034 178.229 92.6549C178.279 92.8548 178.526 93.0189 178.351 93.2399C178.16 93.4798 177.889 93.3451 177.653 93.3325C177.528 93.3262 177.371 93.2862 177.427 92.9768C177.48 92.6885 177.466 92.4465 177.347 92.1961C177.231 91.9498 177.082 91.9646 176.937 92.0172C176.806 92.0677 176.783 92.2992 176.835 92.4423C177.335 93.8523 176.567 93.2336 176.269 93.3367C176.172 93.3725 176.06 93.2988 175.917 93.2673ZM176.798 90.4304C176.933 90.765 176.574 91.4911 177.136 91.4974C177.463 91.4995 177.605 91.1691 177.599 90.6787C177.592 90.1021 177.455 89.5865 177.062 89.5507C176.65 89.5108 176.896 90.1126 176.798 90.4304Z" fill="#003F7D"/>
<path d="M159.551 90.3855C159.579 90.6922 159.634 91.0009 159.625 91.3076C159.617 91.5475 159.547 91.8583 159.242 91.5538C159.006 91.318 158.718 91.1261 158.569 91.5079C158.431 91.8604 158.349 92.3965 158.64 92.6803C158.877 92.9139 159.298 92.8722 159.6 92.6135C159.819 92.4258 159.834 92.0377 160.139 91.923C160.504 92.9577 160.344 93.2852 159.439 93.3019C158.778 93.3144 157.987 93.5314 157.489 93.2122C156.984 92.8889 157.71 92.0961 157.56 91.4474C157.41 90.7986 157.706 90.0768 157.279 89.4426C157.06 89.1172 157.355 89.0337 157.582 89.0295C158.275 89.0191 158.97 89.0087 159.663 89.0358C160.155 89.0546 160.291 89.4864 160.286 89.9141C160.278 90.5003 159.989 90.1227 159.796 90.0351C159.429 89.5156 159.002 89.2277 158.543 89.8577C158.429 90.0121 158.463 90.4773 158.594 90.6359C158.987 91.1052 159.188 90.3104 159.551 90.3855Z" fill="#003F7D"/>
<path d="M141.074 91.7259C140.684 91.6656 140.499 90.9992 140.249 91.4511C140.06 91.7926 140.02 92.4756 140.278 92.6901C140.851 93.167 141.152 92.4007 141.487 91.8821C141.733 93.1066 141.636 93.3045 140.811 93.3107C140.303 93.3149 139.688 93.5273 139.312 93.217C138.877 92.8609 139.564 92.1758 139.413 91.526C139.266 90.8929 139.535 90.1578 139.192 89.5268C138.977 89.1312 139.229 89.0479 139.443 89.0416C139.977 89.0249 140.515 88.9937 141.046 89.0541C141.589 89.1145 141.65 89.6164 141.55 90.2307C141.221 90.2016 141.166 89.7351 140.91 89.6434C140.687 89.5643 140.439 89.4373 140.26 89.6809C140.085 89.9183 140.117 90.2974 140.209 90.5618C140.366 91.0075 140.581 90.5577 140.75 90.5702C141.395 90.6222 140.943 91.2532 141.074 91.7259Z" fill="#003F7D"/>
<path d="M168.431 91.3678C168.425 90.0452 169.129 89.0376 170.07 89.0188C170.922 89.0021 171.532 89.8345 171.55 91.0382C171.571 92.3609 170.873 93.3643 169.92 93.3852C169.082 93.406 168.436 92.5298 168.431 91.3678ZM170.802 91.5994C170.785 90.4353 170.338 89.5257 169.835 89.58C169.257 89.6426 169.202 90.2517 169.198 90.8588C169.19 91.9165 169.643 92.8156 170.166 92.7718C170.753 92.7218 170.776 92.1001 170.802 91.5994Z" fill="#003F7D"/>
<path d="M146.894 89.0301C146.967 89.0385 147.313 89.0531 147.649 89.116C148.532 89.2814 149.104 89.7798 149.092 90.7347C149.077 91.7336 148.354 91.9744 147.545 92.0581C147.035 92.1105 146.449 92.0812 147.013 92.856C147.127 93.013 147.172 93.2078 146.946 93.2685C146.478 93.3942 145.949 93.4612 145.533 93.2455C145.054 92.9984 145.659 92.7638 145.676 92.4916C145.734 91.6226 145.968 90.6614 145.618 89.9138C145.114 88.8374 145.732 89.0364 146.314 89.028C146.416 89.028 146.519 89.0301 146.894 89.0301ZM146.753 90.5567C146.928 90.9022 146.443 91.566 147.249 91.5598C147.779 91.5556 148.053 91.2331 148.037 90.6907C148.016 90.0688 147.744 89.5243 147.104 89.5599C146.474 89.5934 146.938 90.2342 146.753 90.5567Z" fill="#003F7D"/>
<path d="M152.211 91.0367C152.223 92.3682 151.658 93.3834 150.907 93.3855C150.228 93.3855 149.723 92.5263 149.716 91.3592C149.707 90.0589 150.284 89.0333 151.032 89.0187C151.722 89.0062 152.2 89.8238 152.211 91.0367ZM151.621 91.5319C151.608 90.4313 151.245 89.5138 150.841 89.5742C150.386 89.6428 150.327 90.2337 150.325 90.8495C150.322 91.9043 150.686 92.8092 151.1 92.7614C151.569 92.7073 151.592 92.0853 151.621 91.5319Z" fill="#003F7D"/>
<path d="M194.05 91.7858C194.475 92.2503 194.63 92.7503 195.041 92.8545C195.26 92.9107 195.497 92.9399 195.618 92.6587C195.753 92.342 195.558 92.1399 195.373 91.9878C195.125 91.7837 194.861 91.6108 194.604 91.4191C194.23 91.1399 193.961 90.7649 194.051 90.1628C194.145 89.5462 194.497 89.2337 194.945 89.1066C195.848 88.8504 196.329 89.1587 196.314 89.9628C196.312 90.092 196.306 90.2753 196.243 90.3399C196.108 90.4774 196.004 90.3316 195.92 90.1899C195.887 90.1358 195.848 90.0858 195.813 90.0358C195.607 89.7545 195.389 89.4774 195.054 89.617C194.974 89.6504 194.88 89.8087 194.872 89.9191C194.832 90.4024 195.153 90.5358 195.398 90.7274C195.928 91.1441 196.745 91.3774 196.437 92.4837C196.163 93.467 195.448 93.3878 194.733 93.3816C193.738 93.3691 194.063 92.6191 194.05 91.7858Z" fill="#003F7D"/>
<path d="M179.661 91.7674C180.178 92.1308 180.308 92.7898 180.8 92.8124C180.993 92.8206 181.192 92.8349 181.284 92.5804C181.377 92.3176 181.258 92.1143 181.089 91.9788C180.796 91.7448 180.483 91.5497 180.197 91.2993C179.487 90.6772 179.561 89.7041 180.336 89.2257C180.8 88.9403 181.312 88.9773 181.736 89.1703C182.081 89.3263 181.966 89.9176 181.947 90.359C181.51 90.3672 181.462 89.8047 181.165 89.6548C180.951 89.546 180.744 89.4495 180.588 89.7226C180.433 89.9977 180.539 90.2563 180.733 90.4185C181.022 90.6608 181.327 90.8702 181.627 91.0919C181.975 91.3485 182.221 91.6832 182.141 92.2437C182.065 92.7651 181.786 93.0382 181.417 93.2394C180.938 93.5001 180.438 93.3544 180.001 93.2435C179.507 93.1162 179.762 92.4182 179.661 91.7674Z" fill="#003F7D"/>
<path d="M174.534 90.7826C174.507 90.4045 174.505 90.0201 174.442 89.6483C174.405 89.4352 174.129 89.2033 174.49 89.078C174.691 89.0069 174.959 88.9902 175.145 89.08C175.477 89.2409 175.151 89.4623 175.134 89.665C175.074 90.3523 175.086 91.0479 175.028 91.7373C174.934 92.8654 174.413 93.3855 173.427 93.3855C172.507 93.3855 172 92.8737 171.837 91.8146C171.713 91.0103 171.918 90.2039 171.584 89.3704C171.392 88.8941 172.069 89.078 172.357 89.0508C172.852 89.0069 173.379 88.9129 172.89 89.8279C172.593 90.3815 172.771 91.1252 172.821 91.777C172.859 92.2888 173.082 92.7525 173.634 92.7546C174.225 92.7546 174.457 92.3055 174.493 91.7227C174.513 91.4114 174.497 91.098 174.497 90.7847C174.507 90.7826 174.52 90.7826 174.534 90.7826Z" fill="#003F7D"/>
<path d="M165.312 89.2909C166.334 88.3653 166.311 90.0378 166.712 90.754C166.91 90.5365 167.065 90.1712 167.058 89.8819C167.032 88.8332 167.401 89.1205 167.807 89.1985C167.587 89.6931 167.398 90.0994 167.22 90.5242C166.917 91.2445 166.701 91.9915 167.01 92.8719C167.119 93.1838 167.016 93.27 166.841 93.3295C166.293 93.5162 166.113 93.2454 166.233 92.3793C166.324 91.7186 166.155 91.1932 165.925 90.6904C165.718 90.239 165.522 89.7752 165.312 89.2909Z" fill="#003F7D"/>
<path d="M191.641 91.3728C191.641 90.7912 191.692 90.3349 191.632 90.0314C191.425 88.9828 191.645 88.9977 191.938 89.0274C192.177 89.0507 192.231 89.1314 192.116 89.8085C191.974 90.6469 192.078 91.6105 192.067 92.5168C192.065 92.7206 192.12 92.8246 192.194 92.8501C192.321 92.8967 192.43 92.8309 192.506 92.5232C192.554 92.3343 192.562 92.0095 192.685 92.0371C192.779 92.0584 192.762 92.2897 192.757 92.4489C192.747 92.7885 192.771 93.283 192.61 93.3276C192.279 93.4146 191.943 93.3807 191.609 93.3701C191.541 93.3679 191.477 93.1939 191.538 93.005C191.718 92.4446 191.619 91.7867 191.641 91.3728Z" fill="#003F7D"/>
<path d="M190.187 91.8491C190.355 93.1906 190.289 93.3602 189.666 93.3793C189.259 93.392 188.85 93.3814 188.395 93.3814C188.656 92.025 188.749 90.7534 188.444 89.4861C188.38 89.2169 188.43 89.0601 188.582 89.0558C188.846 89.0452 189.16 88.9393 189.362 89.1406C189.624 89.4013 189.231 89.6726 189.238 90.0138C189.254 90.8234 189.199 91.6393 189.244 92.4425C189.282 93.1419 189.603 92.8855 189.795 92.7011C189.939 92.5612 190.02 92.2264 190.187 91.8491Z" fill="#003F7D"/>
<path d="M186.523 93.381C186.715 92.0054 186.739 90.7914 186.578 89.5964C186.522 89.1785 186.563 89.1323 186.682 89.0735C187.028 88.9034 187.071 89.1008 187.051 90.0585C187.032 91.0057 186.95 92.0033 187.121 92.9189C187.187 93.2739 187.118 93.3642 187.022 93.3768C186.867 93.3936 186.712 93.381 186.523 93.381Z" fill="#003F7D"/>
<defs>
<filter id="filter0_d_40_999" x="0" y="0" width="799" height="474" filterUnits="userSpaceOnUse" color-interpolation-filters="sRGB">
<feFlood flood-opacity="0" result="BackgroundImageFix"/>
<feColorMatrix in="SourceAlpha" type="matrix" values="0 0 0 0 0 0 0 0 0 0 0 0 0 0 0 0 0 0 127 0" result="hardAlpha"/>
<feOffset dy="4"/>
<feGaussianBlur stdDeviation="2"/>
<feComposite in2="hardAlpha" operator="out"/>
<feColorMatrix type="matrix" values="0 0 0 0 0 0 0 0 0 0 0 0 0 0 0 0 0 0 0.1 0"/>
<feBlend mode="normal" in2="BackgroundImageFix" result="effect1_dropShadow_40_999"/>
<feBlend mode="normal" in="SourceGraphic" in2="effect1_dropShadow_40_999" result="shape"/>
</filter>
<clipPath id="clip0_40_999">
<rect width="461" height="354" fill="white" transform="translate(300 56)"/>
</clipPath>
</defs>
</svg>
